<?xml version="1.0" encoding="utf-8"?>
<!-- Generator: Adobe Illustrator 24.3.0, SVG Export Plug-In . SVG Version: 6.00 Build 0)  -->
<svg version="1.1" id="Layer_1" xmlns="http://www.w3.org/2000/svg" xmlns:xlink="http://www.w3.org/1999/xlink" x="0px" y="0px"
	 viewBox="0 0 18 18" style="enable-background:new 0 0 18 18;" xml:space="preserve">
<style type="text/css">
	.st0{fill:#B68A35;}
</style>
<g id="Layer_2_1_">
	<g id="Layer_1-2">
		<path class="st0" d="M16.8,4.5C16,3.1,14.9,2,13.5,1.2C12.2,0.4,10.6,0,9,0C7.4,0,5.8,0.4,4.5,1.2C3.1,2,2,3.1,1.2,4.5
			C0.4,5.8,0,7.4,0,9c0,1.6,0.4,3.2,1.2,4.5C2,14.9,3.1,16,4.5,16.8C5.8,17.6,7.4,18,9,18c1.6,0,3.2-0.4,4.5-1.2
			c1.4-0.8,2.5-1.9,3.3-3.3C17.6,12.2,18,10.6,18,9C18,7.4,17.6,5.8,16.8,4.5z M10.5,14.6c0,0.1,0,0.2-0.1,0.3
			C10.3,15,10.2,15,10.1,15H7.9c-0.1,0-0.2,0-0.3-0.1c-0.1-0.1-0.1-0.2-0.1-0.3v-2.3c0-0.2,0.2-0.4,0.4-0.4l0,0h2.3
			c0.1,0,0.2,0,0.3,0.1c0.1,0.1,0.1,0.2,0.1,0.3V14.6z M13.4,7.7c-0.1,0.2-0.2,0.5-0.3,0.7c-0.1,0.2-0.3,0.4-0.5,0.6
			c-0.2,0.2-0.3,0.3-0.5,0.4l-0.6,0.3c-0.3,0.1-0.5,0.3-0.6,0.6c-0.1,0.2-0.2,0.4-0.3,0.6c0,0.1,0,0.2-0.1,0.3
			c-0.1,0.1-0.2,0.1-0.3,0.1H7.9c-0.1,0-0.2,0-0.3-0.1c-0.1-0.1-0.1-0.2-0.1-0.3v-0.4c0-0.6,0.2-1.1,0.6-1.5C8.5,8.6,9,8.2,9.5,8
			c0.3-0.1,0.6-0.3,0.8-0.5c0.2-0.2,0.2-0.5,0.2-0.7c0-0.3-0.2-0.6-0.4-0.7c-0.3-0.2-0.6-0.3-1-0.3c-0.4,0-0.7,0.1-1,0.3
			C7.7,6.3,7.3,6.7,7,7.1C6.9,7.2,6.8,7.2,6.7,7.2c-0.1,0-0.2,0-0.2-0.1L5,6C4.8,5.9,4.8,5.7,4.9,5.5c0,0,0,0,0,0
			C5.8,3.9,7.4,3,9.2,3c0.7,0,1.4,0.2,2,0.5c0.6,0.3,1.2,0.8,1.6,1.4c0.4,0.5,0.6,1.2,0.6,1.9C13.5,7.1,13.5,7.4,13.4,7.7L13.4,7.7z
			"/>
	</g>
</g>
</svg>
