<!-- Generated by IcoMoon.io -->
<svg version="1.1" xmlns="http://www.w3.org/2000/svg" width="34" height="32" viewBox="0 0 34 32">
<title>Home</title>
<path fill="#bfc5d1" stroke="#bfc5d1" stroke-linejoin="miter" stroke-linecap="butt" stroke-miterlimit="10" stroke-width="0.617" d="M27.952 15.685c-0.004-0-0.008-0-0.013-0-0.511 0-0.926 0.414-0.926 0.926 0 0.009 0 0.017 0 0.026l-0-0.001v12.896h-6.689v-5.27c-0.007-0.504-0.41-0.912-0.912-0.926l-0.001-0h-4.838c-0 0-0 0-0.001 0-0.519 0-0.941 0.41-0.962 0.924l-0 0.002v5.27h-6.676v-12.477c0-0.511-0.414-0.926-0.926-0.926s-0.926 0.414-0.926 0.926v0 13.415c0.007 0.502 0.412 0.906 0.913 0.913h8.639c0.502-0.007 0.906-0.412 0.913-0.913v-5.27h2.962v5.27c0.014 0.507 0.428 0.913 0.938 0.913 0.004 0 0.009-0 0.013-0h8.539c0.502-0.007 0.906-0.412 0.913-0.913v-13.835c0-0.007 0-0.016 0-0.025 0-0.507-0.408-0.919-0.913-0.925h-0.001z"></path>
<path fill="#bfc5d1" stroke="#bfc5d1" stroke-linejoin="miter" stroke-linecap="butt" stroke-miterlimit="10" stroke-width="0.617" d="M27.952 31.691h-8.54c-0.682 0-1.234-0.553-1.234-1.234v0-4.936h-2.382v4.936c0 0.682-0.553 1.234-1.234 1.234v0h-8.565c-0.682 0-1.234-0.553-1.234-1.234v0-13.402c0-0.682 0.553-1.234 1.234-1.234s1.234 0.553 1.234 1.234v0 12.168h6.059v-4.936c0-0.682 0.553-1.234 1.234-1.234v0h4.838c0.682 0 1.234 0.553 1.234 1.234v0 4.936h6.072v-12.588c0-0.682 0.553-1.234 1.234-1.234s1.234 0.553 1.234 1.234v0 13.834c-0.006 0.659-0.529 1.195-1.182 1.222l-0.002 0zM15.179 24.892h3.604v5.578c0 0 0 0 0 0 0 0.334 0.271 0.605 0.605 0.605 0.009 0 0.017-0 0.026-0.001l-0.001 0h8.54c0.331-0.007 0.598-0.273 0.605-0.604v-13.835c0-0.341-0.276-0.617-0.617-0.617s-0.617 0.276-0.617 0.617v0 13.205h-7.306v-5.578c-0.006-0.334-0.272-0.604-0.603-0.617l-0.001-0h-4.838c-0.004-0-0.008-0-0.013-0-0.346 0-0.628 0.273-0.641 0.616l-0 0.001v5.578h-7.293v-12.785c-0.007-0.329-0.275-0.593-0.605-0.593-0.009 0-0.017 0-0.026 0.001l0.001-0c-0.327 0.006-0.591 0.266-0.605 0.591l-0 0.001v13.415c0.007 0.331 0.274 0.598 0.604 0.605h8.639c0.331-0.007 0.598-0.273 0.605-0.604v-0.001z"></path>
<path fill="#bfc5d1" stroke="#bfc5d1" stroke-linejoin="miter" stroke-linecap="butt" stroke-miterlimit="10" stroke-width="0.617" d="M33.086 16.426l-7.405-7.479v-5.097c0-0.001 0-0.001 0-0.002 0-0.518-0.42-0.938-0.938-0.938-0.022 0-0.043 0.001-0.065 0.002l0.003-0c-0 0-0 0-0 0-0.504 0-0.913 0.409-0.913 0.913 0 0.009 0 0.017 0 0.026l-0-0.001v3.233l-6.17-6.17c-0.158-0.172-0.379-0.284-0.627-0.296l-0.002-0c-0.263 0.004-0.5 0.117-0.666 0.296l-0.001 0.001-15.401 15.414c-0.157 0.158-0.254 0.376-0.254 0.617s0.097 0.459 0.254 0.617l-0-0c0.163 0.177 0.396 0.287 0.654 0.287s0.491-0.11 0.654-0.287l0.001-0.001 14.809-14.747 14.809 14.883c0.161 0.154 0.38 0.248 0.621 0.248 0.016 0 0.032-0 0.048-0.001l-0.002 0c0.001 0 0.002 0 0.003 0 0.258 0 0.495-0.093 0.677-0.248l-0.002 0.001c0.166-0.173 0.268-0.408 0.268-0.666s-0.102-0.494-0.268-0.667l0 0z"></path>
<path fill="#bfc5d1" stroke="#bfc5d1" stroke-linejoin="miter" stroke-linecap="butt" stroke-miterlimit="10" stroke-width="0.617" d="M32.42 18.314c-0.013 0-0.029 0.001-0.044 0.001-0.327 0-0.624-0.127-0.845-0.335l0.001 0.001-14.538-14.673-14.525 14.538c-0.224 0.229-0.537 0.371-0.883 0.371-0.019 0-0.039-0-0.058-0.001l0.003 0c-0.331-0.009-0.626-0.159-0.826-0.393l-0.001-0.002c-0.215-0.192-0.351-0.468-0.358-0.776l-0-0.001c-0.001-0.013-0.001-0.028-0.001-0.044 0-0.352 0.147-0.669 0.383-0.894l0-0 15.377-15.426c0.223-0.222 0.531-0.359 0.87-0.359s0.647 0.137 0.87 0.359l-0-0 5.603 5.652v-2.468c0-0.682 0.553-1.234 1.234-1.234v0c0.682 0 1.234 0.553 1.234 1.234v0 4.936l7.343 7.405c0.233 0.225 0.378 0.54 0.378 0.889s-0.145 0.664-0.377 0.888l-0 0c-0.225 0.195-0.516 0.319-0.836 0.333l-0.003 0zM16.993 2.468l14.97 15.081c0.126 0.101 0.287 0.162 0.463 0.162s0.337-0.061 0.464-0.164l-0.001 0.001c0.103-0.118 0.166-0.274 0.166-0.444s-0.063-0.326-0.166-0.445l0.001 0.001-7.528-7.565v-5.245c-0.006-0.35-0.291-0.63-0.642-0.63-0.013 0-0.026 0-0.039 0.001l0.002-0c-0 0-0 0-0 0-0.334 0-0.605 0.271-0.605 0.605 0 0.009 0 0.017 0.001 0.026l-0-0.001v3.974l-6.664-6.701c-0.105-0.127-0.262-0.207-0.438-0.207s-0.333 0.080-0.437 0.206l-0.001 0.001-15.414 15.414c-0.122 0.115-0.198 0.278-0.198 0.458 0 0.008 0 0.016 0 0.024l-0-0.001c0.003 0.15 0.074 0.283 0.184 0.369l0.001 0.001c0.094 0.125 0.241 0.207 0.407 0.21h0c0.010 0.001 0.021 0.001 0.032 0.001 0.174 0 0.33-0.076 0.436-0.198l0.001-0.001z"></path>
</svg>
