<svg xmlns="http://www.w3.org/2000/svg" width="20.282" height="25.15" viewBox="0 0 20.282 25.15">
  <defs>
    <style>
      .cls-1 {
        fill: #bfc5d1;
      }
    </style>
  </defs>
  <g id="Search" transform="translate(0.002)">
    <path id="Path_41" data-name="Path 41" class="cls-1" d="M20.13,24.34l-1.08-1.07V9.46A.32.32,0,0,0,19,9.23L17.24,7.51a.58.58,0,0,1-.18-.43V.52a.39.39,0,0,0-.4-.39H.38A.26.26,0,0,0,.12.38v21.2a.27.27,0,0,0,.27.26H2.85a.27.27,0,0,1,.27.26v1.47a.26.26,0,0,0,.26.26H18.49l1.07,1.08a.39.39,0,0,0,.29.11.38.38,0,0,0,.28-.11.42.42,0,0,0,0-.57ZM17.18,9.09H13.42a.35.35,0,0,1-.35-.34V4.63a.07.07,0,0,1,.11,0l4.15,4.15a.21.21,0,0,1-.15.31ZM.92,20.78V1.18A.26.26,0,0,1,1.18.92H15.86a.4.4,0,0,1,.4.4V6.11a.17.17,0,0,1-.3.12l-3.1-3.09H3.37a.25.25,0,0,0-.25.25V20.78a.27.27,0,0,1-.27.26H1.19a.27.27,0,0,1-.27-.26Zm3,2V4.17a.26.26,0,0,1,.26-.26h8a.07.07,0,0,1,.07.07V9.54a.35.35,0,0,0,.34.35H17.9a.32.32,0,0,1,.32.32V22.47l-3-3a4.73,4.73,0,1,0-.56.56l3,3H4.18a.27.27,0,0,1-.27-.26Zm7.75-2.41a3.92,3.92,0,1,1,3.92-3.92,3.92,3.92,0,0,1-3.92,3.92Z"/>
    <path id="Path_42" data-name="Path 42" class="cls-1" d="M19.85,25.15a.51.51,0,0,1-.37-.15l-1.05-1h-15A.4.4,0,0,1,3,23.57V22.1a.14.14,0,0,0-.15-.1H.39A.38.38,0,0,1,0,21.58V.38A.38.38,0,0,1,.38,0H16.66a.52.52,0,0,1,.52.52V7.08a.48.48,0,0,0,.14.34L19,9.14a.44.44,0,0,1,.13.32V23.21l1,1.05a.54.54,0,0,1,.15.37.56.56,0,0,1-.15.37A.51.51,0,0,1,19.85,25.15ZM.38.25A.13.13,0,0,0,.25.38v21.2a.13.13,0,0,0,.14.13H2.85a.39.39,0,0,1,.39.39v1.47a.14.14,0,0,0,.14.14H18.54l1.11,1.11a.29.29,0,0,0,.39,0,.27.27,0,0,0,.08-.19.28.28,0,0,0-.08-.2l-1.12-1.11V9.46a.24.24,0,0,0-.05-.14L17.15,7.6a.73.73,0,0,1-.22-.52V.52a.27.27,0,0,0-.27-.27ZM18,23.16H4.18a.39.39,0,0,1-.39-.39V4.17a.38.38,0,0,1,.38-.38h8A.18.18,0,0,1,12.4,4V9.54a.22.22,0,0,0,.22.22h5.31a.45.45,0,0,1,.45.45V22.77l-3.29-3.29.08-.08a4.67,4.67,0,1,0-.55.54l.08-.07ZM4.17,4A.13.13,0,0,0,4,4.17v18.6a.14.14,0,0,0,.14.14H17.39l-2.7-2.7a4.84,4.84,0,1,1,.74-.74l2.7,2.7v-12a.2.2,0,0,0-.2-.2H12.62a.47.47,0,0,1-.47-.47V4ZM2.85,21.17H1.19a.39.39,0,0,1-.39-.39V1.18A.38.38,0,0,1,1.18.8H15.86a.52.52,0,0,1,.53.52V6.11a.32.32,0,0,1-.19.28.3.3,0,0,1-.33-.07L12.79,3.24H3.37a.13.13,0,0,0-.13.13V20.78A.39.39,0,0,1,2.85,21.17ZM1.18,1.05a.13.13,0,0,0-.13.13v19.6a.14.14,0,0,0,.14.14H2.85A.14.14,0,0,0,3,20.78V3.37A.38.38,0,0,1,3.37,3h9.44a.2.2,0,0,1,.14.06l3.1,3.1a.05.05,0,0,0,.05,0h0V1.32a.28.28,0,0,0-.28-.27ZM11.66,20.48a4,4,0,1,1,4-4,4.06,4.06,0,0,1-4,4Zm0-7.83a4,4,0,0,0-.76.08,3.77,3.77,0,1,0,.76-.08Zm5.53-3.43H13.42A.47.47,0,0,1,13,8.75V4.63a.2.2,0,0,1,.12-.18.18.18,0,0,1,.2,0L17.47,8.6a.36.36,0,0,1,.07.37.33.33,0,0,1-.36.25Zm-4-4.44v4a.22.22,0,0,0,.22.22h3.76a.09.09,0,0,0,.08-.06V8.85Z"/>
    <path id="Path_43" data-name="Path 43" class="cls-1" d="M9.34,15.47h2.39a.4.4,0,0,0,0-.8H9.34a.4.4,0,1,0,0,.8Z"/>
    <path id="Path_44" data-name="Path 44" class="cls-1" d="M11.73,15.59H9.34a.525.525,0,0,1,0-1.05h2.39a.525.525,0,0,1,0,1.05Zm-2.39-.8a.28.28,0,0,0-.27.28.27.27,0,0,0,.27.27h2.39a.27.27,0,0,0,.27-.27.28.28,0,0,0-.27-.28Z"/>
    <path id="Path_45" data-name="Path 45" class="cls-1" d="M14.12,17.06H9.34a.4.4,0,1,0,0,.8h4.78a.4.4,0,1,0,0-.8Z"/>
    <path id="Path_46" data-name="Path 46" class="cls-1" d="M14.12,18H9.34a.525.525,0,0,1,0-1.05h4.78a.525.525,0,0,1,0,1.05Zm-4.78-.8a.28.28,0,0,0-.27.28.27.27,0,0,0,.27.27h4.78a.27.27,0,0,0,.27-.27.28.28,0,0,0-.27-.28Z"/>
  </g>
</svg>
