<?xml version="1.0" standalone="no"?>
<!DOCTYPE svg PUBLIC "-//W3C//DTD SVG 1.1//EN" "http://www.w3.org/Graphics/SVG/1.1/DTD/svg11.dtd">
<svg xmlns="http://www.w3.org/2000/svg">
<metadata>Copyright (C) 2020 by original authors @ fontello.com</metadata>
<defs>
<font id="fontello" horiz-adv-x="1000" >
<font-face font-family="fontello" font-weight="400" font-stretch="normal" units-per-em="1000" ascent="850" descent="-150" />
<missing-glyph horiz-adv-x="1000" />
<glyph glyph-name="1" unicode="&#xe800;" d="M998 613c-6 22-25 37-48 37-5 0-9-1-13-2l0 0c-13-3-24-12-30-23l0 0-9-14c-2 1-5 2-8 2-6 0-11-4-14-8l0-1-41-72-15 9c-2 1-5 2-8 2-2 0-3 0-5-1l1 0c-5-1-8-4-11-7l0-1c-1-2-2-5-2-8 0-6 3-11 8-14l1 0 14-9-143-245-35-94-17-31c-4-7-6-16-6-25 0-11 3-21 9-29l0 0-37-46-11 27c-5 12-15 20-28 21l0 0c-1 0-2 0-3 0-12 0-23-7-28-16l0 0-7-10-5 66c-2 17-16 31-33 31-15 0-27-10-32-23l0 0-41-123c0-2-1-3-1-5 0-8 5-14 11-16l1 0h5c0 0 0 0 0 0 7 0 13 5 16 11l0 0 40 123 6-67c2-18 16-31 33-31 13 0 23 7 29 16l0 0 6 11 10-27c5-11 15-19 27-21l0 0c2 0 4 0 6 0 10 0 19 5 25 12l0 0 39 49c4-1 9-1 13-1h0c0 0 0 0 0 0 19 0 35 10 44 24l0 0 17 27 63 78 143 248 15-8c3-2 6-6 7-10l1 0c0-2 0-3 0-5 0-3-1-6-2-8l0 0-66-116c-2-3-3-6-3-9 0-2 0-3 0-4l0 0c1-4 4-8 8-10l0 0c2-2 5-3 8-3 2 0 3 1 5 1l0 0c4 1 8 4 10 8l0 0 66 115c5 7 7 16 7 25 0 19-10 35-25 43l0 1-15 8 42 72c2 2 2 5 2 8 0 6-3 12-8 15l0 0 9 14c4 7 6 16 6 25 0 5 0 10-2 14l0 0z m-63-5c3 3 6 6 11 8l0 0c1 0 2 0 4 0 3 0 6-1 8-2l0 0c4-2 7-6 8-10l0 0c0-2 1-3 1-5 0-3-1-6-3-8l0 0-8-15-29 17z m-227-465l-8 5-25 14 25 64 53-31z m-50-47c-4 3-7 8-7 14 0 3 1 6 2 8l0 0 9 14 29-16-9-15c-2-4-6-6-10-8l0 0c-2 0-3 0-4 0-4 0-7 1-10 3l0 0z m112 128l-57 33 134 231 58-33z m150 260l-58 32 33 58 58-34z m-657-381l-59-59-35 36c-3 3-8 5-12 5s-9-2-12-5l0 0c-3-3-5-7-5-12 0 0 0 0 0 0v0c0 0 0 0 0 0 0-5 2-9 5-12l35-35c7-6 15-10 24-10h0c9 0 18 4 24 10l59 59c2 3 4 7 4 11s-2 8-4 11l0 0c-3 3-7 5-12 5s-8-2-11-5l0 0z m-196-45c0-78 63-141 141-141s142 63 142 141v0c0 10-7 17-17 17s-16-7-16-17v0c0-59-49-107-108-107s-108 48-108 107c0 60 49 108 108 108v0c0 0 0 0 0 0 25 0 47-8 65-22l0 1c3-2 6-4 10-4 9 0 17 8 17 17 0 6-3 10-7 13l0 1c-24 18-53 28-86 28-78 0-141-63-141-141 0 0 0 0 0-1v0z m533 657c9 0 17 8 17 17s-8 17-17 17h-433c-9 0-17-8-17-17v0-65c0-10 8-17 17-17v0h433c9 0 17 7 17 17s-8 16-17 16h-417v32z m-383-98c-1 0-2 0-2 0-10 0-17-8-17-17s7-17 17-17c0 0 1 0 2 1l0 0h333c0-1 1-1 2-1 9 0 17 8 17 17s-8 17-17 17c-1 0-2 0-2 0l0 0z m433-117h-367c-9 0-16-7-16-17s7-16 16-16h367c9 0 17 7 17 16s-8 17-17 17v0z m-165-117c0 10-8 17-17 17v0h-333c-10 0-18-8-18-17s8-18 18-18v0h332c9 0 16 8 16 17v0z m165 17h-117c-9 0-16-7-16-17s7-16 16-16h117c9 0 17 7 17 16s-8 17-17 17v0z m-350-115c1 0 1-1 2-1 9 0 17 8 17 17s-8 17-17 17c-1 0-1 0-2 0l0 0h-165c-1 0-2 0-2 0-10 0-17-8-17-17s7-17 17-17c0 0 1 1 2 1l0 0z m67 0h118c0 0 1-1 2-1 9 0 17 8 17 17s-8 17-17 17c-1 0-2 0-2 0l0 0h-118c-1 0-2 0-2 0-10 0-17-8-17-17s7-17 17-17c0 0 1 1 2 1l0 0z m383-202c-9 0-17-7-17-16v0-167c0-9-7-17-16-17h-667c-9 0-17 8-17 17v0 900c0 9 8 17 17 17v0h667c9 0 16-8 16-17v0-313c0-9 8-17 17-17s17 8 17 17v0 313c0 28-23 50-50 50v0h-667c-28 0-50-22-50-50v0-900c0-28 22-50 50-50h667c27 0 50 22 50 50v0 167c0 9-8 16-17 16v0z" horiz-adv-x="1000" />

<glyph glyph-name="3" unicode="&#xe801;" d="M1362 409c47 33 77 87 77 147 0 99-81 180-180 180s-180-81-180-180c0-60 30-114 76-147l1 0c-41-14-77-36-107-63l1 1c-41 35-91 62-145 78l-2 1c66 41 110 113 110 195 0 126-102 228-228 228s-228-102-228-228c0-82 44-154 109-194l1-1c-56-17-104-44-145-79l1 1c-30 26-64 47-102 60l-2 1c46 33 76 87 76 147 0 99-80 180-179 180s-180-81-180-180c0-60 30-114 76-146l0-1c-124-44-212-160-212-297v-21h382c-2-16-3-34-3-52l0-1v-21c0-92 74-166 166-166v0h484c92 0 166 74 166 166v0 21c0 19-2 37-4 55l0-2h383v20c-1 137-88 253-209 297l-3 1z m-233 147c0 72 58 130 130 130s130-58 130-130c0-71-57-129-127-130l0 0h-5c-71 1-128 59-128 130 0 0 0 0 0 0v0z m-521 66c0 1 0 1 0 1 0 99 79 178 177 178s178-79 178-178c0-94-74-172-167-177l0 0h-21c-93 5-167 82-167 176v0z m-424-66c0 72 58 130 130 130s130-58 130-130c0-71-57-129-128-130l0 0h-4c-71 1-128 59-128 130 0 0 0 0 0 0v0z m206-418h-340c15 134 127 237 263 238l0 0h4c65 0 124-24 170-64l0 1c-45-48-78-107-95-172l-1-3z m753-122c0 0 0 0 0 0 0-64-51-115-114-116l0 0h-485c0 0 0 0 0 0-64 0-116 52-116 116v21c1 194 154 351 347 357l0 0h21c193-6 347-163 347-357v0z m37 124c-18 67-51 126-95 173l0 0c46 40 106 64 172 64h4c136-1 247-104 262-236l0-1z" horiz-adv-x="1563" />

<glyph glyph-name="5" unicode="&#xe802;" d="M236 134c26 18 44 45 47 78l0 0c1 2 1 4 1 6 0 32-14 61-36 80l-1 0c-22-20-38-49-41-82l0 0c0-3 0-7 0-11 0-29 12-54 32-71l0-1z m235-161c11 17 18 38 18 61 0 10-1 21-4 31l0-1c-11 31-36 55-66 65l-1 1c-7-16-12-35-12-54 0-14 3-27 7-40l-1 1c9-30 31-53 60-63l1-1z m-347 406c19 18 31 43 31 71 0 4 0 8-1 12l0 0c-3 33-19 62-42 82l-1 0c-22-19-36-48-36-80 0-2 1-4 1-7l0 1c4-33 22-61 47-78l1-1z m11-216c-1 32-19 59-44 75l0 0c-19 13-43 20-68 20-8 0-16-1-24-2l1 0c2-34 19-64 44-82l1 0c16-11 36-17 58-17 11 0 23 2 33 5l-1 0z m157-165c-17 25-44 42-76 42l0 0c-2 0-5 0-7 0-31 0-60-11-82-29l1 0c17-27 46-46 80-49l0 0c1 0 2 0 3 0 32 0 61 14 81 36l0 0z m93-69c-33-3-62-18-83-41l0 0c20-24 50-39 83-39 1 0 2 0 3 0l0 0c33 3 61 20 79 45l0 1c-17 21-44 34-73 34-3 0-6 0-10 0l1 0z m-246 423l-25 3c0-2-26-280 385-434l9 24c-392 146-371 396-369 407z m671 427l-3 11-10 1c-21 2-41 32-46 43l-4 8h-330l-5-8c-5-10-25-40-45-43l-10-1-2-11c-123-466 222-582 225-583v0 0h2c4 0 347 117 226 583z m-428-17c23 10 41 27 53 48l0 1h293c12-22 31-39 54-48l1-1c97-392-151-513-201-533-48 19-298 141-200 533z m193-577v5c-44 17-343 150-228 591l3 14 16 2c15 2 33 28 39 39l7 14h339l7-13c6-11 24-36 39-38l16-3 4-15c115-443-190-577-228-591v0z m-213 598l-1-6c-118-453 207-569 220-574 27 10 335 131 219 574v0l-1 6h-6c-27 3-50 46-50 47l-1 5h-321l-2-5s-23-43-51-46z m220-562h-3c-51 21-302 144-204 542v4l4 1c21 10 38 25 49 45l1 1 2 3h301l2-3c11-20 28-36 49-46l0 0h4v-5c99-396-152-522-204-541z m-192 536c-92-376 137-497 192-520 55 23 285 144 192 520-21 10-39 26-50 46l-1 0h-283c-13-20-30-36-51-46l-1 0z m537-624c20 18 32 43 32 72 0 4 0 8-1 11l1 0c-4 33-19 62-42 82l0 0c-23-19-37-49-37-81 0-2 0-3 0-5l0 0c3-33 21-61 46-78l1-1z m-225-65c-3-9-4-19-4-30 0-22 6-43 18-61l0 1c29 10 51 34 60 63l0 0c4 12 6 25 6 39 0 20-5 38-13 55l1-1c-32-11-56-35-67-65l0-1z m338 311c25 18 43 46 47 77l0 1c1 2 1 4 1 7 0 32-14 60-36 80l0 0c-24-21-39-50-43-82l0-1c0-3-1-8-1-12 0-28 12-53 32-70l0 0z m9-189c-25-16-42-43-44-75l0 0c9-3 20-5 32-5 22 0 42 6 59 17l-1 0c27 19 44 48 45 82l0 0c-6 1-14 2-21 2-26 0-50-7-70-21l0 1z m-252-255c20-22 49-36 81-36 1 0 3 0 4 0l0 0c33 4 62 22 80 49l0 0c-22 19-51 30-82 30-2 0-4 0-6 0l0 0c-32-1-60-18-77-42l0-1z m253 420l-26-2c0-11 23-261-368-408l10-24c409 154 384 432 384 434z" horiz-adv-x="1156" />

<glyph glyph-name="6" unicode="&#xe803;" d="M1081 616v0l-235 72c-13 4-29 6-46 6-2 0-5 0-8 0l1 0h-286l-467 156c-3 1-6 2-9 2-17 0-31-14-31-31 0-1 0-1 0-2l0 0v-626c0-1 0-1 0-1 0-26 15-50 38-61l0 0 62-31c6-3 14-5 22-5 20 0 37 12 45 30l0 0 66 162 67-27c7-3 15-4 23-4 27 0 49 16 58 39l0 1 9 22 47-46s0 0 0 0l-42-42c-16-16-26-38-26-61 0-1 0-2 0-2l0 0c2-43 36-77 79-79l0 0c1-43 36-77 78-79l1 0c1-42 35-77 78-78l0 0c1-45 37-81 82-81 1 0 2 0 3 0l0 0c0 0 1 0 1 0 23 0 44 9 59 24l0 0 44 44 16-16c15-16 37-26 61-26 0 0 1 0 1 0l0 0c43 2 77 36 79 79l0 0c43 2 77 36 79 79l0 0s0 0 0 0c42 3 76 37 77 79l0 1c44 1 79 37 79 81v0c0 2 0 4 0 6s0 4 0 6l0-1 36 36s0 0 0 0l4-8c10-19 29-32 52-32 10 0 19 2 27 6l0 0 112 56s0 0 0 0l72-136c9-18 27-29 48-29 12 0 22 3 31 9l0 0 46 31c11 7 18 19 18 33v603c-1 21-18 39-40 39-5 0-10-1-15-3l1 0z m-1003-445v0c-14 8-24 22-24 39 0 0 0 0 0 0v0 523c1 22 19 40 41 40 4 0 9-1 12-2l0 0 183-61c21-7 35-26 35-48 0-7-1-14-4-20l0 1-184-450c-7-16-22-26-40-26-7 0-13 2-19 5l0-1z m219 149l-11 4c-13 5-22 18-22 32 0 5 1 10 3 14l-1-1 113 277c6 13 18 21 33 21 4 0 8 0 11-1l0 0 9-3c14-5 24-18 24-34 0-4-1-9-2-13l0 1-111-278c-6-13-19-22-33-22-5 0-9 1-13 2l0 0z m126-150c0 8 4 16 9 21l46 47c6 5 13 8 21 8h0c16 0 30-13 30-30v0c0-8-4-15-9-20l0 0-45-46c-5-5-12-8-19-9l-1 0c0 0-1 0-2 0-16 0-30 13-30 29 0 0 0 0 0 0v0z m79-79c0 8 4 16 9 21l0 0 46 46c6 7 14 11 23 11 16 0 29-14 29-30 0-9-4-17-10-22l0-1-46-46c-5-5-13-8-21-8-16 0-30 13-30 29v0z m79-79c0 0 0 1 0 1 0 8 4 15 9 20l0 0 46 46c6 6 13 9 21 9 16 0 30-13 30-29v0c0-9-3-16-9-21l0 0-46-47c-3-4-8-7-14-8l0 0c-2-1-4-1-6-1-16 0-29 13-29 29v0z m176-55l-45-46c-5-4-12-8-19-9l0 0c-1 0-2 0-3 0-16 0-29 13-30 29v0c1 9 4 16 9 21l0 0 45 47c5 5 12 8 19 9l0 0c1 0 2 0 3 0 16 0 29-13 29-29 0 0 0 0 0-1v0c0 0 0 0 0 0 0-8-3-15-8-20l0 0z m350 209c0 0 0 0 0 0-8 0-16 4-21 9l-220 220-36-35s0 0 0 0l220-220c5-5 8-12 9-19l0 0c0-1 0-2 0-3 0-16-13-29-30-29 0 0 0 0 0 0h0c-8 0-15 3-20 8l0 0-223 219-36-35 221-221c5-5 8-13 8-21v0c0-16-13-29-29-29-8 0-16 3-21 8l-221 221-35-36s0 0 0 0l220-220c5-6 8-13 8-21 0 0 0 0 0 0v0c0 0 0-1 0-1 0-16-13-29-29-29-8 0-16 4-21 9l0 0-30 29c0 4 0 7 0 11 0 0 0 0 0 0 0 44-35 80-78 82l-1 0s0 0 0 0c-2 43-36 77-78 79l0 0c-2 42-36 77-79 78l0 0s0 0 0 0c-3 44-38 78-82 78-1 0-2 0-3 0l0 0h-11l-75 75 107 268h155s0 0 0 0l-97-97c-15-15-24-35-24-58 0-45 37-82 82-82h0c23 0 43 9 58 24l72 71c7 6 16 10 27 10s20-4 27-10l0 0 62-57c19-17 41-33 65-45l2-1 179-179c6-5 9-13 9-21 0-17-13-30-29-30-1 0-1 0-2 0l0 0z m56 91l-108 107s0 0 0 0c9 0 19 0 28 0v52c0 0 0 0-1 0-63 0-121 25-164 65l0 0-61 57c-16 14-38 23-62 23-25 0-48-10-65-26l0 0-70-70c-5-4-12-7-19-7-17 0-30 13-30 30 0 7 3 14 7 19l0 0 99 100c21 21 49 33 81 33 12 0 23-1 34-4l-1 0 233-72 135-271-38-36s0-1 0 0z m92 48l-107 214c-4 8-6 16-6 25 0 24 15 44 36 53l0 0 10 3c6 3 14 4 21 4 22 0 41-12 51-30l0 0 110-211c4-8 7-17 7-27 0-22-13-41-31-50l-1 0-15-8c-8-3-16-6-26-6-22 0-42 14-51 33l0 0z m309-139v0c-4-2-9-3-13-3-9 0-17 5-21 12l0 0-215 410c-4 7-6 16-6 26 0 23 14 42 35 50l0 0 185 74c4 1 9 3 14 3 22 0 39-18 40-39l0 0v-492c0 0 0-1 0-1 0-17-8-31-21-39l0-1z" horiz-adv-x="1625" />

<glyph glyph-name="7" unicode="&#xe804;" d="M754-44c-1 1-3 1-4 1-8 0-15-6-17-13l0 0-18-72c-1-1-1-3-1-4 0-8 6-15 14-18l0 0h4c0 0 0 0 0 0 9 0 16 6 18 14l0 0 17 71c1 2 1 3 1 5 0 8-6 15-14 17l0 0z m-218 358c2 0 5 1 7 2l0 0 196 81c7 2 13 9 13 17 0 10-8 18-18 18-4 0-6-1-9-2l0 0-189-78-500 206v6c0 1 0 2 0 2 0 10-8 18-18 18s-18-8-18-18c0 0 0-1 0-2l0 0v-17c0 0 0 0 0-1 0-7 4-13 11-16l0 0 518-214c2-1 4-2 7-2 0 0 0 0 0 0h0z m212-183c-3 7-9 11-16 11-3 0-6-1-9-2l0 0c-49-24-108-39-169-40l0 0v161c-2 9-9 16-18 16s-17-7-18-16l0 0v-161c-222 8-293 142-304 165v121c-1 9-8 16-18 16s-16-7-17-16l0 0v-125c0-3 0-5 1-7l0 0c3-8 79-190 356-190 3 0 6 0 10 0 70 0 137 16 197 45l-3-1c6 3 10 9 10 16 0 2-1 5-2 7l0 0z m56-192c-10 0-18-8-18-18v-53c1-9 8-16 18-16s16 7 18 16l0 0v53c0 0 0 0 0 0 0 10-8 18-18 18 0 0 0 0 0 0h0z m250 643c0 0 0 0 0 0-10 0-18-8-18-17 0-1 0-1 0-1v0-5l-214-89v33l239 100c6 2 10 9 11 16v0c0 7-5 14-11 17l0 0-518 213c-2 1-5 1-7 1s-5 0-7-1l0 0-518-215c-6-2-11-9-11-16 0 0 0 0 0 0v0c0-1 0-1 0-1 0-8 5-14 11-17l0 0 518-214c2-1 4-1 7-1h0c2 0 5 0 7 1l0 0 187 77c6 3 11 9 11 17 0 10-8 18-18 18-2 0-5-1-7-2l0 0-180-75-471 197 471 195 471-195-205-85-196 73c1 4 1 8 1 12l0 0c0 30-31 54-71 54s-72-24-72-54 32-54 72-54c0 0 0 0 0 0 17 0 33 5 46 13l0 0 204-75v-440c-21-8-36-27-36-51 0-29 24-54 54-54s53 25 53 54c0 24-14 43-35 51l0 0v100c31 24 55 55 70 91l0 2c0 1 0 2 0 3s0 2 0 3l0 0v125c0 9-8 17-18 17s-17-8-17-17v0-122c-10-21-22-39-36-54l0 0v222l239 98c6 3 11 9 11 17v17c0 10-8 18-18 18v0z m-518 18c-22 0-36 11-36 18s14 18 36 18 36-11 36-18-14-18-36-18z m268-607c-10 0-18 8-18 18 0 0 0 0 0 0v0c1 9 8 16 18 16s16-7 18-16l0 0c0-10-9-18-18-18v0z m71-49c-3 7-9 12-17 12-10 0-18-8-18-18 0-1 0-2 0-3l0 0 18-72c2-7 9-13 17-13l0 0h4c8 2 14 9 14 17 0 2 0 3-1 5l0 0z" horiz-adv-x="1063" />

<glyph glyph-name="8" unicode="&#xe805;" d="M915 504c22 21 36 51 36 84 0 63-52 114-115 114s-114-51-114-114c0-41 20-76 51-96l1-1c-22-14-36-39-36-67v-115h-66v82c0 59-44 107-101 114l-1 0c22 21 36 50 36 83v0c0 63-51 114-115 114s-115-51-115-114v0c0 0 0-1 0-1 0-32 14-61 36-82l0 0c-58-7-102-55-102-114v-82h-64v115c0 28-14 53-36 67l0 0c32 21 53 57 53 97 0 63-52 115-115 115s-115-52-115-115c0-33 14-63 36-83l0-1c-39-6-69-40-69-80v-246c0-40 28-73 65-81l1 0v-247h32v246h148v-230c0 0 0 0 0 0 0-9 7-16 16-16 0 0 0 0 0 0h99c0 0 0 0 0 0 9 0 16 7 16 16 0 0 0 0 0 0v0 263h98v-246h-65v-33h164v33h-66v246h99v-263c0 0 0 0 0 0 0-9 7-16 16-16 0 0 0 0 0 0h99c9 0 16 7 16 16v0 230h147v-246h33v247c38 8 66 41 66 81v246c0 40-30 74-69 80l0 0z m-161 84c0 0 0 0 0 0 0 45 37 82 82 82s82-37 82-82c0-45-36-82-82-82v0c0 0 0 0 0 0-45 0-82 36-82 82v0z m-344 0c0 0 0 0 0 0 0 45 37 82 82 82s82-37 82-82c0-45-37-82-82-82v0c0 0 0 0 0 0-45 0-82 36-82 82v0z m108-115l-26-68-25 68z m-174-82c0 45 37 82 82 82v0h5l45-121c3-6 9-10 16-10s13 4 15 10l0 0 45 121h6c45 0 81-37 81-82v0-82h-65c-9 0-16-7-16-16 0 0 0 0 0 0v0-66h-132v66c0 0 0 0 0 0 0 9-7 16-16 16 0 0 0 0 0 0h-66z m-278 197c0 0 0 0 0 0 0 45 36 82 82 82s82-37 82-82c0-45-37-82-82-82v0c0 0 0 0 0 0-46 0-82 36-82 82v0z m278-705h-65v229c0 9-7 17-16 17v0h-181c-27 0-49 22-49 49 0 0 0 0 0 0v0 246c0 27 22 49 49 49v0h82c0 0 0 0 0 0 27 0 49-22 49-49v-131c0-9 8-17 17-17v0h164v-49h-230v148h-33v-164c0 0 0 0 0 0 0-9 7-17 16-17 1 0 1 0 1 0h147c27 0 49-22 49-49v0z m265 278h-234c-2 13-7 24-14 34l0-1h262c-7-9-12-20-14-32l0-1z m342 17c0-27-22-49-49-49h-180c-1 0-1 0-1 0-9 0-16-8-16-17 0 0 0 0 0 0v0-229h-66v262c1 27 23 49 50 49h147c9 0 17 8 17 17v0 164h-33v-148h-230v49h164c9 0 17 8 17 17v0 131c0 27 22 49 49 49 0 0 0 0 0 0h82c0 0 0 0 0 0 27 0 49-22 49-49v0z m-476 131h33v-33h-33v33z m-65 541h-230c-9 0-16-7-16-16v0-82c0-9 7-17 16-17v0h66v-33c0-6 4-11 9-14l0 0c2-1 5-2 7-2 0 0 0 0 0 0h0c1 0 1 0 1 0 3 0 7 1 9 3l0 0 61 46h77c9 0 16 8 16 17v0 82c0 9-7 16-16 16v0z m-16-82h-66c-4 0-7-1-10-3l0 0-39-30v17c0 0 0 0 0 0 0 9-7 16-16 16h-66v49h197z m180 33h33v-33h-33v33z m65 0h33v-33h-33v33z m66 0h33v-33h-33v33z" horiz-adv-x="969" />

<glyph glyph-name="9" unicode="&#xe806;" d="M600 715c9 0 17 8 17 17s-8 17-17 17h-433c-9 0-17-8-17-17v0-65c0-10 8-17 17-17v0h433c9 0 17 7 17 17s-8 16-17 16h-417v32z m-383-98c-1 0-2 0-2 0-10 0-17-8-17-17s7-17 17-17c0 0 1 0 2 1l0 0h333c0-1 1-1 2-1 9 0 17 8 17 17s-8 17-17 17c-1 0-2 0-2 0l0 0z m283-117h-365c-10 0-17-7-17-17s7-16 17-16h365c9 0 17 7 17 16s-8 17-17 17v0z m-15-117c0 10-8 17-17 17v0h-333c-10 0-18-8-18-17s8-18 18-18v0h332c9 0 16 8 16 17v0z m-185-98c1 0 1-1 2-1 9 0 17 8 17 17s-8 17-17 17c-1 0-1 0-2 0l0 0h-165c-1 0-2 0-2 0-10 0-17-8-17-17s7-17 17-17c0 0 1 1 2 1l0 0z m67 0h118c0 0 1-1 2-1 9 0 17 8 17 17s-8 17-17 17c-1 0-2 0-2 0l0 0h-118c-1 0-2 0-2 0-10 0-17-8-17-17s7-17 17-17c0 0 1 1 2 1l0 0z m268-108h-500c-10 0-17-8-17-17s7-16 17-16h500c9 0 16 7 16 16s-7 17-16 17v0z m-16-117c0 10-7 17-16 17v0h-468c-10 0-18-8-18-17s8-18 18-18v0h466c10 0 17 8 17 17v0z m-319-99c1 0 1 0 2 0 9 0 17 8 17 17s-8 17-17 17c-1 0-1 0-2 0l0 0h-165c-1 0-2 0-2 0-10 0-17-8-17-17s7-17 17-17c0 0 1 0 2 0l0 0z m67 0h252c1 0 2 0 2 0 10 0 17 8 17 17s-7 17-17 17c0 0-1 0-2 0l0 0h-252c-1 0-2 0-2 0-10 0-17-8-17-17s7-17 17-17c0 0 1 0 2 0l0 0z m383 122c-9 0-17-7-17-16v0-167c0-9-7-17-16-17h-667c-9 0-17 8-17 17v0 900c0 9 8 17 17 17v0h667c9 0 16-8 16-17v0-313c0-9 8-17 17-17s17 8 17 17v0 313c0 28-23 50-50 50v0h-667c-28 0-50-22-50-50v0-900c0-28 22-50 50-50h667c27 0 50 22 50 50v0 167c0 9-8 16-17 16v0z m-3 368c-86 0-155-69-155-155 0 0 0 0 0 0v0c2-9 10-17 20-17s18 8 19 17l0 0c0 0 0 0 0 0 0 65 52 117 116 117s117-52 117-117c0-61-47-111-107-116l0 0 5 6c3 3 5 8 5 13 0 10-9 19-19 19-1 0-1 0-2 0l0 0c-5 0-10-3-13-7l0 0-31-34c-4-5-7-10-7-17s3-12 7-17l30-33c4-4 9-7 15-7h0c5 0 9 2 13 5l0 0c3 4 6 8 6 13l0 0c0 1 0 1 0 2 0 5-2 9-5 12l0 0-5 7c83 2 150 70 150 154 0 86-69 155-155 155-1 0-3 0-5 0l1 0z" horiz-adv-x="906" />

<glyph glyph-name="10" unicode="&#xe807;" d="M996-119l-105 137c-3 4-8 7-13 7l0 0c-52 5-100 17-144 36l3-1c-27 13-58 21-91 22l0 0c-51-1-96-25-126-63l0 0c16 37 58 95 124 95 28-2 54-8 77-20l-1 1c25-11 54-19 85-25l3-1c1 0 2 0 4 0 9 0 17 6 19 15l0 0c0 1 0 3 0 4 0 10-6 17-15 19l0 0c-31 7-58 16-84 27l3-1c-26 12-57 20-90 21l0 0c-62-3-115-37-144-87l0 0c-30 50-82 84-144 87l0 0c-33-1-64-9-92-22l2 1c-41-18-88-30-137-34l-2 0c-10-1-18-10-18-20 0-11 9-19 20-19 0 0 1 0 2 0l0 0c54 4 105 17 151 37l-3-1c22 11 48 18 76 19l0 0c66 0 108-58 125-95v0c-30 38-75 62-126 63l0 0c-34-1-65-9-93-23l1 1c-41-18-88-30-138-34l-2 0c-6-1-10-4-14-8l0 0-105-138c-3-4-4-8-4-12 0-3 1-6 2-9l0 0c3-6 10-11 18-11 0 0 0 0 0 0h961c0 0 0 0 0 0 11 0 19 9 19 20 0 4-1 8-4 12l0 0z m-350 161c28-1 55-8 78-19l-1 0c42-17 90-30 140-34l2-1 76-98c-3 0-6 0-9 0-81 0-159 16-230 46l4-1c-17 8-38 13-59 14l-1 0c-32-1-59-21-71-50l0 0-4-9h-51v57c16 38 59 95 126 95z m-511-54c52 6 100 19 145 38l-3-1c23 10 49 17 77 17l1 0c66 0 109-58 126-96v-58h-50l-5 9c-12 29-39 49-71 51l0 0c-22-2-43-7-62-17l1 1c-66-28-143-44-224-44-3 0-7 0-10 0l0 0z m173-90c13 7 29 11 46 13l0 0c14-1 26-9 32-21l0 0h-98l20 8z m305-8c6 12 19 20 33 20l0 0c17-1 33-6 48-13l-1 0 21-8z m256 170h2c11 0 19 9 19 19 0 10-7 18-17 20l0 0c0 0-1 0-2 0-10 0-19-9-19-20 0-10 8-18 17-19l0 0z m-435 309c-5 0-10-2-13-6l0 0c-3-4-5-8-5-13 0-1 0-2 1-3l0 0c3-47 34-86 76-101l1 0-3-22-10-99c0-1 0-2 0-2 0-10 7-19 17-20l0 0h2c10 0 18 8 19 18l0 0 11 99 2 22c91 0 147 58 175 181 3 14 6 30 11 47 0 2 0 3 0 5 0 4-1 8-4 11l0 0c-1 2-2 4-4 5l0 0 8 4c4 3 7 7 9 12l0 0c34 136 84 316 85 318 0 2 0 4 0 5 0 5-1 9-4 13l0 0c-4 4-9 7-16 7 0 0 0 0 0 0l0 0c-7 0-164-12-293-222-2-2-3-5-5-7-1-3-3-7-3-11 0-1 1-2 1-3l0 0 10-60h-34c-8 0-14-5-17-11l-1-1c-18-39-31-86-35-135l0-1c0-1 0-1 0-2 0-5 2-10 5-13l0 0z m257 156l-52-30c-6-4-10-10-10-17 0-2 0-3 1-4l0 0c1-9 9-15 17-15l0 0 27-2-6-26c-27-124-80-149-130-151 31 181 106 340 214 471l-2-1c-17-63-40-150-59-225z m-210-17h44c5 0 11 3 14 7l0 0c3 3 5 8 5 12 0 2 0 3 0 4l0 0-12 77c42 73 101 132 173 173l2 1c8 4 19 9 29 13l2 1c-120-139-205-313-238-505l0-6c-20 8-34 25-39 45l-1 0h21c8 1 15 5 17 12l0 1c1 2 2 4 2 7 0 6-2 10-6 14l0 0-40 41c5 38 14 73 28 106l-1-3z" horiz-adv-x="1000" />

<glyph glyph-name="11" unicode="&#xe808;" d="M1002 431c0 0 0 0 0 0 0 3 0 5-2 7l0 0c-1 3-3 5-5 6l0 0-170 101v264c0 0 0 0 0 0 0 23-18 41-40 41-1 0-1 0-1 0l0 0h-557c-22 0-40-18-40-41v-263l-178-101c-3-1-4-3-6-5l0-1c-1-2-2-4-2-7 0 0 0 0 0 0v0-565c0-9 8-17 17-17h967c10 0 17 8 17 17v0 564z m-51 0l-126-73v148z m-724 385h557c4 0 6-3 6-7v0-471l-291-167-276 161v477c0 0 0 0 0 1 0 2 2 5 4 6l0 0z m-40-464l-135 78 135 76z m-152-468v516l455-264c3-1 5-2 8-2 1 0 1 0 1 0l0 0c0 0 0 0 0 0 3 0 6 1 9 2l0 0 460 264v-516z m774 73h-152c-10 0-18-8-18-18s8-17 18-17v0h152c10 0 18 8 18 17s-8 18-18 18v0z m84 5c0 0 0 0 0 0-12 0-21-9-21-20s9-21 21-21c11 0 20 9 20 21v0c0 0 0 0 0 0 0 11-9 20-20 20h0z m-581 683h387c0 0 0 0 0 0 10 0 17 7 17 17 0 0 0 0 0 0v0c0 9-7 17-17 17v0h-387c-9 0-17-8-17-17v0c0-10 8-17 17-17v0z m0-104h387c10 0 17 8 17 17s-7 18-17 18h-387c-9 0-17-8-17-18s8-17 17-17v0z m0-99h387c10 0 17 8 17 17s-7 17-17 17h-387c-9 0-17-7-17-17s8-17 17-17v0z m0-104h195c10 0 17 8 17 18v0c0 9-7 17-17 17v0h-195c-9 0-17-8-17-17v0c0-10 8-18 17-18v0z" horiz-adv-x="1000" />

<glyph glyph-name="12" unicode="&#xe809;" d="M242 547h-191c-28 0-51 22-51 50v202c0 28 23 51 51 51v0h191c0 0 1 0 1 0 28 0 51-23 51-51 0 0 0 0 0 0v0-202c0 0 0 0 0 0 0-28-23-50-51-50 0 0-1 0-2 0l1 0z m-191 269c-10 0-17-7-17-17v0-202c0-9 7-16 17-16v0h191c8 0 15 8 15 16v202c0 9-7 16-15 17l0 0z m1082-134h-561c-9 0-17 7-17 17v0c0 9 8 16 17 16h561c9 0 17-7 17-16v0c0-10-8-17-17-17v0z m-930-33c-1 0-1 0-1 0-4 0-8 1-11 4l0 0-68 68c-3 3-4 7-4 11 0 9 7 17 17 17 4 0 8-2 11-4l0 0 55-56 147 156c3 3 8 5 12 5s9-2 12-5v0c3-3 5-7 5-12s-2-9-5-12l0 0-158-167c-3-3-7-5-12-5 0 0 0 0 0 0h0z m996-453h-691c-28 0-51 22-51 50v0 202c0 28 23 51 51 51v0h691c28 0 51-23 51-51v0-202c0-28-23-50-51-50v0z m-691 269c-9 0-17-8-17-17v-202c0-9 8-16 17-17h691c10 0 17 8 17 17v0 202c0 10-7 17-17 17v0z m-266-269h-191c-28 0-51 22-51 50v0 202c0 28 23 51 51 51v0h191c0 0 1 0 1 0 28 0 51-23 51-51 0 0 0 0 0 0v0-202c0 0 0 0 0 0 0-28-23-50-51-50 0 0-1 0-2 0l1 0z m-191 269c-10 0-17-7-17-17v0-202c0-9 7-17 17-17v0h191c8 1 15 8 15 17v202c0 9-7 17-16 17h-1z m1082-135h-561c-9 0-17 8-17 17v0c0 9 8 17 17 17v0h561c9 0 17-8 17-17v0c-1-9-8-17-17-17h0z m-930-31c0 0 0 0 0 0-5 0-9 2-12 5l0 0-68 66c-3 3-4 7-4 11 0 9 7 17 17 17 4 0 8-2 11-5l0 0 55-55 147 155c3 4 8 5 12 5s9-1 12-5l0 0c3-3 5-7 5-12s-2-8-5-11v0l-158-167c-3-4-7-6-12-6h0z m996-449h-280c-9 0-17 8-17 17s8 17 17 17v0h281c10 0 17 7 17 17v0 202c0 9-7 17-17 17v0h-692c-10-1-17-8-17-17v-202c0-10 7-17 17-17h270c10 0 17-8 17-17s-7-17-17-17v0h-270c-28 0-51 23-51 51v0 202c1 27 23 49 51 49 0 0 0 0 0 0h691c0 0 0 0 0 0 28 0 50-22 51-49l0 0v-202c0-28-23-51-51-51v0z m-957 0h-191c-28 0-51 23-51 51v0 202c1 27 23 49 51 49 0 0 0 0 0 0h191c0 0 1 0 1 0 28 0 50-22 51-49l0 0v-202c0 0 0 0 0 0 0-28-23-51-51-51 0 0-1 0-2 0l1 0z m-191 270c-10 0-17-8-17-17v0-202c0-10 7-17 17-17v0h191c8 1 15 8 15 17v202c0 9-7 16-16 17h-1z m1082-135h-561c-9 0-17 7-17 17v0c0 9 8 16 17 16v0h561c9 0 17-7 17-16v0c-1-10-8-17-17-17h0z m66 562h-691c-28 0-51 22-51 50v202c0 28 23 51 51 51v0h281c10 0 17-8 17-17v0c0-9-7-17-17-17h-281c-9 0-17-7-17-17v-202c0-9 8-16 17-16h691c10 0 17 7 17 16v0 202c0 10-7 17-17 17v0h-270c-10 0-17 8-17 17v0c0 9 7 17 17 17h270c28 0 51-23 51-51v0-202c0-28-23-50-51-50v0z" horiz-adv-x="1250" />

<glyph glyph-name="13" unicode="&#xe80a;" d="M548 713h-175c-11 0-20-8-20-19s9-20 20-20h175c11 0 19 9 19 20s-8 19-19 19v0z m78 0c-11 0-20-8-20-19s9-20 20-20c11 0 19 9 19 20v0c0 11-8 19-19 19v0z m307-532l61 53c4 3 7 9 7 15 0 4-1 7-3 10l0 0-84 136c-3 5-8 9-14 10l0 0c-1 0-2 0-2 0-6 0-11-2-14-6l-129-128h-2c-23 7-50 14-79 19l-3 0c33 41 55 93 61 149l0 1h41v-39c0-11 9-20 20-20s20 9 20 20v216c0 10-9 19-20 19v0h-29c-12 119-126 214-264 214s-251-95-263-215h-29c0 0-1 0-1 0-10 0-19-8-19-18l0 0v-216c0-11 8-20 19-20s20 9 20 20v0 39h40c7-57 29-109 62-150l0 0c-60-10-114-27-165-51l4 1c-51-22-94-51-131-87l0 0c-20-19-34-45-37-74l0-1v-209c0-10 9-19 20-19v0h961c10 0 19 9 19 19v0 209c0 39-32 75-68 103z m-777-293h-116v190c5 26 19 47 38 61l1 0v-72c0-11 9-19 19-19 3 0 5 0 7 1l0 0 52 18z m0 219l-39-12v73c0 2 12 8 13 9 9 5 17 10 26 14z m737 247l62-101-35-29-63 96z m-64-64l48-73c-23 14-50 27-78 38l-4 1z m54-122v-73l-39 14v82c13-7 26-15 39-23z m-196 80c13-3 26-6 39-10v-88l-39 14z m86 231h-39v39h39z m-273 332c117 0 212-77 224-175h-447c11 99 107 175 223 175z m-233-332h-40v39h39z m-40 79v38h546v-38z m78-83v43h390v-44c0-126-87-229-195-229s-195 103-195 229z m-32-237c14 3 27 7 39 9v-82l-39-15z m0-129l66 23c7 3 12 10 12 18 0 0 0 1 0 1v0 103h13c37-31 84-50 136-50s99 19 136 51l0-1h12v-104c0 0 0 0 0 0 0-8 6-16 13-18l0 0 65-24v-34h-453z m98-221h-98v70h98z m353 0h-97v70h97z m81 0h-41v87c0 11-9 20-20 20v0h-136c-11 0-20-9-20-20v0-87h-178v87c0 11-9 20-19 20v0h-137c-11 0-19-9-19-20v0-87h-40v320c0 2 40 14 40 16v-170c0-11 8-20 19-20v0h492c11 0 20 9 20 20v0 171s32-12 39-15z m157 0h-116v179l52-18c2-1 4-1 6-1 4 0 8 1 12 3l-1 0c6 4 9 9 9 16 0 0 0 0 0 0v0 72c20-14 34-35 38-60l0-1z" horiz-adv-x="1000" />

<glyph glyph-name="14" unicode="&#xe80b;" d="M214 421c59 1 107 49 107 108 0 59-48 107-107 107s-107-48-107-107v0c0-60 48-108 107-108 0 0 0 0 0 0v0z m0 179c40 0 72-32 72-71s-32-72-72-72c-39 0-71 32-71 72v0c0 39 32 71 71 71v0z m572-179c59 1 107 49 107 108 0 59-48 107-107 107s-107-48-107-107v0c0-60 48-108 107-108 0 0 0 0 0 0v0z m0 179c39 0 71-32 71-71s-32-72-71-72c-40 0-72 32-72 72v0c0 39 32 71 72 71v0z m178-214v-234c0 0 0 0 0 0 0-29-24-53-53-53h0v198c0 49-40 89-90 89 0 0 0 0 0 0h-89c-10 0-18-8-18-18v0-107h-144c-9 0-17-8-17-18v0-54h-106v54c0 10-8 18-18 18h-144v107c0 10-8 18-18 18v0h-88c0 0 0 0 0 0-50 0-90-40-90-89v-197c-29 0-53 24-53 54 0 0 0 0 0 0v0 232h-36v-234c1-35 23-66 53-80l1 0v-222h35v214h179v-196c0-10 8-18 18-18h89v304h250v-304h89c10 0 18 8 18 18v0 196h179v-214h36v222c31 14 53 46 53 82v232z m-607-197h-143v108h-35v-125c0-10 8-18 18-18h125c9 0 17-8 17-18v0-250h-35v196c0 10-8 18-18 18v0h-161v197c0 29 24 53 54 53 0 0 0 0 0 0h71v-107c0-10 8-18 18-18v0h143v-36z m357-89c-10 0-18-8-18-18v-196h-35v250c0 10 8 18 18 18v0h125c10 0 18 8 18 18v124h-36v-107h-197v36h143c10 0 18 8 18 18v107h71c0 0 0 0 0 0 30 0 54-24 54-54v-196z m-375 571v-54c0-8 5-15 12-17l1 0c0-1 1-1 2-1s2 0 3 1l0 0c6 0 11 2 15 7l0 0 48 64h134c29 0 53 24 53 54v0 71c0 30-24 54-53 54v0h-215c0 0 0 0 0 0-30 0-54-24-54-54 0 0 0 0 0 0v0-71c0-30 24-54 54-54v0z m-17 125c0 10 8 18 17 18h215c9 0 17-8 17-18v0-71c0-10-8-18-17-18v0h-143c0 0 0 0 0 0-6 0-11-3-14-7l-1 0-21-29v18c0 0 0 0 0 1 0 9-8 17-18 17 0 0 0 0 0 0h-18c-9 0-17 8-17 18v0z m35-18h179v-35h-179v35z m125-374h107v-36h-107v36z m-18 71c-29 0-53-24-53-54v0-71c0-30 24-53 53-53 0 0 0 0 0 0h143c30 0 54 23 54 53v0 12l33 50c1 2 3 6 3 9 0 10-8 18-18 18 0 0 0 0 0 0h-21c-8 21-28 36-51 36h0z m161-54c0-9 8-17 18-17h2l-17-26c-2-3-3-7-3-10v-18c0 0 0 0 0 0 0-10-8-18-17-18-1 0-1 0-1 0h-143c0 0 0 0 0 0-10 0-17 8-17 18 0 0 0 0 0 0v0 71c0 10 8 18 17 18h143c10 0 18-8 18-18v0z m-214 143h36v-35h-36v35z m71 0h36v-35h-36v35z m72 0h35v-35h-35v35z" horiz-adv-x="1000" />

<glyph glyph-name="15" unicode="&#xe80c;" d="M83 750h217v-33h-217v33z m0-67h217v-33h-217v33z m0-66h150v-34h-150v34z m0-67h150v-33h-150v33z m-83-667h1000v-33h-1000v33z m965 824l-68 134c-2 5-8 9-14 9-3 0-6-1-8-2l0 0-131-66c-5-3-9-9-9-15 0-9 8-16 17-16 2 0 5 0 7 1l0 0 95 47-25-75c-117-326-410-561-760-592l-4 0 3-33c368 33 671 277 789 608l2 7 27 77 49-98c3-6 9-10 16-10 9 0 16 7 16 16 0 3-1 6-2 9l0 0z m-765-657h-117c-9 0-16-7-16-17v0-100c0-9 7-16 16-16v0h117c9 0 17 7 17 16v0 100c0 10-8 17-17 17v0z m-17-100h-83v67h83z m202 150h-118c-9 0-17-7-17-17v0-150c0-9 8-16 17-16h118c9 0 16 7 16 16v0 150c0 10-7 17-16 17v0z m-18-150h-84v117h84z m200 233h-117c-9 0-17-7-17-16v0-234c0-9 8-16 17-16v0h117c9 0 16 7 16 16v0 234c0 9-7 16-16 16v0z m-17-233h-83v200h83z m200 350h-117c-9 0-16-7-16-17v0-350c0-9 7-16 16-16v0h117c9 0 17 7 17 16v0 350c0 10-8 17-17 17v0z m-17-350h-83v317h83z m200 583h-116c-9 0-17-7-17-16v0-584c0-9 8-16 17-16v0h116c10 0 17 7 17 16v0 584c0 9-7 16-17 16v0z m-16-583h-84v550h84z" horiz-adv-x="1000" />

<glyph glyph-name="17" unicode="&#xe80d;" d="M1064 467c-4 5-10 8-17 8h-47v254c0 0 0 0 0 0 0 17-14 32-31 32h-548l-45 74c-5 9-15 15-27 15 0 0 0 0 0 0l0 0h-246c-18 0-32-14-32-32v0-343h-48c0 0 0 0-1 0-6 0-12-3-16-8l0 0c-4-4-6-9-6-14 0-2 0-3 0-4l0 0 88-580c2-11 11-19 22-19h850c11 0 20 8 22 19l0 0 88 580c0 1 0 2 0 3 0 6-2 11-6 15l0 0z m-957 347h240l44-75c6-9 16-15 27-15 1 0 1 0 1 0l0 0h546v-250h-19v71h-17v55h-18v53h-749v-53h-19v-55h-18v-71h-18z m54-305h749v-35h-749z m18 54h714v-18h-714z m696 37h-679v18h679z m73-714h-826l-83 555h993z m-466 89h375v250h-375z m35 214h305v-178h-305z m54-71h71c9 1 16 8 16 18s-7 16-16 18l0 0h-71c-9-2-16-9-16-18s7-17 16-18l0 0z m143 0h18c8 1 15 8 15 18s-7 16-15 18l0 0h-18c-1 0-2 0-2 0-10 0-18-8-18-18s8-18 18-18c0 0 1 0 2 0l0 0z m53-36h-196c-10 0-18-8-18-18v0c0 0 0 0 0 0 0-10 8-18 18-18h196c10 0 18 8 18 18 0 0 0 0 0 0v0c0 10-8 18-18 18v0z" horiz-adv-x="1063" />

<glyph glyph-name="actionmenu" unicode="&#xe80e;" d="M624 732c0-65-52-118-117-118s-118 53-118 118c0 65 53 118 118 118s117-53 117-118z m0-382c0-65-52-118-117-118s-118 53-118 118c0 65 53 118 118 118s117-53 117-118z m0-382c0-65-52-118-117-118s-118 53-118 118c0 65 53 118 118 118s117-53 117-118z" horiz-adv-x="1000" />

<glyph glyph-name="add" unicode="&#xe810;" d="M900-150h-120c-8 0-14 6-15 14v0c0 8 7 15 15 15v0h120c14 0 28 4 39 12l0-1c2 2 5 4 9 4 8 0 14-7 14-15 0-5-3-10-7-12l0 0c-16-11-35-17-55-17 0 0 0 0 0 0h0z m-290 0h-170c-8 0-14 6-14 14v0c0 8 6 15 14 15v0h170c8 0 14-7 14-15v0c0-8-6-14-14-14v0z m-340 0h-169c0 0 0 0 0 0-8 0-15 6-15 14l0 0c0 1 0 1 0 1 0 8 6 14 13 14 0 0 0 0 0 0h173c8 0 14-7 14-15v0c0 0 0 0 0 0 0-8-6-14-14-14-1 0-1 0-2 0l0 0z m-256 122c-8 0-14 6-14 14v0 170c0 8 6 14 14 14v0c8 0 15-6 15-14v0-170c0-8-7-14-15-14v0z m972 49c-8 0-15 6-15 14v0 170c0 8 7 14 15 14v0c8 0 14-6 14-14v0-170c0-8-6-14-14-14v0z m-972 290c-8 0-14 7-14 15v0 170c0 8 6 14 14 14s15-6 15-14v0-170c0-8-7-15-15-15v0z m972 51c-8 0-15 6-15 14v0 169c0 8 7 14 15 14v0c8 0 14-6 14-14v0-170c-1-7-7-13-14-13 0 0 0 0 0 0h0z m-972 289c-8 0-14 6-14 14v0 85c0 0 0 0 0 0 0 35 18 66 45 83l1 1c2 1 4 1 6 1 8 0 15-6 15-14 0-4-2-9-5-11l0 0c-20-13-33-35-33-60 0 0 0 0 0 0v0-85c0-8-7-14-15-14v0z m972 49c-8 0-15 7-15 15v0 35c0 39-32 71-71 71h0c-8 1-14 7-14 15v0c0 8 6 14 14 14h0c55 0 100-45 100-100v-35c0-8-7-15-14-15l0 0z m-256 121h-170c0 0 0 0 0 0-8 0-14 7-14 15 0 0 0 0 0 0v0c0 8 6 14 14 14v0h170c8 0 14-6 14-14v0c0 0 0 0 0 0 0-8-6-14-14-15h0z m-340 0h-169c-8 0-15 7-15 15s7 14 15 14v0h169c8 0 15-6 15-14v0c0-8-7-15-15-15v0z m144-492v-123h-46v123h-126v43h126v124h46v-124h125v-43z" horiz-adv-x="1000" />

<glyph glyph-name="add2" unicode="&#xe811;" d="M948 402h-396v396c0 0 0 0 0 0 0 28-23 51-51 52l0 0c-30-1-53-24-53-53 0 0 0 0 0 0v0-395h-395c-3 0-5 1-7 1-29 0-53-24-53-53s24-52 53-52c2 0 4 0 7 0l0 0h395v-396c4-26 26-46 52-46s48 20 52 45l0 1v396h396c29 0 52 23 52 52v0c-1 28-24 52-52 52l0 0z" horiz-adv-x="1000" />

<glyph glyph-name="addcomp" unicode="&#xe812;" d="M350 517h33v-34h-33v34z m0-67h33v-33h-33v33z m0-67h33v-33h-33v33z m0-66h33v-34h-33v34z m67 200h33v-34h-33v34z m0-67h33v-33h-33v33z m0-67h33v-33h-33v33z m0-66h33v-34h-33v34z m66 200h34v-34h-34v34z m0-67h34v-33h-34v33z m0-67h34v-33h-34v33z m0-66h34v-34h-34v34z m67 200h33v-34h-33v34z m-133 66h33v-33h-33v33z m66 0h34v-33h-34v33z m67 0h33v-33h-33v33z m0-133h33v-33h-33v33z m0-67h33v-33h-33v33z m0-66h33v-34h-33v34z m67 200h33v-34h-33v34z m0-67h33v-33h-33v33z m0-67h33v-33h-33v33z m0-66h33v-34h-33v34z m366 283h-250v233c0 9-7 17-17 17v0h-433c-9 0-17-8-17-17v0 0-233h-249c-9 0-17-8-17-17v0 0-600c0-9 8-17 17-17v0h35c-1-5-2-11-2-17l0 0v-84c0-9 8-17 18-17v0h865c9 0 17 8 17 17v0 0 85c0 0 0 0 0 1 0 5-1 11-2 17l0-1h35c9 0 17 8 17 17v0 0 599c0 10-8 18-17 18v0z m-266-466c0-19-15-34-34-34s-33 15-33 34c0 18 15 33 33 33v0c0 0 0 0 0 0 19 0 34-15 34-33 0 0 0 0 0 0v0z m-400 33c18 0 33-15 33-34s-15-33-33-33c-19 0-34 15-34 33v0c0 19 15 34 34 34v0z m-100-284h-134v67c0 37 30 67 67 67s67-30 67-67v0z m-100 200c0 19 15 34 33 34s33-15 33-34c0-18-15-33-33-33v0c-18 0-33 15-33 33v0z m102-61c-6 6-13 11-20 15l-1 1c12 12 19 28 19 46 0 36-30 66-67 66s-67-30-67-66c0-18 7-34 19-46l0 0c-16-9-29-22-38-37l0-1h-31v567h234v-391c-11-11-17-26-17-43 0-18 7-34 18-46l0 0c-24-14-42-37-49-65l0 0z m164-138h-133v116c0 37 30 67 67 67s66-30 66-67v0z m200 0h-166v116c2 45 38 80 83 80s81-35 83-80l0 0z m-133 283c0 27 22 50 50 50s50-23 50-50c0-28-22-50-50-50v0c0 0 0 0 0 0-28 0-50 22-50 50 0 0 0 0 0 0v0z m152-110c-12 20-28 36-48 46l0 1c18 15 30 38 30 63 0 47-38 84-84 84s-83-37-83-84c0-20 7-39 19-53l0 0c4-4 7-7 10-10l0 0c-20-11-36-27-47-46l0 0c-9 12-20 22-33 30l-1 0c12 12 19 28 19 46 0 37-30 66-66 66-6 0-13-1-18-2l0 0v619h400v-619c-5 1-11 2-17 2h0c0 0 0 0 0 0-37 0-67-30-67-66 0-18 7-34 19-46l0 0c-14-8-25-18-34-30l0 0z m148-107v-67h-133v117c0 37 29 67 66 67s67-30 67-67v0z m167-67h-134v67c0 37 30 67 67 67s67-30 67-67v0z m-100 200c0 19 15 34 33 34s33-15 33-34c0-18-15-33-33-33v0c-18 0-33 15-33 33v0z m150-83h-31c-9 16-22 29-37 38l-1 0c12 12 19 28 19 46 0 37-30 67-67 67s-67-30-67-67c0-18 7-34 19-46l0 0c-8-4-15-9-21-15l0 0c-7 28-25 52-49 65l0 0c11 12 17 28 17 45 0 17-6 32-16 44l0-1v391h234z m-184 467h34v-267h-34v267z m100 0h34v-267h-34v267z m-800 0h34v-267h-34v267z m100 0h34v-267h-34v267z m417 316h-200c-9 0-17-7-17-17v0 0-133c0-10 7-18 17-18v0h200c10 0 17 8 17 18v0 0 134c0 9-7 17-17 17v0z m-17-133h-166v100h166z" horiz-adv-x="1000" />

<glyph glyph-name="app01" unicode="&#xe813;" d="M904 496l-122 123h-315v22c47 10 82 51 82 100 0 57-46 102-102 102s-102-45-102-102c0-49 34-90 81-100l0 0v-22h-158c-1 0-1 0-2 0-35 0-64-29-64-64v-59h-70l-123-122 123-123h295v-191h-103v-82h-61v-122h368v123h-62v82h-102v191h183c34 2 61 29 62 63l0 0v59h70z m-518 245c0 34 27 61 61 61 33 0 61-27 61-61s-28-61-61-61v0c0 0 0 0 0 0-34 0-61 27-61 61 0 0 0 0 0 0v0z m204-803v-41h-286v41z m-61 41h-164v41h164z m142 336c0 0 0-1 0-1 0-12-10-23-23-23 0 0 0 0 0 0h-499l-82 83 82 81h501c0 0 0 0 0 0 13 0 23-10 23-23 0 0 0 0 0 0v0z m41 99v17c0 1 0 1 0 1 0 35-27 63-62 64l0 0h-408v59c0 0 0 0 0 0 0 13 11 23 23 23 1 0 2 0 3 0l0 0h497l82-82-82-82z m-75-564h-381v136h61v82h104v177h-292l-129 129 129 129h66v52c0 0 0 0 0 0 0 39 32 71 71 71 1 0 1 0 2 0l0 0h153v10c-48 12-82 55-82 105 0 60 49 109 109 109s108-49 108-109c0-50-34-93-80-105l-1 0v-10h311l129-130-129-129h-67v-52c0-38-31-69-69-70l0 0h-176v-177h102v-82h61z m-367 13h354v110h-61v81h-104v204h191c31 1 55 26 56 57v65h73l115 114-115 115h-320v35h5c44 9 77 47 77 93 0 53-43 96-96 96s-95-43-95-96c0-46 32-84 75-93l1 0h5v-35h-163c0 0 0 0 0 0-32 0-58-25-58-57v-63h-75l-115-114 115-115h298v-203h-102v-82h-61z m326 28h-299v54h299z m-286 13h273v28h-273z m225 69h-177v54h177z m-163 13h150v27h-150z m278 299h-504l-88 89 88 88h504c17 0 30-13 30-30v0-117c0-17-14-30-30-30 0 0 0 0 0 0v0z m-497 14h497c9 0 17 7 17 16 0 0 0 0 0 0v0 117c0 0 0 0 0 0 0 9-8 17-17 17h-497l-76-77z m616 109h-63v24c0 0 0 0 0 0 0 31-25 56-56 57l0 0h-414v66c0 0 0 0 0 0 0 16 13 30 30 30 0 0 1 0 2 0l0 0h500l88-89z m-48 13h43l76 76-76 77h-496c0 0 0 0 0 0-9 0-17-7-17-17v-54h399c39 0 71-32 71-71v0z m-273 252c-37 0-68 31-68 68s31 68 68 68c38 0 68-30 68-68v0c0 0 0 0 0 0 0-37-30-68-68-68 0 0-1 0-1 0l0 0z m0 123c-30 0-54-24-54-55s24-54 54-54c30 0 55 24 55 54v0c0 31-25 55-55 55-1 0-1 0-1 0l0 0z" horiz-adv-x="906" />

<glyph glyph-name="app02" unicode="&#xe814;" d="M146-112c-4 5-10 7-16 7h0c-13 0-23-10-23-23 0-6 2-11 6-15l0 0c4-4 10-7 16-7 0 0 1 0 1 0h0c0 0 0 0 0 0 6 0 12 3 16 7l0 0c4 4 8 10 8 16l0 0c-1 6-4 12-8 15l0 0z m722 166c-4 4-10 7-17 7 0 0 0 0 0 0h0c0 0 0 0-1 0-12 0-22-10-22-23 0 0 0 0 0 0l0 0c0 0 0 0 0-1 0-6 3-12 7-16l0 0c4-4 10-7 16-7l0 0c7 0 12 3 17 7l0 0c4 4 6 10 6 16 0 1 0 1 0 1v0c0 6-2 12-6 16l0 0z m247 611c18 18 29 42 29 69 0 0 0 0 0 1v0 17c0 54-43 98-97 98s-98-44-98-98v-17c0 0 0 0 0-1 0-26 11-51 28-68l0 0c-38-22-65-59-73-103l0-1h-106c-39 0-70-31-70-69v0c0 0 0-1 0-1 0-8 2-16 4-23l0 0h-273c2 7 4 15 4 23 0 0 0 0 0 1l0 0c-1 38-32 69-70 69 0 0 0 0 0 0h-106c-8 44-35 82-73 103l0 0c17 18 28 42 28 69 0 0 0 1 0 1v0 17c0 54-44 98-98 98s-97-44-97-98v0-17c0-28 11-52 30-70l0 0c-46-25-76-72-77-126l0 0v-261c0-73 59-133 132-133v0h184v-222c0 0 0 0 0 0 0-10 2-19 6-27l0 0h-91c-1 1-2 1-3 1-13 0-24-11-24-24s11-23 24-23c1 0 2 0 3 0l0 0h830c1 0 2 0 3 0 13 0 24 10 24 23s-11 24-24 24c-1 0-2 0-3-1l0 0h-192c3 8 5 17 5 26 0 0 0 1 0 1l0 0v27c0 13-10 23-23 23s-23-10-23-23v0-27c0-15-12-27-27-27s-27 12-27 27v0 294c0 36 29 66 66 66h304v-5c0-48-39-86-86-86v0h-207c0 0 0 0 0 0-13 0-23-10-23-23 0 0 0 0 0-1v1-39c0-13 10-23 23-23s23 10 23 23v14h184c1 0 1 0 2 0 73 0 132 59 132 132 0 1 0 1 0 2l0 0v261c0 54-31 101-76 126l-1 0z m-120 87c0 29 23 52 52 52s51-23 51-52v0-17c0-29-23-51-51-51s-52 22-52 51v0z m-902 0c0 29 23 52 51 52s51-23 51-52v0-17c0-29-22-51-51-51s-51 22-51 51v0z m-46-213c0 53 43 97 97 97s98-44 98-97v0c0-1 0-1 0-1 0-13 10-23 23-23 0 0 0 0 0 0h128c12-1 21-11 21-23s-9-22-21-23l0 0h-135c-38 0-71 21-88 52l-1 1c-4 7-11 12-20 12-4 0-8-1-11-3l0 0c-8-4-12-12-12-20 0-4 1-8 3-11l-1 0c23-43 66-72 115-77l1 0c0-1 0-3 0-4s0-3 0-4l0 0v-86h-197z m287-210h-45v86c0 1 0 2 0 4s0 2-1 3l1 0h46c-8-13-13-29-13-46s5-33 13-47l0 0z m82-406c-1-13-13-24-27-24s-25 11-26 24l0 0v245c0 1 0 1 0 1 0 13-11 23-23 23 0 0 0 0 0 0h-208c-47 0-85 38-85 86v0 5h304c36-1 65-30 65-66 0 0 0 0 0 0v0z m110-27h-68c2 7 4 15 4 23 0 2 0 3 0 4l0 0v294c0 0 0 0 0 1 0 24-8 47-22 65l0 0h85z m93 0h-47v385h47z m115 0h-69v385h84c-13-18-21-40-21-65 0 0 0 0 0-1v0-292c0 0 0-1 0-1 0-9 2-18 5-26l0 0z m43 433h-363c-1 0-3 0-4 0-26 0-47 21-47 47s21 46 47 46c1 0 3 0 4 0l0 0h363c24-2 42-22 42-46s-18-45-42-47l0 0z m125 86v-86h-45c8 14 13 30 13 47 0 0 0 0 0 0v0c0 0 0 0 0 1 0 16-5 32-13 45l0 0h47c-1-1-1-2-1-4s0-2 1-3l0 0z m242-86h-195v86c0 1 0 3 0 4s0 3 0 4l0 0c50 5 92 34 115 76l0 1c2 3 3 7 3 11 0 12-10 23-23 23-9 0-17-5-20-12l0 0c-18-32-51-53-89-53h-137c-1-1-2-1-3-1-13 0-24 11-24 24s11 23 24 23c1 0 2 0 3 0l0 0h128c0 0 0 0 0 0 13 0 23 10 23 23 0 0 0 0 0 1v0c0 53 44 97 98 97s97-44 97-97v0z" horiz-adv-x="1188" />

<glyph glyph-name="app03" unicode="&#xe815;" d="M801 791h-117v30c-2 14-15 26-30 26s-28-12-30-26l0 0v-30h-298v30c0 0 0 1 0 1 0 15-12 28-27 28h0c0 0-1 0-2 0-15 0-28-13-28-28 0-1 0-1 0-1l0 0v-30h-121c0 0-1 0-1 0-81 0-147-66-147-147 0-1 0-1 0-2l0 0v-644c0 0 0-1 0-1 0-81 66-147 147-147 0 0 1 0 1 0l0 0h653c1 0 2 0 2 0 81 0 147 66 147 147 0 0 0 1 0 1l0 0v644c0 1 0 1 0 2 0 81-66 147-147 147 0 0-1 0-2 0l0 0z m-742-149c2 49 41 88 89 89l0 0h119v-29c0-1 0-1 0-2 0-15 13-28 28-28 1 0 1 0 2 0l0 0c0 0 1 0 2 0 15 0 27 12 27 28 0 0 0 1 0 2l0 0v29h299v-29c0-1 0-2 0-4 0-16 14-30 30-30s30 14 30 30c0 2 0 3 0 4l0 0v29h119c48-1 87-40 89-88l0-1v-198h-834z m832-644c-2-48-41-87-89-88l-1 0h-653c-48 1-87 40-89 89l0 0v385h832z m-662 276h127c26 0 47-21 47-47v-113c0-26-21-47-47-47h-127c-26 0-47 21-47 47v113c0 26 21 47 47 47z" horiz-adv-x="938" />

<glyph glyph-name="app04" unicode="&#xe816;" d="M686 716h-92v38c0 13-14 19-27 19h-69c-15 42-54 72-100 72-2 0-4 0-5 0l0 0c-1 0-3 0-4 0-47 0-86-29-101-70l0-1h-69c-12 0-25-6-25-19v-38h-90c-53-1-96-43-99-95l0-1v-677c3-50 44-90 95-90 1 0 2 0 4 1l0 0h582c1-1 2-1 4-1 50 0 92 40 95 90l0 0v677c-3 53-46 94-99 95h0z m-445 11h64c11 2 20 11 22 22l0 0c7 30 33 52 65 53l0 0c32-1 58-23 65-53l0 0c2-12 12-21 24-22l0 0h67v-94h-305z m495-783c-3-24-23-42-48-42-1 0-1 0-2 0l0 0h-582c-2 0-3 0-4 0-25 0-45 18-48 42l0 0v677c3 27 25 47 52 47l0 0h90v-60c1-13 12-22 25-22 0 0 0 0 1 0l-1 0h348c1 0 1 0 1 0 14 0 24 9 26 22l0 0v60h92c26-1 47-21 50-46l0-1v-677z m-431 373c-5 4-10 6-17 6s-12-2-16-6l0 0-77-72-32 34c-4 4-10 6-17 6s-12-2-16-6l0 0c-4-5-7-11-7-18s3-12 7-17l0 0 48-49c4-5 9-7 15-7 1 0 1 0 2 0l0 0c0 0 0 0 0 0 6 0 12 2 16 7l0 0 94 90c4 4 6 10 6 16s-2 12-6 16l0 0z m337-49h-272c-13 0-23-11-23-24s10-24 23-24h272c13 0 23 11 23 24s-10 24-23 24v0z m-337 239c-4 4-10 7-17 7s-12-3-16-7l0 0-77-72-32 34c-4 4-10 7-17 7s-12-3-16-7l0 0c-4-4-7-10-7-17s3-13 7-17l0 0 48-50c4-4 9-7 16-7 0 0 0 0 1 0l0 0c6 0 12 3 16 7l0 0 94 89c4 4 6 9 6 15s-2 12-6 16l0 0v2z m337-51h-272c-13 0-23-10-23-23s10-24 23-24h272c13 0 23 10 23 24s-10 23-23 23v0z m0-377h-272c-13 0-23-11-23-24v0c0-13 10-23 23-23v0h272c13 0 23 10 23 23v0c0 13-10 24-23 24v0z" horiz-adv-x="781" />

<glyph glyph-name="app05" unicode="&#xe817;" d="M497 646c0 0 0 0 0 0-68 0-123-56-123-124 0-34 14-65 36-87l0 0c22-22 53-36 87-36h0c69 0 124 55 124 123s-55 124-124 124v0z m68-190c-17-17-41-28-68-28-51 0-94 42-94 94 0 0 0 0 0 1v0c1 25 11 49 28 66l0 0c17 17 41 28 67 28 52 0 94-42 94-94 0-26-10-50-27-67l0 0z m-68-68c-73 1-133 60-133 134 0 37 15 71 39 95l0 0c24 25 58 40 95 40h0c71-4 127-62 127-134s-56-130-126-134l-1 0z m0 247v0c-62 0-112-51-113-113v0c0 0 0-1 0-1 0-31 13-59 34-80l0 0c20-20 48-33 80-33 0 0 0 0 0 0h0c60 4 106 53 106 113s-46 109-105 113l-1 0z m0-217c-56 1-102 48-102 104 0 58 47 105 105 105s104-47 104-105c0-29-12-56-32-75l0 0c-19-19-45-31-74-31 0 0 0 0-1 0h0z m0 188c-45 0-83-38-83-83s38-84 83-84v0 0c1 0 1 0 2 0 22 0 43 10 57 25l0 0c15 15 25 35 25 59 0 45-37 83-83 83 0 0 0 0-1 0h0z m70-244h-139c-91 0-165-74-165-165v0-94c0 0 0 0 0 0 0-8 7-15 15-15h439c8 0 15 7 15 15v94c0 91-74 165-165 165v0z m135-242h-409v81c0 74 61 134 135 134v0h139c75 0 135-60 135-134v0z m15-42h-439c-14 0-25 11-25 25v0 94c0 97 78 176 175 176v0h139c97 0 175-79 175-176 0 0 0 0 0 0v0-94c0-14-11-25-25-25v0z m-289 273c-85 0-154-69-154-154v-94c0-2 2-4 4-4l0 0h439c2 0 4 2 4 4v0 94c0 0 0 0 0 0 0 85-69 154-154 154h0z m284-244h-430v90c1 81 66 145 146 146h139c80-1 145-66 145-146v0z m-408 21h387v69c0 69-55 124-124 125h-139c-68-1-124-56-124-125l0 0z m579 692c-11 12-28 19-45 20l-1 0h-679c-36-1-66-30-66-66v-85h-25c-31-1-56-26-56-57v-3c0-31 25-56 56-56 0 0 0 0 0 0h25v-167h-25c0 0 0 0 0 0-31 0-56-25-56-56v-3c0-31 25-56 56-57h25v-166h-25c-31 0-56-25-56-56v-4c0-31 25-56 56-56 0 0 0 0 0 0h25v-81c0 0 0-1 0-2 0-35 29-64 65-64 0 0 0 0 0 0h680c37 0 66 29 66 65v847c0 1 0 1 0 1 0 18-8 34-20 46l0 0z m-816-215c0 0-1 0-1 0-14 0-26 12-26 26 0 0 0 0 0 0v0 3c0 0 0 0 0 0 0 14 12 25 25 26h81c14 0 25-12 25-25v-4c0-14-11-25-25-25v0z m0-282c0 0-1 0-1 0-14 0-25 11-26 24l0 0v4c1 14 12 25 25 26l0 0h81c14 0 25-12 25-26 0 0 0 0 0 0v0-3c0 0 0 0 0 0 0-14-11-25-25-26h0z m0-283c0 0-1 0-1 0-14 0-25 11-26 25l0 0v3c0 0 0 0 0 0 0 14 12 25 25 26h81c14-1 25-12 25-26 0 0 0 0 0 0v0-3c0 0 0 0 0 0 0-14-11-26-25-26h0z m807-113c0-19-16-35-36-36h-680c0 0 0 0 0 0-10 0-19 4-26 11l0 0c-6 6-10 14-11 24l0 0v81h24c0 0 0 0 1 0 31 0 56 25 56 56 0 0 0 1 0 1l0 0v4c0 31-25 56-56 56 0 0 0 0 0 0h-25v167h24c31 1 56 26 57 57v3c-1 31-26 55-57 55 0 0 0 0 0 0h-24v169h24c0 0 0 0 0 0 31 0 57 25 57 56v3c-2 30-26 54-57 55h-24v85c0 20 17 36 36 36 0 0 0 0 0 0h681c19-1 35-17 35-36v0z m-37-77h-680c0 0 0 0 0 0-21 0-40 9-53 23l0 0c-14 13-23 32-23 53v72h-14c-37 0-67 30-67 67v0 3c0 37 30 67 67 67v0h14v146h-14c-37 0-67 30-67 67v0 3c0 37 30 67 67 67h14v146h-14c-37 0-67 30-67 67v3c0 37 30 67 67 67v0h14v73c0 0 0 0 0 0 0 42 34 76 76 76 0 0 0 0 1 0h679c0 0 0 0 0 0 21 0 40-8 54-22l0 0c14-14 22-33 23-54l0 0v-847c0 0 0 0 0 0 0-43-34-77-77-77h0z m-770 264c-25 0-45-21-46-46v-3c1-25 21-46 46-46h36v-93c0-30 24-54 54-55h680c31 1 55 25 55 55v847c0 1 0 1 0 1 0 16-6 30-16 40l0 0c-10 10-24 16-39 16-1 0-1 0-1 0l0 0h-678c0 0 0 0 0 0-31 0-55-25-55-55 0 0 0-1 0-1l0 0v-94h-36c-25 0-45-21-46-46v-3c1-26 21-46 46-46h35v-188h-35c-25 0-45-21-46-46v-3c1-25 21-46 46-46h35v-188z m90-234c0 0 0 0 0 0-13 0-24 5-32 13l0 0c-8 8-14 20-14 33v93h35c0 0 0 0 0 0 25 0 45 20 45 45v4c0 25-20 45-45 45 0 0 0 0 0 0h-35v189h34c25 0 46 21 46 46v3c0 26-21 46-46 46h-34v188h34c25 0 46 21 46 46v3c0 25-21 46-46 46h-34v94c0 25 21 46 46 46h680c26 0 47-21 47-46v-847c0-26-21-47-47-47h-680z m-24 118v-72c0 0 0 0 0 0 0-7 3-13 7-18l0 0c5-4 11-7 18-7h679c14 0 25 11 25 25v0 847c0 14-11 25-25 25h-680c-13 0-24-11-25-25v-72h13c0 0 0 0 0 0 37 0 67-30 67-67v-3c0-37-30-67-67-67h-13v-146h13c37 0 67-30 67-67v-3c0-37-30-67-67-67h-13v-146h14c0 0 0 0 0 0 37 0 66-30 67-67v-4c-1-37-30-66-67-66 0 0 0 0 0 0v0z m-66 31v0c0 0 0 0 0 0-20 0-36 16-36 36v3c0 0 0 1 0 1 0 9 3 18 9 25l0 0c7 6 16 10 26 11l0 0h80c0 0 0 0 0 0 20 0 36-17 36-36 0-1 0-1 0-1v0-3c0-20-16-36-36-36v0z m0 54c-8 0-15-7-15-15v-3c0-8 7-15 15-15 0 0 0 0 0 0h78c1 0 1 0 2 0 8 0 14 7 14 15 0 0 0 0 0 0v0 3c0 0 0 1 0 1 0 8-6 15-15 15 0 0 0 0-1 0l0 0z m0 229v0c0 0 0 0 0 0-20 0-36 16-36 35v4c0 20 16 36 36 36v0h80c20 0 36-16 36-36v0-3c0 0 0 0 0-1 0-19-16-35-36-35 0 0 0 0 0 0v0z m0 54c0 0 0 0 0 0-8 0-15-6-15-15v-4c0-8 7-14 15-14 0 0 0 0 0 0h78c1 0 1 0 1 0 9 0 15 7 15 15 0 0 0 0 0 0v0 3c0 0 0 1 0 1 0 8-6 14-14 14-1 0-1 0-2 0l0 0z m0 229v0c0 0 0 0 0 0-20 0-36 16-36 36v3c0 0 0 0 0 0 0 20 16 36 36 37h80c20 0 36-17 36-36v0-4c0-20-16-36-36-36v0z m0 53c-8 0-15-6-15-15v-3c0-8 7-15 15-15 0 0 0 0 0 0h78c1 0 1 0 2 0 8 0 14 7 14 15 0 0 0 0 0 1l0 0v4c0 7-6 13-14 13-1 0-1 0-2 0l0 0z" horiz-adv-x="906" />

<glyph glyph-name="app06" unicode="&#xe818;" d="M598 481h-409c-9 0-16-8-16-16v0c0 0 0 0 0 0 0-10 7-17 16-17h409c9 0 16 7 16 17v0c0 0 0 0 0 0 0 8-7 16-16 16 0 0 0 0 0 0h0z m-409 98h164c9 0 16 7 16 16v0c0 0 0 1 0 1 0 9-7 17-16 17h-164c-9 0-16-8-16-17 0 0 0 0 0 0v0c0-9 7-16 16-16v0z m409-229h-409c-9 0-16-7-16-16 0 0 0 0 0 0v0c0-9 7-17 16-17v0h409c0 0 0 0 0 0 9 0 17 8 17 17 0 0 0 0 0 0v0c0 9-8 16-17 16v0z m0-133h-409c-8-1-14-8-14-16s6-15 14-16l0 0h409c1-1 2-1 2-1 10 0 17 8 17 17s-7 17-17 17c0 0-1 0-2-1l0 0z m0-129h-409c-9 0-16-7-16-16s7-16 16-16v0h409c9 0 16 7 16 16s-7 16-16 16v0z m-59 752h-471c-32 0-58-26-58-58v0-830c0-50 41-91 91-91 0 0 0 0 0 0h588c0 0 0 0 0 0 49 0 89 40 89 89 0 0 0 0 0 0v0 652z m10-56l173-171h-173z m-506-801v767c0 31 26 57 57 57v0h416v-228h229v-599c0-49-40-89-89-89h-523c0 0 0 0 0 0-50 0-90 41-90 91 0 0 0 1 0 1l0 0z" horiz-adv-x="781" />

<glyph glyph-name="approved" unicode="&#xe819;" d="M297 379c-6 6-15 10-24 10-19 0-35-15-35-34 0-10 4-19 10-25l163-163c6-7 14-11 23-11 1 0 1 0 1 0l0 0c10 1 19 6 25 13l0 0 399 478c7 6 12 16 12 26 0 19-16 35-35 35-13 0-24-6-30-16l0 0-377-446z m137-229v0c0 0 0 0 0 0-12 0-23 5-31 14l0 0-158 159c-8 8-13 19-13 31 0 0 0 1 0 1v0c0 24 20 44 45 44v0 0c0 0 0 0 0 0 12 0 23-5 32-13l0 0 120-124 368 440c8 10 21 17 34 17 25 0 46-21 46-46 0-11-4-21-11-29l0 0-399-477c-8-10-19-16-32-17l0 0z m-163 229c-7 0-13-3-17-7l0 0c-4-5-7-11-7-17s3-13 7-18l0 0 163-163c5-4 11-6 17-6h0c1 0 1 0 1 0 8 0 14 3 19 9l0 0 399 477c4 5 7 11 7 18s-3 13-7 17l0 0c-4 4-10 7-17 7-8 0-15-4-20-9l0 0-386-456-140 141c-4 4-10 7-17 7 0 0 0 0 0 0l0 0z m487 389c-73 45-161 72-255 72-271 0-490-219-490-490 0-134 54-255 141-343l0 0c88-86 208-138 340-138 271 0 490 219 490 489 0 95-26 183-73 257l2-2c-6 10-17 16-29 16-7 0-13-2-19-5l0 0c-9-6-15-17-15-29 0-7 2-13 5-19l0 1c41-64 65-141 65-224 0-116-48-221-124-297l0 0c-76-77-181-124-298-124-232 0-420 189-420 421s188 420 420 420c83 0 160-24 225-65l-1 1c5-4 11-6 18-6 12 0 23 7 29 16l0 0c4 6 6 13 6 20 0 12-7 23-17 29l0 0z m-259-918c0 0 0 0 0 0-276 0-499 223-499 499 0 0 0 0 0 1v0c0 0 0 0 0 0 0 276 223 499 499 499 98 0 189-28 266-77l-2 1c13-8 21-22 21-37 0-9-3-17-7-24l0 0c-6-10-16-17-27-19l-1 0c-2-1-6-2-9-2-9 0-17 3-24 7l0 0c-61 39-136 62-216 62-226 0-408-182-408-408s182-408 408-408c225 0 408 183 408 408 0 80-23 155-63 218l1-2c-4 7-7 15-7 24 0 16 9 30 21 38l1 0c6 4 15 7 24 7 5 0 9 0 13-2l0 0c12-3 22-10 28-20l0 0c48-75 76-167 76-265 0-276-223-500-499-500h0z m0 980c-257-11-460-222-460-480s203-469 459-480l1 0c1 0 2 0 3 0 264 0 479 215 479 480 0 94-28 183-75 257l1-2c-5 7-12 12-21 12-5 0-9-2-13-4l0 0c-5-3-9-9-10-15l0 0c-1-3-2-6-2-9s1-7 2-9l0 0c41-65 65-144 65-228 0-238-193-431-431-431-118 0-226 48-304 125l0 0c-77 77-124 183-124 301 0 1 0 2 0 3l0 0c0 0 0 1 0 2 0 118 48 225 125 302l0 0c78 78 186 126 305 126 84 0 163-24 229-66l-2 1c3-1 6-1 9-1s7 0 10 1l-1 0c7 2 13 6 16 12l0 0c1 2 2 5 2 9s-1 6-2 9l0 0c-2 6-6 11-11 14l0 0c-71 44-158 71-250 71 0 0 0 0 0 0h0z" horiz-adv-x="1000" />

<glyph glyph-name="archive" unicode="&#xe81a;" d="M620 400h-221c-16 0-30-13-30-30v0-68c1-16 14-29 30-29 0 0 0 0 0 0h221c17 0 30 14 30 30v0 67c0 17-13 30-30 30v0z m-5-89h-207v51h207z m5-49h-221c-22 1-39 18-40 40l0 0v68c1 22 18 40 40 40l0 0h221c22 0 40-18 40-40l0 0v-68c0-22-18-39-40-40l0 0z m-221 129c-11 0-21-9-21-21v0-68c0-11 10-20 21-20v0h221c12 0 21 9 21 20v0 68c0 12-9 21-21 21v0z m222-89h-222v69h222z m-203 19h184v29h-184z m582 29v0l-145 292c-12 22-35 37-61 37h-25v26c0 0 0 1 0 1 0 11-9 20-20 20-1 0-1-1-2-1l0 0h-475c-10 0-19-9-19-20 0 0 0 0 0 0v0-26h-28c-26 0-49-15-60-37l0 0-146-292c-6-10-10-22-10-35v-300c0-37 31-68 69-68v0h864c0 0 0 0 0 0 37 0 67 30 67 68 0 0 0 0 0 0v0 303c0 12-4 23-9 32l0 0z m-231 286h28c0 0 0 0 0 0 10 0 19-6 22-14l0 0 119-235h-83v72c0 11-9 19-20 19v0h-24v103c0 10-9 19-19 19v0h-23z m50-197v-52h-106c-18-1-33-11-41-27l0 0-27-61h-270l-28 61c-7 15-22 26-39 27l0 0h-104v52z m-527 247h435v-84h-435z m477-123v-85h-522v85z m-569 59c4 8 12 14 22 14 0 0 0 0 0 0h28v-34h-19c-1 0-2 0-3 0-11 0-20-9-20-19 0-1 1-2 1-2l0 0v-103h-25c-11 0-19-8-19-19v0-72h-77z m739-632h-862c-14 0-25 11-25 25v0 303c0 15 11 26 25 26h231l28-62c7-15 23-26 40-26 1 0 1 0 1 0h266c0 0 1 0 1 0 18 0 33 11 40 26l0 0 28 62h230c0 0 0 0 0 0 14 0 25-11 25-25 0 0 0 0 0-1l0 0v-303c0 0 0 0 0 0 0-14-11-25-25-25 0 0 0 0 0 0h0z m3-52h-865c-43 0-77 34-77 77v0 304c0 0 0 0 0 1 0 12 3 24 9 35l-1 0v3l146 287c13 26 39 44 69 44 1 0 2 0 3 0l-1 0h19v16c0 0 0 0 0 0 0 16 13 29 28 30l0 0h475c16-1 28-14 28-30 0 0 0 0 0 0v0-16h19c0 0 0 0 0 0 30 0 56-18 69-43l0-1 150-295c4-9 6-20 6-31v-304c0 0 0 0 0 0 0-43-34-77-77-77 0 0 0 0 0 0h0z m-910 421v0l-4-9c-6-8-9-19-9-30 0 0 0 0 0 0v0-305c0-32 26-58 59-58v0h864c32 0 58 26 58 58v0 303c0 1 0 2 0 2 0 11-3 21-9 30l1 0-6 10-140 277c-9 19-29 32-52 32 0 0 0 0 0 0h-38v36c0 0 0 0 0 0 0 6-4 10-9 10l0 0h-475c0 0 0 0 0 0-5 0-9-4-9-9 0 0 0 0 0-1l0 0v-36h-38c0 0 0 0 0 0-23 0-42-13-52-32l0 0z m910-378h-865c-19 0-35 15-35 34v0 304c2 17 17 31 35 31 0 0 0 0 0 0h235l4-7 28-61c6-13 18-21 32-21 0 0 0 0 0 0h267c14 0 26 8 32 20l0 1 30 68h237c19 0 34-15 34-35v-300c0-19-15-34-34-34v0z m-865 353c-9 0-15-7-15-15v0-304c0-8 6-15 15-15v0h865c8 0 15 7 15 15v0 304c0 8-7 15-15 15v0h-223l-27-61c-8-19-27-32-49-32-1 0-1 0-1 0h-266c0 0 0 0 0 0-22 0-41 13-50 32l0 0-25 57z m565-46h-272l-5 6-27 62c-6 12-17 20-30 21l0 0h-114v72h631v-72h-112c-14 0-26-9-31-21l0 0-31-68z m-257 19h253l26 57c8 19 27 32 49 32h93v31h-593v-31h95c22 0 40-13 49-32l0 0z m570 70h-109v82c0 5-4 10-9 10v0h-34v112c0 5-4 10-10 10v0h-37v54h38c0 0 0 0 1 0 13 0 24-7 30-19l0 0z m-91 19h59l-115 222c-3 5-8 8-14 8 0 0 0 0 0 0l0 0h-19v-14h17c16 0 29-14 29-30v0-94h14c16-1 28-13 29-29l0 0z m-692-19h-103l126 249c5 12 16 19 30 19 0 0 0 0 0 0l0 0h38v-53h-32c-1 1-2 1-4 1-5 0-10-5-10-10 0-1 1-2 1-2l0 0v-112h-34c-5 0-9-5-9-10v0z m-77 19h59v63c0 16 13 28 28 29l0 0h15v93c0 0 0 1 0 2 0 16 13 29 29 29 2 0 3 0 5 0l0 0h16v14h-22c0 0 0 0 0 0-6 0-11-3-13-8l0 0z m683 73h-541v103h545z m-522 19h507v65h-507z m481 104h-455v104h455z m-435 20h416v65h-416z" horiz-adv-x="1000" />

<glyph glyph-name="arrow" unicode="&#xe81b;" d="M524 326c7 6 11 15 11 24s-4 18-11 24l0 0-450 450c-6 7-15 10-24 10-19 0-34-15-34-34 0-9 4-18 10-24v0l426-427-426-426c-6-6-10-15-10-24s4-18 10-24l0 0c6-6 14-10 24-10 0 0 0 0 0 0l0 0c0 0 1 0 1 0 9 0 17 4 23 10l0 0z m-474-478c-27 0-50 23-50 50 0 14 6 26 14 35l0 0 416 416-416 416c-8 9-12 21-12 34 0 27 22 50 50 50 13 0 24-5 33-13l0 0 450-451c9-9 15-21 15-35s-6-26-15-35l-450-451c-8-9-21-15-35-16l0 0z m0 971c0 0 0 0 0 0-5 0-10-2-13-6l0 0c-3-3-5-8-5-13s2-9 5-13l438-438-438-438c-3-4-6-8-6-13s3-10 6-14l0 0c3-3 8-5 13-5s10 2 13 5l0 0 451 453c3 3 4 7 5 12l0 0c0 0 0 0 0 1 0 4-2 9-5 12l0 0-451 451c-3 3-8 6-13 6l0 0z m895-493c6 6 10 15 10 24s-4 18-10 24l-450 450c-6 6-15 10-24 10s-18-4-24-10l0 0c-7-6-11-14-11-24s4-18 11-24l0 0 425-427-425-426c-7-6-11-14-11-24s4-18 11-24l0 0c5-6 14-10 23-10 0 0 0 0 0 0h0c0 0 1 0 1 0 9 0 18 4 24 10l0 0z m-475-478c-12 1-24 7-32 16l0 0c-9 9-14 22-14 36s5 26 14 35l0 0 412 414-412 416c-5 8-8 17-8 28 0 28 22 50 50 50 10 0 19-3 26-7l0 0 450-451c9-9 15-21 15-35s-6-26-15-35l-450-451c-9-9-22-15-36-16l0 0z m0 971c-5 0-10-2-13-6l0 0c-3-3-5-8-5-13s2-9 5-13l0 0 438-438-438-438c-2-3-4-7-4-12 0-10 9-18 19-18 4 0 8 1 11 3l0 0 451 453c3 3 5 7 5 12l0 0c0 0 0 0 0 1 0 5-2 9-5 12l0 0-451 451c-3 4-7 6-12 6 0 0-1 0-1 0l0 0z" horiz-adv-x="969" />

<glyph glyph-name="arrowl" unicode="&#xe81c;" d="M447 326c-7 6-11 14-11 24s4 18 11 24l450 451c6 6 15 10 24 10s18-4 25-10l0 0c6-6 9-15 9-24s-3-19-9-25l0 0-427-427 427-426c6-7 10-15 10-25 0-18-15-34-34-34 0 0-1 0-1 0l0 0c0 0 0 0 0 0-9 0-18 4-24 10l0 0z m474-479c0 0 0 0 0 0-14 0-26 6-35 15l0 0-447 453c-10 8-17 20-18 34l0 0c1 15 7 28 18 37l0 0 447 450c9 9 22 14 35 14s27-5 36-14l0 0c9-9 14-22 14-35s-5-27-14-36l0 0-416-416 416-415c9-9 15-22 15-36 0-28-22-51-50-51 0 0 0 0-1 0l0 0z m0 972c-5 0-10-2-13-5l-451-451c-3-3-5-8-5-13 0 0 0-1 0-1l0 0c0-5 2-10 5-13l0 0 451-451c3-3 8-5 13-5s10 2 13 5l0 0c4 3 6 8 6 13s-2 10-6 13l-438 439 438 439c4 3 6 8 6 13s-2 10-6 13l0 0c-3 3-7 4-11 4-1 0-1 0-2 0l0 0z m-895-493c-6 6-10 15-10 24s4 18 10 24l0 0 450 451c6 6 15 10 24 10s18-4 24-10l0 0c7-6 11-15 11-24s-4-19-10-25l0 0-427-427 427-426c6-7 10-15 10-25s-4-18-10-24l0 0c-7-6-15-10-24-10 0 0 0 0 0 0h0c0 0-1 0-1 0-9 0-17 4-24 10l0 0z m475-479c0 0 0 0 0 0-14 0-26 6-35 15l0 0-452 453c-8 9-14 21-14 34l0 0c0 14 6 26 14 36l0 0 451 451c9 9 22 14 35 14s27-5 36-14l0 0c9-9 14-22 14-35s-5-27-14-36l0 0-416-416 416-414c9-9 14-21 14-35s-5-27-14-36l0 0c-9-9-21-16-35-17l0 0z m0 972c0 0 0 0 0 0-5 0-10-2-13-5l0 0-451-451c-3-3-6-7-6-12 0-1 0-2 0-2l0 0c0-5 3-10 6-13l451-451c3-3 8-5 13-5s9 2 13 5l0 0c3 3 5 8 5 13s-2 10-5 13l0 0-439 439 439 439c3 3 5 8 5 13s-2 10-5 13l0 0c-3 3-8 4-12 4 0 0-1 0-1 0l0 0z" horiz-adv-x="969" />

<glyph glyph-name="asset-1" unicode="&#xe81d;" d="M1285 309h-1240c-25 0-45 20-45 44s20 45 45 45v0h1240c25 0 45-20 45-45s-20-44-45-44v0z m-552-459c-24 0-44 20-44 45 0 14 6 26 16 34l0 0 523 424-522 419c-10 8-16 20-16 34 0 10 3 20 9 27l0 0c8 10 21 17 35 17 10 0 20-4 28-10l0 0 566-451c10-9 17-21 17-35s-7-27-17-35l0 0-566-459c-8-6-17-10-28-10 0 0 0 0-1 0h0z" horiz-adv-x="1344" />

<glyph glyph-name="asset-2" unicode="&#xe81e;" d="M1042 362c-17 0-30-13-30-30v0-278c0-76-62-137-137-137v0h-671c-76 0-137 61-137 137v0 284c0 17-14 30-31 30v0c0 0 0 0 0 0-17 0-30-13-30-30 0 0 0 0 0 0v0-283c0-109 88-198 198-198v0h671c0 0 0 0 0 0 109 0 198 88 198 198v277c0 17-14 30-31 30v0z m-676 236l143 142v-620c-1-1-1-2-1-4 0-17 14-30 31-30s31 13 31 30c0 2 0 3 0 4l0 0v620l142-142c5-6 13-9 22-9l0 0c8 0 16 3 21 9l0 0c5 6 9 13 9 21s-4 16-9 22l0 0-194 194c-6 6-13 9-21 9-1 0-1 0-1 0l0 0c0 0 0 0-1 0-8 0-15-3-20-9l0 0-195-194c-6-5-11-14-11-23 0-17 14-30 31-30 9 0 17 4 23 10l0 1z" horiz-adv-x="1094" />

<glyph glyph-name="back" unicode="&#xe81f;" d="M889 314h-851c-1 0-2 0-4 0-21 0-38 17-38 38s17 39 38 39c2 0 3 0 4-1l0 0h851c1 1 3 1 4 1 21 0 38-17 38-39s-17-38-38-38c-1 0-3 0-4 0l0 0z m-228-247c-21 1-38 18-38 39 0 12 5 22 14 29l0 0 268 218-268 212c-10 7-17 19-17 32 0 21 17 38 38 38 10 0 20-4 27-11l0 0 304-243c9-7 14-17 14-29s-5-23-14-30l0 0-304-247c-6-5-14-8-22-8-1 0-2 0-2 0l0 0z" horiz-adv-x="1000" />

<glyph glyph-name="authorization" unicode="&#xe820;" d="M712 828a36 36 0 0 1-20 19 35 35 0 0 1-13 3h-293a36 36 0 1 1 0-71h206l-581-582a36 36 0 0 1 50-51l582 582v-199a36 36 0 1 1 71 0v286a36 36 0 0 1-2 13z m-423-956a35 35 0 0 1 19-19 36 36 0 0 1 13-3h293a36 36 0 1 1 0 71h-206l582 582a36 36 0 0 1-51 51l-582-582v199a36 36 0 0 1-71 0v-285a35 35 0 0 1 3-14z" horiz-adv-x="1000" />

<glyph glyph-name="blue-cir" unicode="&#xe821;" d="M500 850c276 0 500-224 500-500s-224-500-500-500c-276 0-500 224-500 500s224 500 500 500z" horiz-adv-x="1000" />

<glyph glyph-name="blue-rec" unicode="&#xe822;" d="M163 850h674c90 0 163-73 163-163v-674c0-90-73-163-163-163h-674c-90 0-163 73-163 163v674c0 90 73 163 163 163z" horiz-adv-x="1000" />

<glyph glyph-name="calender" unicode="&#xe823;" d="M801 791h-118v29c0 17-14 30-30 30s-30-13-30-30v-29h-296v29c0 1 0 1 0 2 0 15-13 28-29 28 0 0-1 0-1 0l0 0c0 0-1 0-2 0-15 0-28-13-28-28 0-1 0-1 0-2l0 0v-29h-119c0 0-1 0-1 0-81 0-147-66-147-147 0-1 0-1 0-2l0 0v-643c0 0 0-1 0-2 0-81 66-146 147-146 0 0 1 0 1 0l0 0h653c0 0 1 0 2 0 81 0 147 65 147 146 0 1 0 2 0 3l0-1v643c0 1 0 1 0 2 0 81-66 147-147 147-1 0-2 0-2-1l0 0z m-741-149c1 49 40 88 88 90l0 0h119v-30c0-1 0-1 0-2 0-15 13-28 29-28 0 0 1 0 1 0l0 0c0 0 1 0 1 0 16 0 29 13 29 28 0 1 0 1 0 2l0 0v30h296v-30c0-17 13-30 30-30s30 13 30 30v30h118c49-1 88-41 89-90l0 0v-198h-830z m830-643c-1-48-40-88-89-89l0 0h-653c-48 2-87 41-88 89l0 0v385h830z m-631 276h66c43 0 78-35 78-78v-51c0-43-35-78-78-78h-66c-43 0-78 35-78 78v51c0 43 35 78 78 78z" horiz-adv-x="938" />

<glyph glyph-name="clock" unicode="&#xe824;" d="M961 545c-51 121-146 215-263 264l-4 1c-57 25-124 40-194 40s-138-15-198-41l3 1c-181-78-305-254-305-460v0c0-1 0-1 0-2 0-69 15-136 41-195l-2 3c51-121 145-215 263-265l3-1c56-25 122-40 192-40 1 0 2 0 3 0l0 0c0 0 0 0 0 0 71 0 138 15 198 41l-3-1c121 51 215 145 265 263l2 3c25 57 40 124 40 194s-15 138-42 198l2-3z m-80-416c-39-67-94-121-159-159l-2-1c-62-37-137-59-217-59-1 0-2 0-3 0l0 0c-1 0-1 0-2 0-61 0-119 13-171 36l2-1c-55 23-102 55-143 94l0 0c-38 40-70 87-92 139l-1 3c-20 49-32 106-32 165 0 1 0 3 0 4l0 0c0 1 0 2 0 4 0 79 22 154 59 218l-1-2c39 67 94 121 158 160l2 1c64 37 140 59 221 59s157-22 222-60l-2 1c67-39 122-93 160-158l1-2c37-62 59-138 59-218 0-1 0-2 0-3l0 0c0-1 0-2 0-4 0-80-22-155-60-219l1 2z m-350 226v281c1 0 1 1 1 1 0 18-15 32-32 32 0 0 0 0 0 0h0c0 0 0 0 0 0-17 0-31-14-31-31 0-1 0-2 0-2l0 0v-286s0 0 0-4c0-2 0-3 0-5 0-8 3-15 8-20l0 0 166-163c6-5 13-8 21-8s16 3 21 8l0 0c6 5 9 13 9 21s-3 16-9 22l0 0z" horiz-adv-x="1000" />

<glyph glyph-name="collapse" unicode="&#xe825;" d="M516 671c-21 0-41-9-54-23l-1 0-441-477c-12-12-19-29-19-48 0-20 9-39 23-52l0 0c14-12 32-20 51-20 22 0 41 9 55 24l0 0 387 414 387-414c13-15 33-24 54-24 20 0 37 8 51 20l0 0c14 13 23 32 23 53 0 18-7 35-18 48l0-1-442 477c-14 14-34 23-55 23h0z" horiz-adv-x="1000" />

<glyph glyph-name="comerc" unicode="&#xe826;" d="M857-33c-10 0-19-8-19-19s9-20 19-20v0c11 0 20 9 20 20s-9 19-20 19v0z m-123 0c-10 0-19-8-19-19s9-20 19-20c11 0 20 9 20 20v0c0 11-9 19-20 19h0z m-117 0c-10 0-19-8-19-19s9-20 19-20c11 0 20 9 20 20v0c0 11-9 19-20 19v0z m-129 0c-10 0-19-8-19-19 0-11 9-20 19-20s20 9 20 20v0c0 11-9 19-20 19 0 0 0 0 0 0v0z m-117 0c-11 0-19-8-19-19s8-20 19-20c11 0 20 9 20 20v0c0 11-9 19-20 19h0z m-117 0c-11 0-19-8-19-19s8-20 19-20c11 0 20 9 20 20v0c0 11-9 19-20 19v0z m-117 0c-11 0-20-8-20-19s9-20 20-20v0c11 0 19 9 19 20s-8 19-19 19v0z m765 79h-25v199c0 0 0 0 0 0 0 11-9 19-19 19 0 0-1 0-1 0h-162c0 0 0 0 0 0-10 0-19-8-19-19 0 0 0 0 0 0v0-199h-168v257c0 0 0 0 0 1 0 35-12 68-32 94l0 0c-19 24-44 43-74 53l-1 1-128 122 399 48c7-8 15-15 23-21l0 0v-63h-19c-8 0-14-5-17-11l0 0-39-78c-2-3-3-6-3-9 0-5 3-10 6-14l78-78c4-4 9-7 15-7 11 0 19 9 19 20 0 6-2 11-6 15l0 0-68 68 27 55h171l28-55-70-68c-3-4-5-9-5-14s2-10 5-14l0 0c4-3 9-6 14-6s11 3 14 6l78 78c4 4 6 9 6 14 0 3-1 6-2 9l0 0-39 78c-3 6-10 10-17 11h-20v63c36 25 59 66 59 112 0 76-61 137-137 137-51 0-96-29-120-71l0-1-476-10c-1 0-1 0-2 0s-2 0-3 0l0 0c-10 3-23 5-36 5-75 0-137-61-137-137 0-73 58-133 130-137l0 0 89-115c-14-23-22-51-22-81 0 0 0 0 0 0v0-257h-98c-53-3-94-46-94-98s41-96 94-98l0 0h804c2 0 3 0 4 0 55 0 98 44 98 98s-43 98-98 98c-1 0-2 0-4 0l0 0z m-90 492h-78v44c12-3 26-5 39-5s28 2 40 6l-1-1z m-129 213v0c16 36 50 60 90 60 54 0 98-44 98-98 0-54-44-97-98-97h0c-17 0-34 5-48 13l0 0c-11 6-21 15-29 25l0 0c-12 17-19 37-19 59 0 14 2 27 7 39l0-1z m32-526h123v-179h-123z m-330 190v0c49-15 84-59 84-112 0-65-53-117-117-117s-117 52-117 117v0c0 0 0 0 0 0 0 65 52 117 117 117 0 0 0 0 0 0h0c12 0 23-2 34-5l-1 0z m84-215v-155h-234v155c28-33 70-53 117-53s88 20 117 53l0 0z m170 539c-1-8-2-16-2-25 0 0 0 0 0-1v0c0 0 0 0 0 0 0-20 4-39 11-55l0 1-376-46c1 6 1 14 1 22v0c0 0 0 0 0 0 0 37-14 71-38 95l0 0z m-506-201c-52 2-94 45-94 97 0 54 44 98 98 98s98-44 98-98c0 0 0 0 0 0v0c0 0 0 0 0 0 0-14-3-27-8-38l0 0c-2-3-3-6-5-9l0 0c-16-28-45-48-78-50l-1 0c-1 0-3 1-5 1s-4-1-5-1l0 0z m42-35c27 9 50 24 67 45l0 0 94-89c-37-4-69-20-93-44l0 0z m769-597c-11-10-26-17-42-17h-804c-31 2-56 27-56 59s25 56 56 58l0 0h804c0 0 0 0 0 0 33 0 59-26 59-58 0-17-7-31-17-42l0 0z m-171 866c0 0 0 0 0 0-32 0-58-26-58-59s26-58 58-58c33 0 59 26 59 58 0 0 0 0 0 0v0c0 33-26 59-59 59v0z m0-78c-10 0-19 9-19 19s9 20 19 20c11 0 20-9 20-20v0c0-10-9-18-20-18 0 0 0 0 0 0h0z m-636 1c-33 0-59-27-59-59s26-59 59-59c32 0 59 26 59 59v0c0 32-27 59-59 59v0z m0-79c-11 0-20 9-20 20s9 19 20 19v0c11 0 19-8 19-19s-8-20-19-20v0z m215-235c0 0 0 0-1 0-43 0-78-35-78-78s35-78 78-78c44 0 79 35 79 78v0c0 0 0 0 0 0 0 43-35 78-78 78h0z m0-117c-22 0-39 18-39 39s17 39 39 39c21 0 39-17 39-39v0c0-21-18-39-39-39v0z" horiz-adv-x="1000" />

<glyph glyph-name="companypage" unicode="&#xe827;" d="M766 741v101c0 5-4 8-8 8 0 0 0 0 0 0h-516c-4 0-8-3-8-8v0-101c0-5-3-8-7-8v0h-218c0 0-1 0-1 0-4 0-8-3-8-7l0 0v-868c0-5 4-8 8-8v0h984c5 0 8 3 8 8v0 868c0 4-3 8-8 8v0h-217c-1-1-1-1-1-1-5 0-8 4-8 8l0 0z m-59 43v-866c0-5-3-8-8-8v0h-43c-4 0-7 3-7 8v0 440c0 5-4 8-9 8h-279c-5 0-8-3-8-8 0 0 0 0 0 0v0-440c0-5-3-8-8-8v0h-44c-4 0-8 3-8 8v0 866c0 4 3 7 8 7v0h398c4 0 8-3 8-7v0z m-124-535h-165c-4 0-8 4-8 8v0 43c0 4 4 7 8 7v0h164c4 0 8-3 8-7v0-43c0-4-4-8-8-8v0z m-164-59h44c0 0 0 0 0 0 5 0 8-3 8-7l0 0v-265c0-5-3-8-8-8 0 0 0 0 0 0h-45c-4 0-8 3-8 8v0 265c0 4 4 7 8 7v0z m119 0h45c4 0 7-3 7-7v0-265c0-5-3-8-7-8v0h-46c0 0-1 0-1 0-4 0-8 3-8 8 0 0 0 0 0 0v0 265c0 0 0 0 0 0 0 4 4 7 8 7 0 0 1 0 1 0l0 0z m-471 484h160c4 0 7-3 7-8v0-748c0-5-3-8-7-8v0h-160c-5 0-8 3-8 8v0 748c0 5 3 8 8 8v0z m865-765h-158c-5 0-8 3-8 7v0 750c0 5 3 8 8 8v0h158c5 0 8-3 8-8v0-748c0-1 0-1 0-2 0-4-3-7-8-7 0 0 0 0 0 0h0z m-100 640h43c4 0 8-4 8-8v-43c0-4-4-8-8-8h-43c-4 0-8 4-8 8v43c0 4 4 8 8 8z m0-168h43c4 0 8-3 8-7v-44c0-4-4-7-8-7h-43c-4 0-8 3-8 7v44c0 4 4 7 8 7z m0-167h43c4 0 8-4 8-8v-43c0-5-4-8-8-8h-43c-4 0-8 3-8 8v43c0 4 4 8 8 8z m-191 486h-280c-4-1-8-4-8-8v-159c0-4 4-7 8-7h279c0 0 0 0 0 0 5 0 8 3 9 7l0 0v159c-1 4-4 8-9 8 0 0 0 0 0 0v0z m-59-116h-164c-4 0-8 4-8 8v0 41c0 4 4 7 8 7v0h164c0 0 0 0 1 0 4 0 7-3 7-7 0 0 0 0 0 0v0-41c0 0 0 0 0 0 0-4-3-8-7-8-1 0-1 0-1 0l0 0z m-457-35h43c4 0 8-4 8-8v-43c0-4-4-8-8-8h-43c-4 0-8 4-8 8v43c0 4 4 8 8 8z m0-168h43c4 0 8-3 8-7v-44c0-4-4-7-8-7h-43c-4 0-8 3-8 7v44c0 4 4 7 8 7z m0-167h43c4 0 8-4 8-8v-43c0-5-4-8-8-8h-43c-4 0-8 3-8 8v43c0 4 4 8 8 8z" horiz-adv-x="1000" />

<glyph glyph-name="created-forms" unicode="&#xe828;" d="M1077-73h-1034c-20 0-35-16-35-35v0c0-19 16-35 35-35h1035c19 0 35 16 35 35v0c0 19-16 35-35 35-1 0-1 0-1 0h0z m-1069 310v-166c0-1 0-1 0-1 0-10 4-19 10-26l0 1c6-7 15-10 24-10 0 0 1 0 1 0h166c10 0 18 4 25 10l0 0 569 572c7 7 11 16 11 25s-4 19-11 25l0 0-163 166c-7 7-15 11-25 11s-19-4-25-11l0 0-115-115-457-456c-6-7-10-16-10-25l0 0z m609 521l115-115-67-65-115 115z m-538-537l420 422 116-115-421-421h-116z" horiz-adv-x="1125" />

<glyph glyph-name="created-forms-selected" unicode="&#xe829;" d="M1085-79h-1048c-20 0-36-16-36-36v0c0-19 16-35 36-35h1049c20 0 35 16 35 35v0c0 20-16 36-36 36 0 0 0 0 0 0v0z m-1085 311v-168c0-1 0-1 0-1 0-10 4-19 10-25l0 0c7-7 16-11 25-11h169c0 0 0 0 1 0 9 0 18 4 24 10l0 0 579 584c6 6 10 15 10 25s-4 19-10 26l-169 168c-6 7-15 11-25 11s-19-4-25-11l0 0-114-117-464-463c-7-7-11-16-11-27 0 0 0-1 0-1l0 0z m618 532l117-117-67-66-117 117z m-545-544l427 427 118-117-429-427h-117z" horiz-adv-x="1125" />

<glyph glyph-name="delete" unicode="&#xe82a;" d="M695 730h-156c-8 68-65 120-135 120s-126-52-134-119l0-1h-156c-63 0-114-51-114-114v0-6c0-48 30-89 73-106l1 0v-540c0 0 0 0 0 0 0-63 51-114 114-114 0 0 0 0 0 0h434c63 0 114 51 114 114v0 540c44 17 74 58 74 106v6c0 63-51 114-114 114v0z m-290 66c39 0 72-28 79-65l0-1h-159c7 38 40 66 79 66 1 0 1 0 1 0h0z m278-832c0-33-27-60-60-60v0h-436c0 0 0 0 0 0-34 0-61 27-61 60v532h556z m73 646c0-33-26-60-60-60h-582c-33 0-60 27-60 60v0 6c0 33 27 60 60 60v0h581c33 0 60-27 60-60v0z m-498-637c15 0 27 12 27 28v0 305c0 15-12 27-27 27s-28-12-28-27v0-305c0-16 13-28 28-28v0z m147 0c15 0 27 13 27 28 0 0 0 0 0 0v0 305c-2 13-13 24-27 24s-26-11-27-24l0 0v-305c0-16 12-28 27-28v0z m145 0c15 0 27 12 27 28v0 305c-2 13-13 24-27 24s-26-11-27-24l0 0v-305c0 0 0 0 0 0 0-15 12-28 27-28h0z" horiz-adv-x="813" />

<glyph glyph-name="down" unicode="&#xe82d;" d="M876-26c-22-23-56-23-67 0l-674 674c-23 22-23 56-11 78 22 12 56 12 78 0l641-640 629 629c22 23 56 23 67 0 0 0 0 0 0 0 23-22 23-56 0-67l-663-674z" horiz-adv-x="1688" />

<glyph glyph-name="edit" unicode="&#xe82e;" d="M983-79h-947c-19 0-35-16-35-36v0c0-19 16-35 35-35h948c0 0 0 0 0 0 19 0 35 16 35 35v0c0 20-16 36-36 36 0 0 0 0 0 0v0z m-983 314v-169c0-10 4-19 10-26l0 0c7-6 15-10 25-10 0 0 0 0 1 0l0 0h167c1 0 1 0 1 0 10 0 18 4 24 10l0 0 580 581c7 6 11 15 11 25s-4 19-11 26l0 0-166 168c-7 6-16 10-26 10s-19-4-25-10l0 0-116-117-464-463c-6-7-10-15-10-25l0 0z m617 529l117-117-66-66-117 117z m-544-545l427 428 117-117-427-427h-118z" horiz-adv-x="1031" />

<glyph glyph-name="excel" unicode="&#xe830;" d="M968 734h-352v-114h116v-78h-116v-76h115v-77h-115v-78h115v-77h-115v-76h115v-77h-115v-115h352c0 0 0 0 0 0 17 0 32 14 32 32 0 0 0 1 0 1l0 0v702c0 0 0 1 0 1 0 18-15 32-32 32 0 0 0 0 0 0v0z m-45-653h-154v77h154z m0 153h-154v77h154z m0 155h-154v77h154z m0 154h-154v76h154z m-923 196v-778l577-111v1000z m365-585l-67 125c-4 8-7 17-8 26l0 1c-3-11-6-21-9-30l0 2-67-125h-106l124 197-113 194h107l55-116c4-10 8-21 11-32l1-2c4 14 8 26 13 37l-1-2 63 115h98l-117-194 120-196z" horiz-adv-x="1000" />

<glyph glyph-name="expand" unicode="&#xe831;" d="M516 51c-21 1-41 10-54 24l-1 0-441 473c-13 13-21 30-21 50 0 22 10 41 25 54l0 0c14 12 31 20 51 20 22 0 41-10 55-24l0 0 386-414 388 414c13 14 33 24 54 24 20 0 37-8 51-20l0 0c15-13 25-33 25-54 0-20-8-37-20-50l0 0-443-473c-13-14-33-23-55-24h0z" horiz-adv-x="1000" />

<glyph glyph-name="eye" unicode="&#xe832;" d="M527 71c-162 0-317 84-459 252-5 5-7 13-7 20s2 15 7 21l0 0c8 11 199 259 465 266 167 5 326-84 473-266 5-6 7-13 7-21s-2-15-7-21l0 0c-8-10-199-248-471-252z m-390 274c129-141 262-209 395-208 199 4 352 153 402 208-128 148-266 222-399 218-195-4-349-161-398-218z m400-172c-98 0-178 79-178 177s80 178 178 178c98 0 177-80 177-178v0c0-98-79-177-177-177v0z m0 288c-62 0-111-50-111-111s49-111 111-111c61 0 111 50 111 111v0c0 61-50 111-111 111v0z m504 190c-19 0-34 14-34 33v0 100h-109c-19 0-34 14-34 33v0c0 18 15 33 34 33v0h143c18 0 33-15 33-33v0-133c-1-18-15-33-33-33l0 0z m-1008 0c-18 0-33 14-33 33v0 133c0 18 15 33 33 33v0h143c19 0 33-15 33-33s-14-33-33-33v0h-109v-103c-2-17-16-30-34-30 0 0 0 0 0 0h0z m1008-798h-143c-19 0-34 14-34 33v0c0 18 15 33 34 33v0h109v100c0 18 15 33 34 33v0c18 0 33-15 33-33v0-133c0-18-15-33-33-33l0 0z m-865 0h-143c-18 0-33 14-33 33v0 133c0 18 15 33 33 33v0c19 0 34-15 34-33v0-100h109c19 0 34-15 34-33v0c-1-18-16-33-34-33l0 0z" horiz-adv-x="1063" />

<glyph glyph-name="file" unicode="&#xe833;" d="M756 334h-529c0 0 0 0 0 0-10 0-17-8-18-17l0 0c0 0 0 0 0 0 0-9 8-16 17-16 0 0 0 0 1 0l0 0h529c0 0 0 0 1 0 8 0 15 7 15 16 0 0 0 0 0 0l0 0c0 9-7 17-16 17v0z m0-43h-529c-12 3-21 13-21 26 0 0 0 0 0 0l0 0c0 14 12 25 26 25 0 0 0 0 0 0h529c14 0 25-11 25-25v0c0 0 0 0 0 0 0-15-11-26-25-26-2 0-4 0-5 0l0 0z m-529 33c-1 0-1 0-1 0-4 0-7-3-7-7 0 0 0 0 0 0v0c0-4 3-8 8-8v0h529c4 0 8 4 8 8v0c0 0 0 0 0 0 0 4-4 7-7 7-1 0-1 0-1 0l0 0z m529-32h-529c-2 0-3 0-4 0-14 0-26 11-26 25s12 25 26 25c1 0 2 0 4 0l0 0h529c12-2 21-13 21-25s-9-23-21-25l0 0z m-529 33c0 0 0 0-1 0-4 0-8-3-8-8l0 0c0-5 4-8 8-8 0 0 0 0 1 0h529c4 0 8 4 8 8v0c0 5-4 8-8 8v0z m529-42h-529c-2 0-3 0-5 0-19 0-34 15-34 34s15 34 34 34c2 0 3 0 5 0l0 0h529c17-3 30-17 30-34s-13-32-30-34l0 0z m-527 218h279c0 0 0 0 0 0 9 0 17 7 17 16 0 0 0 0 0 0v0c-1 9-8 17-17 17 0 0 0 0 0 0h-279c0 0 0 0 0 0-9 0-17-8-17-17l0 0c0 0 0 0 0 0 0-9 7-16 16-16 0 0 1 0 1 0l0 0z m279-10h-279c-13 2-23 13-23 26 0 0 0 0 0 0v0c0 14 12 25 26 25 0 0 0 0 0 0h276c0 0 0 0 0 0 14 0 25-11 26-25l0 0c0-14-12-26-26-26v0z m-279 34c-4 0-8-4-8-8s4-8 8-8h279c4 0 7 4 7 8s-3 8-7 8v0z m279-33h-279c-14 0-25 11-25 25s11 25 25 25h279c13 0 24-11 24-25s-11-25-24-25v0z m-279 33c-5 0-8-3-8-8s3-8 8-8h279c4 0 8 4 8 8s-4 8-8 8v0z m279-42h-279c-1 0-3 0-5 0-18 0-34 15-34 34s16 34 34 34c2 0 4 0 5 0l0 0h279c1 0 3 0 4 0 19 0 34-15 34-34s-15-34-34-34c-1 0-3 0-4 0l0 0z m83-349h-370c-6 0-12-8-12-17s6-17 12-17h370c7 0 11 8 11 17s-4 17-11 17z m0-43h-370c-11 3-19 14-19 26s8 22 19 25l0 0h370c12-3 20-13 20-25s-8-23-20-26l0 0z m-370 33s0-3 0-7c0-2-1-3-1-4s1-3 1-4l0 0h370c1 1 1 3 1 4s0 2-1 4l0 0c1 1 1 2 1 3s0 3-1 4l0 0z m370-32h-370c-9 0-17 11-17 25s8 25 17 25h370c10 0 17-11 17-25s-7-25-17-25z m-370 33s-6-4-6-8 0-9 6-9h370s6 4 6 9-3 8-6 8z m370-40h-370c-15 4-27 18-27 34s12 30 27 34l0 0h370c16-4 27-17 27-34s-11-30-27-34l0 0z m106 748h-589c-32 0-59-26-59-59v0-841c0-51 42-92 93-92v0h706c50 0 90 40 90 90 0 0 0 0 0 0v0 661z m10-59l176-176h-176z m-627-806v773c0 33 26 59 59 59v0h535v-232h231v-605c0 0 0 0 0 0 0-49-40-89-89-89 0 0 0 0-1 0h-643c0 0 0 0 0 0-51 0-92 41-92 92 0 0 0 1 0 2l0 0z m768-136h-709c-56 0-101 45-101 101v0 841c0 38 30 68 67 68v0h596l243-244v-665c0-1 0-2 0-3 0-53-42-97-96-98l0 0z m-743 992c0 0 0 0 0 0-27 0-49-22-49-49 0 0 0-1 0-1v0-841c0-46 37-83 83-83h709c45 0 81 36 81 81v0 657l-235 235z m710-959h-643c0 0 0 0 0 0-56 0-101 45-101 101 0 0 0 1 0 2l0 0v773c0 37 30 68 67 68h544v-232h230v-613c0 0 0 0 0 0 0-54-43-98-97-99l0 0z m-677 926c-27 0-50-22-50-50v0-773c0-46 37-83 83-83h644c0 0 0 0 0 0 44 0 81 36 81 80v594h-232v232z m765-198h-206v205z m-188 18h144l-144 144z m133-779h-709c-56 1-100 45-101 101v841c0 37 30 67 67 67v0h595l246-246v-664c0 0 0 0 0 0 0-55-44-98-98-99h0z m-743 993c-27-1-50-23-50-51v-841c0-46 38-83 84-83 0 0 0 0 0 0h709c45 0 81 37 81 82 0 0 0 0 0 0v0 656l-235 236z m710-959h-643c0 0 0 0 0 0-55 0-100 45-100 100 0 0 0 1 0 2l0 0v773c0 0 0 1 0 1 0 37 30 66 66 66 0 0 0 0 0 0h544v-231h230v-614c0 0 0 0 0 0 0-53-44-97-97-97h0z m-677 925c-27 0-50-22-50-50v0-773c0-1 0-1 0-1 0-46 37-83 83-83 0 0 1 0 1 0h643c0 0 0 0 0 0 45 0 82 36 82 81 0 0 0 0 0 0v0 595h-232v231z m765-198h-205v204z m-186 16h146l-146 148z m131-786h-709c-61 0-110 49-110 110v0 841c0 42 34 76 76 76v0h599l248-249v-670c0-58-46-106-104-108l0 0z m-15 35h15c40 1 72 33 73 73v15c-8-45-43-80-87-88l-1 0z m-769 90v-15c0-41 34-75 75-75v0h15c-46 8-82 44-90 89l0 1z m74 834c-22 0-41-18-41-41v0-773c0-1 0-2 0-2 0-41 34-75 75-75 0 0 0 0 0 0h643c0 0 0 0 0 0 40 0 72 32 73 72v589h-232v230z m589-163h117l-117 118z m-622 196c-22 0-41-18-41-41v-18c6 30 29 53 58 59l1 0z" horiz-adv-x="1000" />

<glyph glyph-name="filter" unicode="&#xe834;" d="M167 556v260c0 19-15 34-33 34s-34-15-34-34v0-260c-58-15-100-67-100-129s42-114 99-129l1-1v-413c0-19 15-34 34-34s33 15 33 34v0 413c58 16 100 68 100 130s-42 114-99 129l-1 0z m-33-210c-45 0-81 36-81 81s36 81 81 81c44 0 81-37 81-81v0c0-45-37-81-81-81v0z m448 4v466c0 19-16 34-34 34s-34-15-34-34v0-466c-57-15-99-68-99-129s42-114 98-130l1 0v-207c0-19 15-34 34-34s34 15 34 34v0 207c57 16 99 68 99 130s-42 114-99 129l0 0z m-35-210c-45 0-81 36-81 81s36 81 81 81c45 0 81-36 81-81 0 0 0 0 0-1v1c0 0 0 0 0 0 0-45-36-81-80-81-1 0-1 0-1 0h0z m447 416v260c0 19-15 34-33 34s-34-15-34-34v0-260c-58-15-100-67-100-129s42-114 99-129l1-1v-414c0-18 15-33 34-33s33 15 33 33v0 414c58 16 100 68 100 130s-42 114-99 129l-1 0z m-33-210c-1 0-1 0-1 0-44 0-81 36-81 81s37 81 81 81c45 0 81-37 81-81v0c0 0 0 0 0 0 0-45-36-81-80-81h0z" horiz-adv-x="1094" />

<glyph glyph-name="filter-new" unicode="&#xe836;" d="M921 835h-865c0 0-1 0-1 0-15 0-29-9-35-21l0-1c-4-6-6-13-6-21s2-16 6-22l0 0 320-447c11-14 18-33 18-53 0 0 0 0 0 0v0-366c0 0 0 0 0 0 0-11 4-21 11-29l0 0c8-7 18-11 29-11 0 0 0 0 0 0v0c6 0 11 1 16 4l0 0 177 68c16 5 27 19 27 36 0 1 0 1 0 2l0 0v295c0 20 7 39 18 54l-1 0 317 447c6 7 10 16 10 26 0 6-2 12-5 18l1-1c-8 14-21 22-37 22 0 0 0 0 0 0h0z m-324-483c-17-22-27-51-27-82v-291l-163-59v350c0 31-10 60-28 83l0-1-307 434h833z" horiz-adv-x="969" />

<glyph glyph-name="forword" unicode="&#xe837;" d="M755 764c-4 3-9 6-15 6-3 0-6-1-9-2l0 0c-7-3-12-11-12-20 0 0 0 0 0 0v0-112c-2 0-4 0-6 0-67 0-130-23-179-62l0 0c-58-47-99-114-113-191l0-2c-5-20-7-44-7-68 0-15 1-29 3-43l-1 1 5-26c1-9 8-16 17-18l0 0c1 0 2 0 3 0 8 0 15 4 20 10l0 0 13 23c35 63 90 111 155 137l2 1c23 8 49 13 76 13 4 0 8 0 12 0l0 0v-120c0-8 5-16 12-19l0-1c3 0 5-1 7-1 7 0 13 4 17 9l0 0 229 229c4 4 6 9 6 15s-2 12-6 16l0 0z m6-420v86c0 0 0 0 0 0 0 11-7 20-17 21l0 1c-12 1-24 2-38 2-32 0-62-6-91-16l2 1c-67-25-121-70-159-126l-1-1c0 1 0 2 0 3 0 21 2 41 6 60l0-2c13 67 49 125 99 165l0 1c43 31 98 50 156 50 8 0 15 0 22 0l-1 0c0 0 0 0 0 0 12 0 21 9 21 20 0 1 0 1 0 1l0 0v87l177-176z m-318-127h-6c-13 2-22 12-24 25l0 0-5 27c-2 13-3 28-3 44 0 24 3 48 8 71l-1-2c15 80 57 148 116 196l1 1c49 38 112 62 180 62l0 0v107c0 0 0 0 0 0 0 13 8 24 19 28l0 0c3 2 7 3 11 3 9 0 17-4 22-9l0 0 229-227c5-6 8-13 8-22s-3-16-8-22l0 0-229-229c-5-6-13-10-22-10-16 0-30 14-30 30 0 1 0 1 0 2l0-1v111c0 0 0 0 0 0-26 0-50-4-73-12l2 0c-67-26-121-73-154-133l-1-2-14-23c-6-9-15-15-26-15 0 0 0 0 0 0h0z m297 544h-5c-5-2-8-7-8-12 0 0 0 0 0 0v0-125h-8c-1 0-3 0-4 0-66 0-127-22-176-60l1 0c-56-46-96-110-111-183l0-2c-3-16-5-34-5-53s2-37 5-55l0 2v-27c1-5 5-10 10-11l0 0c1 0 2 0 2 0 5 0 9 3 11 6l0 0 14 23c35 65 91 115 159 142l2 1c24 9 52 15 80 15 4 0 8 0 12-1l0 0h8v-130c0 0 0 0 0 0 0-5 3-9 8-11l0 0c2-1 4-2 7-2s5 1 7 2l0 0 228 230c2 2 4 6 4 9s-2 7-4 9l0 0-228 229c-3 2-6 4-9 4h0z m-291-477v27c0 23 2 45 6 66l0-2c14 69 50 128 101 170l0 1c45 33 101 53 161 53 7 0 14 0 20 0l-1 0c8 0 13 5 13 12v107l201-197-197-199v108c0 6-5 12-11 13l0 0c-11 1-23 2-36 2-31 0-60-5-88-15l2 1c-65-25-118-68-155-123l-1-2z m285 297c-3 0-7 0-12 0-56 0-108-18-151-48l0 1c-50-40-86-96-99-161l-1-1c0-11 0-22-4-33 38 49 88 86 145 107l2 1c28 10 60 16 93 16 14 0 27-1 39-2l-1 0c15-3 25-16 26-31l0 0v-64l158 155-158 153v-62c-1-17-14-31-31-31l0 0z m177-445c-12 0-22-10-22-22v0-91c0-36-29-65-65-65v0h-707c-36 0-65 29-65 65v0 512c0 36 29 65 65 65h149c11 2 19 11 19 22s-8 20-18 22l-1 0h-149c-60-1-108-49-108-109v-514c0-60 48-108 108-108 0 0 0 0 0 0h707c60 0 108 48 108 108v0 91c0 12-9 22-21 22v0z m-87-232h-707c-64 0-117 52-117 117v514c0 65 52 117 117 117v0h149c2 0 3 1 5 1 17 0 31-14 31-31s-14-31-31-31c-2 0-3 0-5 0l0 0h-149c-31 0-56-25-56-56v-514c1-31 25-56 56-56h707c31 0 56 25 56 56v0 91c0 0 0 0 0 0 0 17 13 30 30 30 0 0 1 0 1 0l0 0c0 0 0 0 0 0 16 0 30-13 30-30l0 0v-91c0-65-52-117-117-118h0z m-707 732c0 0 0 0 0 0-55 0-99-45-99-100 0 0 0-1 0-1l0 0v-514c0-55 44-100 99-100h707c55 0 100 45 100 100v0 91c0 7-6 13-13 13s-13-6-13-13v0-91c0-40-32-72-71-72v0h-710c-39 0-71 32-71 72v0 514c2 39 33 70 71 71l0 0h149c0 0 0 0 1 0 6 0 12 6 12 13l0 0c1 1 1 2 1 4 0 7-6 13-13 13 0 0 0 0-1 0l1 0z" horiz-adv-x="1000" />

<glyph glyph-name="fullscreen" unicode="&#xe838;" d="M35 548c19 0 35 16 35 35v0 148l224-224c6-6 15-10 25-10 19 0 34 15 34 34 0 10-3 19-10 25l-222 222h148c19 1 35 17 35 36 0 20-16 36-36 36 0 0 0 0-1 0l0 0h-232c-19 0-35-16-35-35v0-232c0-19 16-35 35-35v0z m929-396c-19-1-34-16-35-34l0 0v-149l-231 232c-7 6-15 10-25 10-19 0-35-16-35-35 0-10 4-18 10-25l232-231h-149c-19 0-34-16-34-35s15-35 34-35h233c0 0 1 0 2 0 19 0 35 16 35 35 0 1 0 1 0 1l0 0v232c-1 18-16 33-35 35l0 0z m-663 48l-231-231v148c-1 19-16 34-35 35l0 0c-19-1-34-16-35-35l0 0v-231c0 0 0-1 0-2 0-19 16-35 35-35 0 0 0 0 0 0h232c20 0 35 16 35 35s-15 35-35 35h-148l231 231c7 7 11 15 11 25 0 19-16 35-35 35-10 0-19-4-25-10v0z m663 650h-232c-19 0-34-16-34-35s15-35 34-35v0h149l-224-224c-6-6-10-15-10-25 0-19 15-34 34-34 10 0 19 4 25 10v0l224 222v-148c0-19 16-35 35-35s35 16 35 35v0 234c0 0 0 0 0 0 0 19-16 35-35 35 0 0-1 0-1 0l0 0z" horiz-adv-x="1000" />

<glyph glyph-name="graph" unicode="&#xe839;" d="M674 348c0 9-7 16-15 16v0h-95c0 0-1 0-1 0-9 0-16-7-16-16s7-16 16-16c0 0 1 0 1 0l0 0h95c0 0 0 0 0 0 9 0 16 7 16 16 0 0 0 0 0 0v0z m-13 328v79c0 9-8 16-16 16s-16-7-16-16v0-79c0-43 35-79 79-79h142v-300c0-9 7-16 16-16s16 7 16 16v0 316c0 9-7 16-16 16h-158c-26 0-48 21-48 47v0z m-176-139c0 0 0 0 0 0 0 9-7 16-16 16h-95c-9 0-16-7-16-16s7-15 16-15v0h95c9 0 16 7 16 15v0z m-111-79c-9 0-16-7-16-15s7-16 16-16v0h32c8 0 16 7 16 16s-8 15-16 15v0z m0-263c-9 0-16-7-16-16s7-15 16-15h32c8 0 16 7 16 15s-8 16-16 16v0z m0 421h158c9 0 16 8 16 16s-7 16-16 16h-158c-9 0-16-7-16-16s7-16 16-16v0z m95-189h158c9 0 16 7 16 16s-7 15-16 15h-158c-9 0-16-7-16-15s7-16 16-16v0z m32-63h-127c0 0 0 0-1 0-8 0-15-7-15-16s7-16 15-16c1 0 1 0 1 0l0 0h126c1 0 1 0 1 0 9 0 16 7 16 16s-7 16-16 16c0 0 0 0-1 0l0 0z m0-95h-127c0 0 0 0-1 0-8 0-15-7-15-16s7-16 15-16c1 0 1 0 1 0l0 0h126c1 0 1 0 1 0 9 0 16 7 16 16s-7 16-16 16c0 0 0 0-1 0l0 0z m49-335h-411c-26 0-47 21-47 47v0 790c0 26 21 47 47 47v0h499l153-153c3-3 7-5 12-5 9 0 16 7 16 16 0 5-2 9-5 12l0 0-158 157c-3 3-7 5-11 5 0 0 0 0 0 0h-506c-43 0-79-35-79-79v-790c0-43 36-79 79-79h411c0 0 0 0 1 0 8 0 16 7 16 16s-8 16-16 16c-1 0-1 0-1 0l0 0z m-255 698c0 9-7 16-16 16v0h-94c0 0 0 0 0 0-9 0-16-7-16-16 0 0 0 0 0 0v0-95c0-8 7-15 16-15 0 0 0 0 0 0h95c8 0 15 7 15 15v0z m-31-79h-64v63h64z m-79-410h95c8 0 15 7 15 15v0 95c0 9-7 16-15 16 0 0 0 0 0 0h-95c-9 0-16-7-16-16v0-95c0 0 0 0 0 0 0-8 7-15 16-15 0 0 0 0 0 0v0z m15 94h64v-63h-64z m5 100c3-3 7-5 11-5 0 0 0 0 0 0v0c0 0 1 0 1 0s1 0 1 0l0 0c5 1 9 3 11 7l0 0 64 95c1 3 3 6 3 9 0 9-8 16-16 16-6 0-11-3-14-7l0-1-52-78-18 18c-3 3-7 4-11 4-9 0-16-7-16-15 0-5 2-9 4-12v0z m698-263h-247c-20 0-36 16-36 36v0 109c0 20 16 36 36 36v0h247c20 0 37-16 37-36v0-109c0-20-17-36-37-36 0 0 0 0 0 0v0z m-246 159c0 0-1 0-1 0-7 0-14-6-14-14 0 0 0 0 0 0v0-109c0 0 0 0 0 0 0-8 7-14 14-14h247c8 0 14 6 14 14 0 0 0 0 0 0v0 109c0 0 0 0 0 0 0 7-6 14-14 14h0z m246-383h-247c-20 0-36 16-36 36v0 109c0 20 16 37 36 37v0h247c20 0 37-17 37-37v0-109c0-20-17-36-37-36v0z m-246 159c-8 0-14-6-14-14 0 0 0 0 0 0v0-109c0 0 0 0 0 0 0-7 6-14 14-14h246c8 0 14 7 14 14 0 0 0 0 0 0v0 109c0 0 0 0 0 0 0 8-6 14-14 14h0z m57 164h131c6 0 11-5 11-11s-5-11-11-11h-131c-6 0-11 5-11 11s5 11 11 11z m0-224h131c6 0 11-5 11-11s-5-11-11-11h-131c-6 0-11 5-11 11s5 11 11 11z m56 142h22v-70h-22v70z" horiz-adv-x="1000" />

<glyph glyph-name="home" unicode="&#xe83c;" d="M874 360c-1 0-1 0-1 0-16 0-29-13-29-29 0 0 0-1 0-1l0 0v-403h-209v165c0 16-13 28-28 29l0 0h-152c0 0 0 0 0 0-16 0-29-13-30-29l0 0v-165h-208v390c0 16-13 29-29 29s-29-13-29-29v0-419c0-16 13-29 28-29h270c16 0 29 13 29 29v165h92v-165c1-16 14-29 30-29 0 0 0 0 0 0h267c16 0 28 13 29 29v432c0 0 0 1 0 1 0 16-13 29-29 29h0z m0-500h-267c-22 0-39 17-39 38v0 155h-74v-155c0-21-18-38-39-38v0h-268c-21 0-38 17-38 38v0 419c0 21 17 39 38 39s39-18 39-39v0-380h189v154c0 21 18 39 39 39v0h151c21 0 39-18 39-39v0-154h189v393c0 22 18 39 39 39s39-18 39-39v0-432c-1-21-17-38-37-38l0 0z m-400 212h113v-174c0 0 0 0 0 0 0-11 8-19 19-19 0 0 0 0 1 0l0 0h267c10 0 18 8 18 19v432c0 11-8 19-19 19s-19-8-19-19v0-413h-228v175c-1 10-9 19-19 19l0 0h-151c-1 0-1 0-1 0-11 0-19-8-20-19l0 0v-175h-228v400c0 10-8 19-19 19 0 0 0 0-1 0l1 0c-11-1-19-9-19-19l0 0v-419c0-11 8-19 18-19h270c11 0 19 8 19 19v0z m560 265l-231 233v160c0 0 0 0 0 0 0 16-14 29-30 29 0 0-1 0-2 0l0 0c0 0 0 0 0 0-15 0-28-13-28-28 0-1 0-1 0-1l0 0v-101l-193 193c-5 5-12 8-20 9l0 0c-8 0-15-4-20-9l-1-1-481-481c-5-5-8-12-8-19s3-15 8-20l0 0c5-5 13-9 21-9s15 4 20 9l0 0 463 461 463-465c5-5 12-8 19-8 1 0 1 0 2 0l0 0c0 0 0 0 0 0 8 0 15 3 21 8l0 0c5 5 8 13 8 21s-3 15-8 21l0 0z m-21-59c0 0-1 0-1 0-10 0-20 4-27 10l0 0-454 459-454-455c-7-7-17-11-27-11-1 0-2 0-2 0l0 0c-10 0-20 5-26 12l0 0c-7 6-11 15-11 24l0 0c0 1 0 1 0 2 0 11 4 21 12 28l0 0 480 482c7 7 17 11 28 11s20-4 27-11l0 0 175-177v77c0 22 17 39 38 39v0c22 0 39-17 39-39v0-154l229-231c8-7 12-17 12-28s-4-21-12-28l0 0c-7-6-16-10-26-10l0 0z m-482 495l468-471c4-4 9-5 14-5s11 1 15 5l0 0c3 3 5 8 5 14s-2 10-5 13l0 0-235 237v164c-1 11-9 19-20 19-1 0-1 0-2 0l0 0c0 0 0 0 0 0-10 0-19-8-19-19 0 0 0 0 1 0l0 0v-124l-209 209c-3 4-8 6-13 6s-11-2-14-6l0 0-482-482c-4-3-6-8-6-14 0 0 0-1 0-1l0 0c0-4 2-9 6-11l0 0c3-4 7-7 13-7h0c0 0 0 0 1 0 5 0 10 2 13 6l0 0z" horiz-adv-x="1063" />

<glyph glyph-name="icon-add" unicode="&#xe83d;" d="M548 850v-442h424v-116h-424v-447h-124v447h-424v116h424v442h124z" horiz-adv-x="969" />

<glyph glyph-name="inbox" unicode="&#xe83e;" d="M1035 362c0 0 0 0 0 0-16 0-30-13-30-30v-274c0-75-60-135-135-135h-661c-1 0-1 0-2 0-74 0-135 60-135 135v279c0 17-14 30-30 30s-30-13-30-30v0-279c0 0 0-1 0-1 0-108 87-195 195-195 1 0 1 0 2 0h661c108 0 196 88 196 196 0 0 0 0 0 0v0 274c0 17-14 30-31 30v0z m-165-513h-661c-116 0-209 93-209 209v0 279c0 23 19 42 42 42s41-19 41-42v0-279c0-69 56-125 126-125v0h661c69 0 125 56 125 125v0 274c0 23 19 42 42 42s41-19 41-42v0-274c0-116-93-209-208-209v0z m-828 506c0 0-1 0-1 0-10 0-18-8-18-18 0 0 0 0 0 0v0-279c0 0 0 0 0 0 0-102 83-185 185-185 0 0 0 0 1 0h661c102 0 184 83 184 185 0 0 0 0 0 0v0 274c0 11-8 19-18 19s-19-8-19-19v0-274c0-81-66-147-147-147h-661c-1 0-1 0-1 0-81 0-147 66-147 147v279c-1 10-9 18-19 18 0 0 0 0 0 0h0z m476-256c5-5 12-9 20-9h0c1 0 1 0 1 0 8 0 15 4 21 9l0 0 191 194c2 5 4 10 4 16 0 17-14 30-30 30-6 0-12-1-16-4l0 0-140-141v614c-2 16-15 27-30 27s-29-11-31-27l0 0v-612l-140 140c-5 3-11 5-17 5-17 0-30-13-30-30 0-6 2-12 5-17l0 1z m20-18c-11 0-21 5-29 12l-192 192c-7 8-12 18-12 30v0c0 0 0 0 0 0 0 11 5 22 12 29l0 0c8 8 18 13 30 13s22-5 29-13l0 0 121-119v583c0 23 18 42 41 42s42-19 42-42v0-583l121 120c7 8 18 13 29 13 23 0 42-19 42-42 0 0 0 0 0 0v0c0-12-5-22-13-29l0 0-191-193c-8-7-18-12-30-13l0 0z m-13 28c4-3 9-5 14-5s9 2 13 5l0 0 192 193c3 3 5 7 5 12 0 0 0 0 0 1l0 0c0 0 0 0 0 0 0 5-2 10-5 13l0 0c-4 3-8 5-14 5s-9-2-13-5l-160-160v640c0 1 0 2 0 3 0 11-8 19-18 19s-19-8-19-19c0-1 0-2 0-3l0 0v-640l-160 160c-3 3-8 5-13 5s-10-2-14-5l0 0c-3-4-5-8-5-13v0c0-5 2-10 5-13l0 0z" horiz-adv-x="1063" />

<glyph glyph-name="inbox1" unicode="&#xe83f;" d="M986 356c0 0 0 0-1 0-15 0-28-13-28-28 0-1 0-1 0-1l0 0v-261c-1-71-58-128-129-128 0 0 0 0 0 0h-630c0 0 0 0 0 0-72 0-129 58-130 129v265c0 16-13 29-29 29s-30-13-30-29v0-266c0 0 0 0 0 0 0-103 84-187 187-187 1 0 1 0 2 0l0 0h630c103 0 187 84 187 187v0 261c0 16-13 29-29 29v0z m-158-488h-630c-109 1-198 89-198 198v266c0 0 0 0 0 0 0 22 18 39 39 39 1 0 1 0 1 0h0c22 0 39-17 39-39v0-266c0-65 53-118 118-118v0h631c65 0 118 53 118 118v0 261c0 0 0 1 0 1 0 22 18 39 39 39 0 0 0 0 0 0v0c22 0 40-18 40-40v0-261c0-109-88-197-197-198h0z m-788 482c0 0 0 0-1 0-9 0-17-8-17-18 0 0 0 0 0 0v0-265c0-98 79-177 176-177v0h630c98 0 177 79 177 177v0 260c0 10-8 18-18 18s-18-8-18-18v0-261c0-77-62-140-140-140h-631c-77 0-139 63-139 140 0 0 0 0 0 0v0 266c0 0 0 1 0 1 0 9-8 17-17 17-1 0-1 0-2 0l0 0z m452-242c6-5 13-8 21-9l0 0c0 0 1 0 1 0 7 0 14 4 19 9l0 0 183 183c4 5 7 12 7 19 0 16-13 28-29 28-7 0-14-2-19-6l0 0-133-134v583c0 16-13 29-30 29s-29-13-29-29v0-583l-130 133c-5 5-13 9-21 9s-15-4-20-9l0 0c-5-5-9-12-9-20s4-15 9-20l0 0z m21-20c0 0 0 0 0 0-11 0-21 5-28 12l-183 183c-7 7-12 16-12 27 0 0 0 0 0 1v0c0 0 0 0 0 0 0 11 5 21 12 28l0 0c7 8 18 13 29 13s22-5 30-13l0 0 114-118v560c0 0 0 0 0 0 0 21 17 38 38 40l0 0c0 0 0 0 0 0 22 0 39-18 39-40 0 0 0 0 0 0v0-557l118 118c7 7 17 11 28 11 22 0 39-18 40-39v0c0-1 0-1 0-1 0-11-5-20-12-27l0 0-185-186c-7-7-17-12-27-12-1 0-1 0-1 0h0z m-12 27c3-3 7-5 12-5s9 2 12 5l0 0 181 183c3 3 5 8 5 13v0c0 0 0 0 0 0 0 5-2 9-5 13l0 0c-3 3-8 5-13 5s-9-2-12-5l0 0-152-153v610c0 9-7 17-17 17s-18-8-18-17v0-607l-152 150c-3 3-7 5-12 5s-9-2-12-5l0 0c-4-4-6-8-6-13 0 0 0 0 0 0v0c0-5 2-10 6-13l0 0z" horiz-adv-x="1000" />

<glyph glyph-name="license" unicode="&#xe840;" d="M809 560c0 0 0 0 0 0 11 0 20 8 20 19 0 0 0 0 0 0v0 210c0 34-28 61-61 61v0h-707c-34 0-61-27-61-61v0-881c0-33 27-60 61-60v0h709c33 0 60 27 60 60v0 144c-1 10-10 17-19 17s-18-7-20-16l0-1v-144c0-11-9-19-19-19v0h-711c0 0 0 0 0 0-11 0-20 8-20 19l0 0v881c0 1 0 2 0 2 0 11 9 20 20 20 0 0 0 0 0 0h709c10 0 18-9 18-19 0-1 0-2 0-3l0 0v-212c0-10 9-19 19-19v0z m-395 185c-97-4-175-84-175-182 0-50 21-96 54-129l0 0c32-28 74-46 121-46s89 18 121 46l0 0c33 33 54 79 54 129 0 98-78 178-175 182l0 0z m0-319c-32 0-62 11-85 29l0 0c17 30 49 49 85 49s68-19 85-49l0 0c-23-18-53-29-85-29 0 0 0 0 0 0h0z m-31 146v13c-1 3-1 6-1 9 0 17 14 31 31 31s32-14 32-31c0-3-1-6-1-9l0 0v-13c-4-13-16-22-31-22s-26 9-30 22l0 0z m144-90c-14 21-33 37-56 47l-1 0c9 12 15 27 15 43l0 0v13c0 39-32 71-70 71s-71-32-71-71v-13c0-16 6-31 16-43l-1 0c-25-9-45-26-60-47l0 0c-18 22-28 51-28 82 0 0 0 1 0 1v0c0 77 63 140 141 140s140-63 140-140v0c0-2 0-3 0-5 0-29-9-57-25-79l0 1z m-8-488h-105c-11 0-19-8-19-19s8-20 19-20v0h105c11 0 20 9 20 20s-9 19-20 19v0z m0 110h-277c-11 0-20-9-20-21s9-21 20-21h277c1 0 3 0 4 0 11 0 20 9 20 20s-9 20-20 20c-1 0-3 0-4 0l0 0z m0 109h-277c-10 0-19-9-19-19s9-20 19-20v0h277c11 0 20 9 20 20s-9 19-20 19v0z m-346 104c-4 4-9 6-14 6s-11-2-14-6l0 0c-3-3-5-8-6-12l0 0c0-1 0-1 0-1 0-5 3-10 6-13l0 0c3-4 8-7 14-7s10 3 14 7l0 0c3 3 5 8 5 13 0 0 0 0 0 1v0c0 0 0 0 0 0 0 5-2 10-5 13l0 0z m0-109c-4 3-9 5-14 5s-10-2-14-5l0 0c-4-4-6-9-6-14 0 0 0 0 0 0v0c1-11 10-19 20-19 6 0 10 2 14 5l0 0c3 3 5 8 5 13 0 1 0 1 0 1v0c0 0 0 0 0 0 0 5-2 10-5 14l0 0z m0-110c-4 4-9 6-14 6s-11-2-14-6l0 0c-3-3-6-8-6-13 0 0 0 0 0 0v0c0-1 0-1 0-1 0-5 3-10 6-13l0 0c3-4 8-7 14-7s10 3 14 7l0 0c3 3 5 8 5 13 0 0 0 0 0 1v0c0 0 0 0 0 0 0 5-2 10-5 13l0 0z m346 225h-277c-1 0-2 0-3 0-11 0-20-9-20-20s9-20 20-20c1 0 2 0 4 0l-1 0h277c1 0 3 0 4 0 11 0 20 9 20 20s-9 20-20 20c-1 0-3 0-4 0l0 0z m440 273c-11 6-25 10-39 10-8 0-15-1-22-3l1 0c-22-5-40-19-50-37l0-1-247-424c0-1 0-3 0-4s0-3 1-4l-1 0-21-156c0 0 0-1 0-2 0-7 4-13 10-17l0 0c1-1 3-1 5-1s3 0 5 1l0 0c0 0 0 0 0 0 4 0 8 1 12 4l0-1 125 93c2 2 4 4 5 6l0 0 246 425c7 11 11 26 11 41 0 30-16 56-40 71l-1 0z m-333-579l8 81 57-33z m93 77l-74 43 197 342 74-43z m236 409l-19-34-74 43 19 35c6 10 16 17 28 19l0 0c3 1 7 1 11 1 8 0 15-2 21-6l0 1c14-8 23-22 23-38 0-9-3-17-7-23l0 0z" horiz-adv-x="1000" />

<glyph glyph-name="manifacture" unicode="&#xe841;" d="M765 644c0 0 0 0 0 0 5 0 10 2 14 6l0 0c3 4 6 8 6 14s-3 10-6 13l0 0c-4 4-9 6-14 6-11 0-20-9-20-19 0 0 0 0 0 0v0c0-6 3-11 6-14v0c4-4 8-6 14-6 0 0 0 0 0 0h0z m225-171l-161 86c-3 1-6 2-10 2s-6-1-9-2l0 0c-6-4-10-10-10-17 0 0 0 0 0-1l0 0v-52l-131 70c-3 1-6 2-10 2s-7-1-9-2l0 0c-6-4-10-10-10-17 0 0 0 0 0-1l0 0v-52l-131 70c-3 1-6 2-10 2s-7-1-9-2l0 0c-6-4-10-10-10-17 0 0 0 0 0-1l0 0v-214h-300v214c0 0 0 1 0 1 0 10-9 19-20 19 0 0 0 0 0 0h-28v28c0 4 4 8 9 8v0c10 0 19 9 19 20s-9 19-19 19v0c-27 0-48-21-48-47v0-28h-34v92c0 37 30 67 67 67h31c-1-5-1-11-1-17 0 0 0 0 0 0v0c0-41 33-74 74-75h74c11 0 20 9 20 20s-9 20-20 20v0h-74c-19 0-35 15-35 35v0c0 11 4 20 11 27l0 0c6 6 15 10 25 10 0 0 0 0 0 0h0c5 0 10-1 15-4l0 0c2-1 5-1 8-1s5 0 8 1l-1 0c6 3 10 7 11 12l0 0c15 37 51 63 92 63s78-26 92-63l0 0c-6-4-12-8-17-12l0 0c-8-7-16-16-21-26l0 0c-2-3-3-6-3-10 0-7 4-13 10-17l0 0c3-1 6-2 10-2h0c0 0 0 0 0 0 7 0 14 4 17 10l0 0c8 13 20 23 34 27l1 0c4 2 10 3 16 3h0c31 0 57-26 57-58 0 0 0 0 0 0v0c0-11 9-19 20-19h106c10 1 18 9 18 19s-8 19-18 20l0 0h-89c-9 44-48 77-94 77h0c-2 0-3 0-5 0s-3 0-5 0l1 0c-21 53-71 89-130 89-51 0-96-28-120-70l0-1c-4 1-8 2-12 2l0 0c-1 0-1 0-2 0-19 0-37-8-50-21l0 0h-54c-59 0-107-47-107-106v-92c-10 0-19-9-19-20v-672c0-10 9-19 19-19h961c11 0 20 9 20 19v588c0 0 0 0 0 0 0 7-4 14-10 17l-1 0z m-950-29h101v-477h-102z m101 39h-102v39h102z m-102-555h102v-39h-102z m462-39h-321v320h175c11 0 20 9 20 20s-9 20-20 20h-175v39h586v-399z m461 0h-156v418c0 11-8 20-19 20v0h-267v182l131-70c3-2 6-2 9-2 11 0 20 8 20 19 0 0 0 0 0 0v0 53l132-70c3-2 6-3 9-3s7 1 10 3l0 0c6 3 10 9 10 16 0 1 0 1-1 1l0 0v53l121-65z m-630 266h-94c0 0 0 0 0 0-11 0-19-9-19-20 0 0 0 0 0 0v0-93c0-1 0-1 0-1 0-11 8-20 19-20 0 0 0 0 0 0h94c0 0 0 0 0 0 11 0 19 9 19 20 0 0 0 0 0 0v0 94c0 0 0 0 0 0 0 11-8 20-19 20 0 0 0 0 0 0h0z m-20-94h-54v55h54z m208 94h-94c-11 0-20-9-20-20v0-93c0-1 0-1 0-1 0-11 9-20 20-20h94c10 0 19 9 19 20 0 0 0 0 0 0v0 94c0 11-9 20-19 20v0z m-19-94h-56v55h56z m206 94h-94c0 0 0 0 0 0-11 0-19-9-19-20 0 0 0 0 0 0v0-93c0-1 0-1 0-1 0-11 9-20 19-20 0 0 0 0 0 0h94c11 0 20 9 20 20v0 94c0 0 0 0 0 0 0 11-9 20-20 20 0 0 0 0 0 0h0z m-20-94h-54v55h54z m-259 148c11 0 20 9 20 20s-9 20-20 20v0c-5-1-10-3-14-6l0 0c-3-4-6-9-6-14s3-10 6-14v0c4-3 9-5 14-5h0z" horiz-adv-x="1000" />

<glyph glyph-name="more" unicode="&#xe842;" d="M982 468h-882c-52 0-94 42-94 94v0 188c0 52 42 94 94 94v0h882c52 0 94-42 94-94v0-188c0-52-42-94-94-94v0z m-882 319c0 0-1 0-1 0-19 0-35-16-35-36 0 0 0-1 0-1v0-188c0 0 0 0 0 0 0-20 16-36 35-36 0 0 1 0 1 0h882c0 0 0 0 1 0 19 0 35 16 35 36 0 0 0 0 0 0v0 188c0 0 0 1 0 1 0 20-16 36-35 36-1 0-1 0-1 0h0z m882-324h-882c0 0 0 0 0 0-55 0-100 44-100 99v188c0 55 45 100 100 100v0h882c55 0 100-45 100-100v0-188c0-55-45-99-100-99 0 0 0 0 0 0v0z m-882 377c-50 0-90-40-90-90v-188c1-49 41-88 90-88 0 0 0 0 0 0h882c0 0 0 0 0 0 50 0 90 40 90 89v188c-1 49-41 89-90 89h0z m882-319h-882c0 0-1 0-1 0-22 0-41 18-41 41 0 0 0 0 0 0v0 188c0 0 0 0 0 0 0 23 19 41 41 41 0 0 1 0 1 0h882c0 0 0 0 1 0 22 0 41-18 41-41 0 0 0 0 0 0v0-188c0 0 0 0 0 0 0-23-19-41-41-41-1 0-1 0-1 0h0z m-882 260c0 0-1 0-1 0-17 0-30-13-30-30 0 0 0-1 0-1v0-188c0-17 14-31 31-31v0h882c17 0 31 14 31 31v0 188c0 0 0 1 0 1 0 17-13 30-30 30-1 0-1 0-1 0h0z m882-926h-882c-52 0-94 42-94 94v0 188c0 52 42 95 94 95v0h882c52 0 94-43 94-95v0-188c0-52-42-94-94-94v0z m-882 319c-20 0-36-16-36-36v0-188c0-20 16-37 36-37v0h882c20 0 36 17 36 37v0 188c0 20-16 36-36 36v0z m882-324h-882c-55 0-100 45-100 100v188c0 0 0 1 0 1 0 55 45 100 100 100 0 0 0 0 0 0h882c0 0 0 0 0 0 55 0 100-45 100-100 0 0 0-1 0-1v0-188c0-55-45-100-100-100v0z m-882 376c0 0 0 0 0 0-50 0-90-40-90-89v-188c2-48 41-87 90-87 0 0 0 0 0 0h882c0 0 0 0 0 0 50 0 90 40 90 90v188c0 49-40 89-90 89 0 0 0 0 0 0v0z m882-317h-882c0 0-1 0-1 0-22 0-41 19-41 41 0 0 0 0 0 0v0 188c0 23 19 42 42 42v0h882c23 0 42-19 42-42v-188c0 0 0 0 0 0 0-22-19-41-41-41 0 0-1 0-1 0h0z m-882 260c-17 0-31-14-31-31v0-188c0-17 14-31 31-31v0h882c17 0 31 14 31 31v0 188c0 17-14 31-31 31v0z" horiz-adv-x="1094" />

<glyph glyph-name="more1" unicode="&#xe843;" d="M982 468h-882c-52 0-94 42-94 94v0 188c0 52 42 94 94 94v0h882c52 0 94-42 94-94v0-188c0-52-42-94-94-94v0z m-882 319c0 0-1 0-1 0-19 0-35-16-35-36 0 0 0-1 0-1v0-188c0 0 0 0 0 0 0-20 16-36 35-36 0 0 1 0 1 0h882c0 0 0 0 1 0 19 0 35 16 35 36 0 0 0 0 0 0v0 188c0 0 0 1 0 1 0 20-16 36-35 36-1 0-1 0-1 0h0z m882-324h-882c0 0 0 0 0 0-55 0-100 44-100 99v188c0 55 45 100 100 100v0h882c55 0 100-45 100-100v0-188c0-55-45-99-100-99 0 0 0 0 0 0v0z m-882 377c-50 0-90-40-90-90v-188c1-49 41-88 90-88 0 0 0 0 0 0h882c0 0 0 0 0 0 50 0 90 40 90 89v188c-1 49-41 89-90 89h0z m882-319h-882c0 0-1 0-1 0-22 0-41 18-41 41 0 0 0 0 0 0v0 188c0 0 0 0 0 0 0 23 19 41 41 41 0 0 1 0 1 0h882c0 0 0 0 1 0 22 0 41-18 41-41 0 0 0 0 0 0v0-188c0 0 0 0 0 0 0-23-19-41-41-41-1 0-1 0-1 0h0z m-882 260c0 0-1 0-1 0-17 0-30-13-30-30 0 0 0-1 0-1v0-188c0-17 14-31 31-31v0h882c17 0 31 14 31 31v0 188c0 0 0 1 0 1 0 17-13 30-30 30-1 0-1 0-1 0h0z m882-926h-882c-52 0-94 42-94 94v0 188c0 52 42 95 94 95v0h882c52 0 94-43 94-95v0-188c0-52-42-94-94-94v0z m-882 319c-20 0-36-16-36-36v0-188c0-20 16-37 36-37v0h882c20 0 36 17 36 37v0 188c0 20-16 36-36 36v0z m882-324h-882c-55 0-100 45-100 100v188c0 0 0 1 0 1 0 55 45 100 100 100 0 0 0 0 0 0h882c0 0 0 0 0 0 55 0 100-45 100-100 0 0 0-1 0-1v0-188c0-55-45-100-100-100v0z m-882 376c0 0 0 0 0 0-50 0-90-40-90-89v-188c2-48 41-87 90-87 0 0 0 0 0 0h882c0 0 0 0 0 0 50 0 90 40 90 90v188c0 49-40 89-90 89 0 0 0 0 0 0v0z m882-317h-882c0 0-1 0-1 0-22 0-41 19-41 41 0 0 0 0 0 0v0 188c0 23 19 42 42 42v0h882c23 0 42-19 42-42v-188c0 0 0 0 0 0 0-22-19-41-41-41 0 0-1 0-1 0h0z m-882 260c-17 0-31-14-31-31v0-188c0-17 14-31 31-31v0h882c17 0 31 14 31 31v0 188c0 17-14 31-31 31v0z" horiz-adv-x="1094" />

<glyph glyph-name="next" unicode="&#xe844;" d="M76 328c-5 6-8 14-8 22s3 16 8 22l0 0 405 404c5 5 13 8 21 8s16-3 22-8l0 0c5-6 9-13 9-22s-4-16-9-22v0l-382-382 380-381c5-5 9-13 9-21s-4-16-9-22l0 0c-6-5-14-9-22-9s-16 4-21 9l0 0z" horiz-adv-x="594" />

<glyph glyph-name="no-files" unicode="&#xe845;" d="M614 348c0 9-7 16-16 16v0h-94c-1 0-1 0-1 0-9 0-16-7-16-16s7-16 16-16c0 0 0 0 1 0l0 0h95c0 0 0 0 0 0 8 0 15 7 15 16 0 0 0 0 0 0v0z m-14 328v79c0 9-7 16-16 16s-15-7-15-16v0-79c0-43 35-79 79-79h142v-300c0-9 7-16 16-16s16 7 16 16v0 316c0 9-7 16-16 16h-158c-27 0-48 21-48 47v0z m-175-139c0 0 0 0 0 0 0 9-7 16-16 16h-95c-9 0-16-7-16-16s7-15 16-15v0h95c9 0 16 7 16 15v0z m-111-79c-9 0-16-7-16-15s7-16 16-16v0h32c8 0 15 7 15 16s-7 15-15 15v0z m0-263c-9 0-16-7-16-16s7-15 16-15h32c8 0 15 7 15 15s-7 16-15 16v0z m0 421h158c9 0 16 8 16 16s-7 16-16 16h-158c-9 0-16-7-16-16s7-16 16-16v0z m95-189h158c8 0 16 7 16 16s-7 15-16 15h-158c-9 0-16-7-16-15s7-16 16-16v0z m31-63h-126c0 0-1 0-1 0-9 0-16-7-16-16s7-16 16-16c0 0 1 0 1 0l0 0h126c0 0 1 0 1 0 9 0 16 7 16 16s-7 16-16 16c0 0-1 0-1 0l0 0z m0-95h-126c0 0-1 0-1 0-9 0-16-7-16-16s7-16 16-16c0 0 1 0 1 0l0 0h126c0 0 1 0 1 0 9 0 16 7 16 16s-7 16-16 16c0 0-1 0-1 0l0 0z m50-335h-411c-26 0-47 21-47 47v0 790c0 26 21 47 47 47v0h499l153-153c3-3 7-5 12-5 9 0 16 7 16 16 0 5-2 9-5 12l0 0-158 157c-3 3-7 5-11 5 0 0 0 0 0 0h-506c-44 0-79-35-79-79v-790c0-43 35-79 79-79h411c0 0 0 0 0 0 9 0 16 7 16 16s-7 16-16 16c0 0 0 0 0 0l0 0z m-255 698c0 9-7 16-16 16v0h-95c0 0 0 0 0 0-8 0-15-7-15-16 0 0 0 0 0 0v0-95c0-8 7-15 15-15 0 0 0 0 0 0h95c9 0 16 7 16 15v0z m-32-79h-63v63h63z m-79-410h95c9 0 16 7 16 15v0 95c0 9-7 16-16 16 0 0 0 0 0 0h-95c-8 0-15-7-15-16v0-95c0 0 0 0 0 0 0-8 7-15 15-15 0 0 0 0 0 0v0z m16 94h63v-63h-63z m5 100c3-3 7-5 11-5 0 0 0 0 0 0v0c0 0 1 0 1 0s0 0 1 0l0 0c4 1 9 3 11 7l0 0 63 95c2 3 3 6 3 9 0 9-7 16-15 16-6 0-11-3-14-7l0-1-52-78-18 18c-3 3-7 4-12 4-8 0-15-7-15-15 0-5 1-9 4-12v0z m698-263c20 0 37 16 37 36v0 109c0 20-17 36-37 36v0h-247c-20 0-36-16-36-36v0-109c0-20 16-37 36-37v0h114v-41h-114c-20 0-36-17-36-37v0-109c0-20 16-36 36-36v0h247c20 0 37 16 37 36v0 109c0 20-17 37-37 37v0h-111v42z m14-79v-109c0 0 0 0 0 0 0-7-6-14-14-14h-247c-8 0-14 7-14 14 0 0 0 0 0 0v0 109c0 0 0 0 0 0 0 8 6 14 14 14h247c8 0 14-6 14-14 0 0 0 0 0 0v0z m-275 115v109c0 0 0 0 0 0 0 7 7 14 14 14h247c8 0 14-7 14-14 0 0 0 0 0 0v0-109c0 0 0 0 0 0 0-8-6-14-14-14h-247c-8 0-14 6-14 14 0 0 0 0 0 0v0z m203 63h-131c-6 0-11-5-11-11s5-11 11-11v0h131c6 0 11 5 11 11s-5 11-11 11v0z m-131-246h131c6 0 11 5 11 11s-5 11-11 11v0h-131c-6 0-11-5-11-11s5-11 11-11v0z" horiz-adv-x="875" />

<glyph glyph-name="notifications" unicode="&#xe846;" d="M853 21l-73 121c-32 52-51 116-51 183 0 1 0 1 0 1v0 106c0 162-132 294-295 294s-295-132-295-294v0-106c0-68-19-132-52-186l1 2-72-121c-2-3-3-7-3-10s1-8 3-11l0 0c4-7 10-11 18-11h801c11 0 20 10 20 22 0 3-1 7-2 10l0 0z m-782 10l53 89c36 59 57 130 57 205 0 1 0 1 0 1v0 106c0 2 0 6 0 9 0 140 113 253 253 253s253-113 253-253c0-3 0-7 0-10l0 1v-106c0-76 21-147 58-208l-1 2 53-89z m363 806c0 0 0 0 0 0-46 0-84-38-84-84v-47c0 0 0 0 0 0 0-12 9-21 21-21 0 0 0 0 0 0h0c12 0 21 9 21 21v47c0 23 19 42 42 42s43-19 43-42v0-47c0-12 9-21 20-21s21 9 21 21v0 47c0 46-37 84-84 84v0z m91-816c-3 6-10 10-18 10-12 0-21-9-21-21 0-4 1-7 3-10l0 0c5-9 8-20 8-32 0-35-28-63-63-63s-63 28-63 63c0 12 3 23 9 32l0 0c2 3 3 6 3 10 0 12-10 21-21 21-8 0-15-4-19-10l0 0c-9-15-14-33-14-53 0 0 0 0 0 0v0c0-58 47-105 105-105s106 47 106 105v0c0 0 0 0 0 0 0 20-6 38-15 54l0-1z" horiz-adv-x="875" />

<glyph glyph-name="notifications-selected" unicode="&#xe848;" d="M1035 362c-16 0-29-13-29-30 0 0 0 0 0 0v0-276c0-75-61-136-136-136v0h-663c-75 0-135 61-135 136 0 0 0 1 0 1l0 0v279c0 2 0 3 0 5 0 16-13 30-30 30s-31-14-31-30c0-2 0-3 1-5l0 0v-279c0-108 87-195 195-195v0h664c108 0 195 87 195 195v277c0 17-13 30-30 30v0z m-165-512h-663c-114 0-207 93-207 207 0 0 0 0 0 0v0 279c0 23 19 42 42 42v0c0 0 0 0 0 0 23 0 42-19 42-42 0 0 0 0 0 0v0-279c0-68 55-124 123-124v0h664c0 0 0 0 0 0 69 0 124 56 124 124 0 0 0 0 0 0v0 277c3 21 20 37 42 37s39-16 42-37l0 0v-277c0 0 0 0 0 0 0-114-93-207-208-207 0 0 0 0-1 0h0z m-828 503c-11-1-19-9-19-19 0 0 0 0 0 0v0-279c0-102 83-185 184-185v0h664c101 0 184 83 184 185v276c0 10-9 19-19 19s-19-9-19-19v-276c-1-80-67-145-147-145 0 0 0 0 0 0h-663c-81 0-147 66-147 147v0 280c-2 9-9 15-18 16h0z m475-251c6-6 13-10 21-10h0c9 0 17 4 22 10l192 191c5 6 9 13 9 22 0 16-14 30-30 30-9 0-16-4-22-9v0l-140-140v613c-2 14-15 26-30 26s-28-12-30-26l0 0v-613l-141 140c-5 6-13 9-21 9s-16-3-22-9l0 0c-5-6-9-13-9-21s4-16 9-22l0 0z m21-21c-11 0-21 5-29 12l-192 192c-7 8-12 18-12 30s5 22 12 29l0 0c8 8 18 12 30 12s21-4 29-12v0l122-121v586c2 21 20 37 41 37s40-16 42-37l0 0v-586l121 121c7 8 18 12 29 12s22-4 30-12l0 0c7-7 12-18 12-29s-5-22-12-30l-192-192c-8-7-18-12-30-12 0 0 0 0-1 0h0z m-12 28c3-3 8-5 13-5s9 2 13 5l0 0 192 193c3 3 5 7 5 12 0 0 0 0 0 0v0c0 1 0 1 0 1 0 5-2 10-5 13l0 0c-4 3-8 5-13 5s-10-2-13-5l0 0-161-160v641c0 10-8 18-18 18 0 0 0 0 0 0v0c-11 0-19-8-19-18v0-641l-160 160c-3 3-8 5-13 5s-10-2-14-5l0 0c-3-4-5-8-5-14v0c0-5 2-9 5-12l0 0z" horiz-adv-x="1063" />

<glyph glyph-name="onoff" unicode="&#xe849;" d="M500-150c0 0-1 0-1 0-255 0-462 207-462 462 0 211 143 390 337 444l4 1c2 1 5 1 8 1 18 0 32-12 37-28l0 0c1-3 2-7 2-11 0-17-12-32-29-37l0 0c-162-47-278-195-278-369 0-213 172-385 385-385s384 172 384 385c0 174-116 322-275 369l-3 0c-17 5-29 21-29 39 0 22 18 40 40 40 4 0 8-1 11-2l0 0c203-51 351-232 351-448 0-255-207-462-462-462-7 0-14 1-21 1l1 0z m0 500c-21 0-38 17-38 39v0 423c0 21 17 38 38 38s39-17 39-38v0-423c0-22-18-39-39-39v0z" horiz-adv-x="1000" />

<glyph glyph-name="order-number" unicode="&#xe84a;" d="M709 347h-516c-9 0-16-7-16-16s7-17 16-17h516c9 0 16 8 16 17s-7 16-16 16v0z m0-41h-516c-13 0-24 11-24 25s11 24 24 24h516c13 0 24-11 24-24s-11-25-24-25v0z m-516 32c-4 0-8-3-8-7s4-8 8-8h516c4 0 8 3 8 8s-4 7-8 7v0z m0 173h273c1 0 2 0 3 0 9 0 16 7 16 16s-7 17-16 17c-1 0-2 0-3-1l0 0h-273c-1 1-2 1-3 1-9 0-16-8-16-17s7-16 16-16c1 0 2 0 3 0l0 0z m273-9h-273c-1 0-2 0-4 0-13 0-24 11-24 24s11 25 24 25c2 0 3-1 4-1l0 0h273c1 0 2 1 4 1 13 0 24-11 24-25s-11-24-24-24c-2 0-3 0-4 0l0 0z m-273 32c0 1-1 1-2 1-5 0-8-4-8-9s3-8 8-8c1 0 2 0 2 0l0 0h273c1 0 1 0 2 0 5 0 9 4 9 8s-4 9-9 9c-1 0-1 0-2-1l0 0z m354-383h-361c-6 0-11-7-11-16s5-16 11-16h361c6 0 11 7 11 16s-5 16-11 16z m0-40h-361c-10 0-17 11-17 24s7 24 17 24h361c10 0 17-11 17-24s-7-24-17-24z m-361 32c-4 0-6-3-6-8s0-8 6-8h361c4 0 6 4 6 8s0 8-6 8z m465 692h-579c-31 0-56-25-56-57v0-823c0-50 40-90 90-90v0h692c49 0 88 39 88 88v0 646z m9-57l170-169h-170z m-613-791v759c0 31 26 56 57 56v0h523v-226h226v-591c0 0 0 0 0 0 0-48-39-88-87-88 0 0 0 0 0 0h-629c-49 0-90 41-90 90v0z m751-130h-693c0 0 0 0-1 0-53 0-97 44-97 97 0 1 0 1 0 1v0 823c0 0 0 0 0 0 0 36 29 65 65 65 0 0 0 0 0 0h582l240-240v-650c0-53-43-96-96-96 0 0 0 0 0 0v0z m-726 970c-27 0-49-22-49-49v0-823c0-45 37-82 82-82h693c44 0 80 36 80 80v0 643l-231 231z m694-937h-629c-53 0-97 44-97 97l0 0v759c0 35 29 64 64 65h532v-226h226v-600c-1-52-43-95-96-95h0z m-661 904c-27-1-48-22-48-48l0 0v-759c0-45 36-82 81-82v0h628c0 0 1 0 1 0 44 0 80 36 80 80 0 0 0 0 0 0v0 583h-226v226z m745-194h-198v199z m-182 17h143l-143 143z" horiz-adv-x="906" />

<glyph glyph-name="orgnisational-plan" unicode="&#xe84b;" d="M409 452h135c1 0 3 0 4 0 21 0 38 17 38 38 0 2 0 3 0 5l0 0q0 41 0 83c0 1 0 2 0 3 0 22-17 40-39 40-2 0-3 0-5-1l0 0c-57 0-74 0-130 0-3 1-7 2-10 2-22 0-40-18-40-40 0-2 0-4 1-6l0 0c0-28 0-52 0-78-1-2-1-4-1-6 0-22 18-40 40-40 2 0 5 0 7 0l-1 0z m0 49v72h126v-72z m0-505h135c1-1 2-1 4-1 21 0 38 18 38 39 0 1 0 3 0 4l0 0q0 42 0 83c0 2 0 3 0 4 0 22-17 40-39 40-2 0-3-1-5-1l0 0h-134c-1 0-3 1-5 1-23 0-41-18-41-41 0-2 0-3 1-5l0 0c0-26 0-52 0-79-1-1-1-4-1-6 0-21 18-39 39-39 3 0 5 0 8 1l0 0z m0 48v72h126v-72z m135 180c1 0 2 0 4 0 21 0 38 17 38 39 0 1 0 3 0 4l0 0q0 41 0 82c0 1 0 3 0 5 0 21-17 39-39 39-2 0-3 0-5 0l0 0h-133c-3 0-5 0-7 0-22 0-40-17-40-39 0-2 0-3 1-5l0 0c0-27 0-54 0-81-1-2-1-3-1-4 0-22 18-40 40-40 2 0 3 0 4 0l0 0h138z m-6 121v-73h-121v72z m-132 336h134c2 0 3 0 5 0 21 0 38 17 38 39 0 2 0 3 0 5l0 0q0 40 0 82c0 1 0 2 0 3 0 22-18 40-40 40-1 0-3 0-5 0l0 0h-132c-1 0-3 0-4 0-22 0-40-17-40-39 0-1 1-1 1-2l0 0c0-30 0-61 0-85-1-1-1-3-1-4 0-22 18-39 39-39 2 0 4 0 5 0l0 0z m6 48v73h120v-73z m-165-235h-74c-2 0-4 0-6 0-33 0-60-27-60-60 0-2 0-5 0-7l0 0c0-47 0-95 0-143 0 0 0-1 0-2 0-35 29-64 64-64 1 0 2 0 3 0l0 0h39l-4-4c-6-5-9-13-9-21s3-15 9-20l0 0c5-6 12-9 20-9h0c9 0 17 4 22 10l0 0c17 17 35 34 51 51 6 6 10 13 10 22s-4 16-10 22l0 0-52 49c-6 7-14 11-23 11-7 0-14-3-19-8l0 0c-5-4-9-11-10-18l0 0c1-10 5-19 12-25l0 0v-3h-32c-2-1-4-1-6-1s-4 0-6 1l0 0c0 2-1 4-1 6s1 4 1 6l0 0c0 45 0 89 0 133 0 2-1 4-1 6s1 5 1 7l0-1c2 1 4 1 6 1s4 0 6-1l0 0h96c28 0 35 15 35 28 1 2 1 5 1 7 0 8-3 15-8 20v0c-6 6-15 10-24 10-1 0-2 0-3-1l0 0z m442 163c25 0 51 0 75 0h22c1 1 3 1 5 1s4 0 6-1l0 0s0-4 0-8v-41c0-34 0-69 0-104 0 0-4-7-4-9-6 0-14 0-21 0s-15 0-22 0l1 0c1 3 3 5 4 8l0 0c2 5 3 11 3 17s-1 13-3 18l0 0c-3 5-8 8-13 10l-1 0c0 0 0 0 0 0-10 0-18-4-25-10l-10-10c-14-13-28-26-41-40l0 0c-4-6-6-13-6-20s2-14 6-19l0 0c19-22 38-42 59-60l1-1c4-2 8-4 13-4 1 0 1 0 2 0l0 0c0 0 0 0 1 0 7 0 15 2 21 6l-1 0c4 5 6 11 6 18 0 7-3 14-7 19l0 0c-2 4-4 8-7 11l0 0h41c33 0 61 27 61 60v0c0 48 0 99 0 155 0 0 0 0 0 0 0 32-25 58-56 61l-1 0c-34 0-68 0-101 0h-15c0 0-1 0-1 0-10 0-18-5-24-12l0 0c-2-3-3-7-3-11s1-8 3-11l0 0c6-13 18-21 32-23l1 0z m230-90c-15 0-28-13-28-28v0-398c0-9-4-18-10-24v0l-172-173v147c0 0 0 1 0 1 0 10 9 18 19 18 0 0 0 0 0 0h80c1 0 3 0 4 0 15 0 28 13 28 28s-13 28-28 28c-1 0-3 0-4-1l0 0h-80c-41 0-74-33-74-74v0-185h-564c0 0 0 0 0 0-19 0-34 15-34 34 0 0 0 0 0 1v0 607c0 0 0 0 0 0 0 20 15 35 34 35 0 0 0 0 0 0h161c1 0 2 0 4 0 15 0 28 12 28 27s-13 28-28 28c-2 0-3 0-4 0l0 0h-161c-50 0-90-40-90-90v0-607c0 0 0 0 0 0 0-50 40-91 90-91h566c24 0 47 10 63 26l0 0 201 201c17 17 27 39 27 64v398c0 15-13 27-28 28l0 0z" horiz-adv-x="938" />

<glyph glyph-name="person" unicode="&#xe84d;" d="M854 203c-52 53-116 94-187 119l-4 1c76 53 125 140 125 238 0 160-130 289-289 289s-290-129-290-289c0-98 49-185 124-237l1-1c-73-27-136-68-188-120l0 0c-90-90-146-214-146-352 0-1 0-2 0-3l0 0h78c0 5 0 11 0 17 0 233 189 422 422 422s422-189 422-422c0-6 0-12 0-18l0 1h80c0 0 0 1 0 1 0 138-56 262-146 352l0 0z m-354 147c-117 0-211 95-211 211s94 212 211 212c116 0 211-95 211-212 0 0 0 0 0 0v0c0 0 0 0 0 0 0-116-94-211-211-211 0 0 0 0 0 0h0z" horiz-adv-x="1000" />

<glyph glyph-name="person2" unicode="&#xe84f;" d="M854 203c-52 53-116 93-187 118l-3 1c76 53 126 140 126 239 0 160-129 289-289 289s-289-129-289-289c0-99 50-186 125-238l1-1c-198-70-338-255-338-473v0h79c9 225 194 405 421 405s413-180 422-405l0 0h78c0 0 0 1 0 2 0 137-56 261-146 351l0 0z m-354 147c-117 0-211 95-211 211s94 211 211 211c117 0 211-94 211-211v0c0-116-94-211-211-211v0z" horiz-adv-x="1000" />

<glyph glyph-name="personalpage" unicode="&#xe850;" d="M998 396c-24 256-238 454-498 454-276 0-500-224-500-500s224-500 500-500c0 0 0 0 1 0h0c0 0 1 0 1 0 15 0 31 1 46 2l-2 0c13 0 26 3 41 5h5c234 44 408 247 408 490 0 17-1 34-2 51l0-2z m-159-304c-13 114-110 202-227 202h-224c-116 0-213-87-226-201l0-1c-54 71-86 160-86 257 0 118 47 225 124 302l0 0c77 77 183 124 300 124s223-47 301-124l0 0c76-77 124-184 124-302 0-97-33-186-87-258l1 1z m-124-110l-4-2c-11-6-20-11-29-15v0l-4-2c-11-5-21-9-34-14s-22-7-35-11-23-5-36-8c-10-2-22-3-35-4l-1 0c-11-1-24-2-37-2s-25 1-38 2l2 0h-6c-10 0-21 2-33 4-14 3-26 6-38 9l2-1c-11 4-22 7-36 12s-20 7-31 12l-3 2c-12 6-21 11-31 17l2-1-4 2c-11 6-20 12-29 18l1-1-4 3c-6 5-13 10-20 16v48c0 86 69 155 155 155v0h224c86 0 155-69 155-155v0-48c-7-6-13-11-20-16l-4-3c-9-6-18-12-28-17z m-215 740c-100 0-181-81-181-181s81-180 181-180c100 0 181 81 181 180 0 1 0 1 0 1v0c0 100-81 180-181 180v0z m107-180c0-59-48-107-107-107s-107 48-107 107c0 59 48 106 107 106v0c59 0 106-47 107-106v0z" horiz-adv-x="1000" />

</font>
</defs>
</svg>
