<?xml version="1.0" standalone="no"?>
<!DOCTYPE svg PUBLIC "-//W3C//DTD SVG 1.1//EN" "http://www.w3.org/Graphics/SVG/1.1/DTD/svg11.dtd">
<svg xmlns="http://www.w3.org/2000/svg">
<metadata>Copyright (C) 2020 by original authors @ fontello.com</metadata>
<defs>
<font id="fontello" horiz-adv-x="1000" >
<font-face font-family="fontello" font-weight="400" font-stretch="normal" units-per-em="1000" ascent="850" descent="-150" />
<missing-glyph horiz-adv-x="1000" />
<glyph glyph-name="addcomp" unicode="&#xe812;" d="M350 517h33v-34h-33v34z m0-67h33v-33h-33v33z m0-67h33v-33h-33v33z m0-66h33v-34h-33v34z m67 200h33v-34h-33v34z m0-67h33v-33h-33v33z m0-67h33v-33h-33v33z m0-66h33v-34h-33v34z m66 200h34v-34h-34v34z m0-67h34v-33h-34v33z m0-67h34v-33h-34v33z m0-66h34v-34h-34v34z m67 200h33v-34h-33v34z m-133 66h33v-33h-33v33z m66 0h34v-33h-34v33z m67 0h33v-33h-33v33z m0-133h33v-33h-33v33z m0-67h33v-33h-33v33z m0-66h33v-34h-33v34z m67 200h33v-34h-33v34z m0-67h33v-33h-33v33z m0-67h33v-33h-33v33z m0-66h33v-34h-33v34z m366 283h-250v233c0 9-7 17-17 17v0h-433c-9 0-17-8-17-17v0 0-233h-249c-9 0-17-8-17-17v0 0-600c0-9 8-17 17-17v0h35c-1-5-2-11-2-17l0 0v-84c0-9 8-17 18-17v0h865c9 0 17 8 17 17v0 0 85c0 0 0 0 0 1 0 5-1 11-2 17l0-1h35c9 0 17 8 17 17v0 0 599c0 10-8 18-17 18v0z m-266-466c0-19-15-34-34-34s-33 15-33 34c0 18 15 33 33 33v0c0 0 0 0 0 0 19 0 34-15 34-33 0 0 0 0 0 0v0z m-400 33c18 0 33-15 33-34s-15-33-33-33c-19 0-34 15-34 33v0c0 19 15 34 34 34v0z m-100-284h-134v67c0 37 30 67 67 67s67-30 67-67v0z m-100 200c0 19 15 34 33 34s33-15 33-34c0-18-15-33-33-33v0c-18 0-33 15-33 33v0z m102-61c-6 6-13 11-20 15l-1 1c12 12 19 28 19 46 0 36-30 66-67 66s-67-30-67-66c0-18 7-34 19-46l0 0c-16-9-29-22-38-37l0-1h-31v567h234v-391c-11-11-17-26-17-43 0-18 7-34 18-46l0 0c-24-14-42-37-49-65l0 0z m164-138h-133v116c0 37 30 67 67 67s66-30 66-67v0z m200 0h-166v116c2 45 38 80 83 80s81-35 83-80l0 0z m-133 283c0 27 22 50 50 50s50-23 50-50c0-28-22-50-50-50v0c0 0 0 0 0 0-28 0-50 22-50 50 0 0 0 0 0 0v0z m152-110c-12 20-28 36-48 46l0 1c18 15 30 38 30 63 0 47-38 84-84 84s-83-37-83-84c0-20 7-39 19-53l0 0c4-4 7-7 10-10l0 0c-20-11-36-27-47-46l0 0c-9 12-20 22-33 30l-1 0c12 12 19 28 19 46 0 37-30 66-66 66-6 0-13-1-18-2l0 0v619h400v-619c-5 1-11 2-17 2h0c0 0 0 0 0 0-37 0-67-30-67-66 0-18 7-34 19-46l0 0c-14-8-25-18-34-30l0 0z m148-107v-67h-133v117c0 37 29 67 66 67s67-30 67-67v0z m167-67h-134v67c0 37 30 67 67 67s67-30 67-67v0z m-100 200c0 19 15 34 33 34s33-15 33-34c0-18-15-33-33-33v0c-18 0-33 15-33 33v0z m150-83h-31c-9 16-22 29-37 38l-1 0c12 12 19 28 19 46 0 37-30 67-67 67s-67-30-67-67c0-18 7-34 19-46l0 0c-8-4-15-9-21-15l0 0c-7 28-25 52-49 65l0 0c11 12 17 28 17 45 0 17-6 32-16 44l0-1v391h234z m-184 467h34v-267h-34v267z m100 0h34v-267h-34v267z m-800 0h34v-267h-34v267z m100 0h34v-267h-34v267z m417 316h-200c-9 0-17-7-17-17v0 0-133c0-10 7-18 17-18v0h200c10 0 17 8 17 18v0 0 134c0 9-7 17-17 17v0z m-17-133h-166v100h166z" horiz-adv-x="1000" />

<glyph glyph-name="comerc" unicode="&#xe826;" d="M857-33c-10 0-19-8-19-19s9-20 19-20v0c11 0 20 9 20 20s-9 19-20 19v0z m-123 0c-10 0-19-8-19-19s9-20 19-20c11 0 20 9 20 20v0c0 11-9 19-20 19h0z m-117 0c-10 0-19-8-19-19s9-20 19-20c11 0 20 9 20 20v0c0 11-9 19-20 19v0z m-129 0c-10 0-19-8-19-19 0-11 9-20 19-20s20 9 20 20v0c0 11-9 19-20 19 0 0 0 0 0 0v0z m-117 0c-11 0-19-8-19-19s8-20 19-20c11 0 20 9 20 20v0c0 11-9 19-20 19h0z m-117 0c-11 0-19-8-19-19s8-20 19-20c11 0 20 9 20 20v0c0 11-9 19-20 19v0z m-117 0c-11 0-20-8-20-19s9-20 20-20v0c11 0 19 9 19 20s-8 19-19 19v0z m765 79h-25v199c0 0 0 0 0 0 0 11-9 19-19 19 0 0-1 0-1 0h-162c0 0 0 0 0 0-10 0-19-8-19-19 0 0 0 0 0 0v0-199h-168v257c0 0 0 0 0 1 0 35-12 68-32 94l0 0c-19 24-44 43-74 53l-1 1-128 122 399 48c7-8 15-15 23-21l0 0v-63h-19c-8 0-14-5-17-11l0 0-39-78c-2-3-3-6-3-9 0-5 3-10 6-14l78-78c4-4 9-7 15-7 11 0 19 9 19 20 0 6-2 11-6 15l0 0-68 68 27 55h171l28-55-70-68c-3-4-5-9-5-14s2-10 5-14l0 0c4-3 9-6 14-6s11 3 14 6l78 78c4 4 6 9 6 14 0 3-1 6-2 9l0 0-39 78c-3 6-10 10-17 11h-20v63c36 25 59 66 59 112 0 76-61 137-137 137-51 0-96-29-120-71l0-1-476-10c-1 0-1 0-2 0s-2 0-3 0l0 0c-10 3-23 5-36 5-75 0-137-61-137-137 0-73 58-133 130-137l0 0 89-115c-14-23-22-51-22-81 0 0 0 0 0 0v0-257h-98c-53-3-94-46-94-98s41-96 94-98l0 0h804c2 0 3 0 4 0 55 0 98 44 98 98s-43 98-98 98c-1 0-2 0-4 0l0 0z m-90 492h-78v44c12-3 26-5 39-5s28 2 40 6l-1-1z m-129 213v0c16 36 50 60 90 60 54 0 98-44 98-98 0-54-44-97-98-97h0c-17 0-34 5-48 13l0 0c-11 6-21 15-29 25l0 0c-12 17-19 37-19 59 0 14 2 27 7 39l0-1z m32-526h123v-179h-123z m-330 190v0c49-15 84-59 84-112 0-65-53-117-117-117s-117 52-117 117v0c0 0 0 0 0 0 0 65 52 117 117 117 0 0 0 0 0 0h0c12 0 23-2 34-5l-1 0z m84-215v-155h-234v155c28-33 70-53 117-53s88 20 117 53l0 0z m170 539c-1-8-2-16-2-25 0 0 0 0 0-1v0c0 0 0 0 0 0 0-20 4-39 11-55l0 1-376-46c1 6 1 14 1 22v0c0 0 0 0 0 0 0 37-14 71-38 95l0 0z m-506-201c-52 2-94 45-94 97 0 54 44 98 98 98s98-44 98-98c0 0 0 0 0 0v0c0 0 0 0 0 0 0-14-3-27-8-38l0 0c-2-3-3-6-5-9l0 0c-16-28-45-48-78-50l-1 0c-1 0-3 1-5 1s-4-1-5-1l0 0z m42-35c27 9 50 24 67 45l0 0 94-89c-37-4-69-20-93-44l0 0z m769-597c-11-10-26-17-42-17h-804c-31 2-56 27-56 59s25 56 56 58l0 0h804c0 0 0 0 0 0 33 0 59-26 59-58 0-17-7-31-17-42l0 0z m-171 866c0 0 0 0 0 0-32 0-58-26-58-59s26-58 58-58c33 0 59 26 59 58 0 0 0 0 0 0v0c0 33-26 59-59 59v0z m0-78c-10 0-19 9-19 19s9 20 19 20c11 0 20-9 20-20v0c0-10-9-18-20-18 0 0 0 0 0 0h0z m-636 1c-33 0-59-27-59-59s26-59 59-59c32 0 59 26 59 59v0c0 32-27 59-59 59v0z m0-79c-11 0-20 9-20 20s9 19 20 19v0c11 0 19-8 19-19s-8-20-19-20v0z m215-235c0 0 0 0-1 0-43 0-78-35-78-78s35-78 78-78c44 0 79 35 79 78v0c0 0 0 0 0 0 0 43-35 78-78 78h0z m0-117c-22 0-39 18-39 39s17 39 39 39c21 0 39-17 39-39v0c0-21-18-39-39-39v0z" horiz-adv-x="1000" />

<glyph glyph-name="photo" unicode="&#xe851;" d="M526-45c39 0 70 32 70 71s-31 70-70 70c-38 0-70-32-70-70v0c0-39 32-71 70-71h0z m0 106c19 0 35-16 35-35s-16-35-35-35c-19 0-34 16-34 35v0c0 19 15 35 34 35v0z m-70 298h141c9 0 17 8 17 17s-8 17-17 17v0h-141c-9 0-17-7-17-17s8-17 17-17v0z m193-35h-245c-10 0-18-8-18-17s8-18 18-18v0h245c10 0 17 8 17 18s-7 17-17 17v0z m386 456h-88v30c0 0 0 0 0 0 0 22-18 40-40 40 0 0 0 0 0 0h-25c0 0 0 0 0 0-22 0-40-18-40-40 0 0 0 0 0 0l0 0v-30h-88c-9 0-17-8-17-17v0c0-10 8-18 17-18v0h88v-30c0 0 0 0 0-1 0-20 15-36 34-39l1 0v-56c-21-7-35-26-35-49 0 0 0 0 0-1l0 0v-61l-105-79v16c0 0 0 0 0 1 0 20-16 36-36 36 0 0-1 0-1 0l0 0h-121v87c0 10-8 18-17 18s-17-8-17-18v0-87h-35v51c0 10-8 18-17 18s-18-8-18-18v0-51h-120c-1 0-1 0-2 0-19 0-35-16-35-36 0-1 0-1 0-1l0 0v-16l-106 79v61c0 1 0 1 0 1 0 23-14 42-34 49l0 0v56c19 3 34 19 34 39 0 1 0 1 0 1l0 0v30h88c10 0 17 8 17 17v0c0 10-7 17-17 17v0h-90v31c0 0 0 0 0 0 0 22-17 40-39 40-1 0-1 0-1 0h-25c0 0 0 0 0 0-22 0-40-18-40-40 0 0 0 0 0 0v0-30h-88c-9 0-17-8-17-17v0c0-10 8-18 17-18v0h88v-30c0 0 0 0 0-1 0-20 15-36 34-39l1 0v-56c-21-7-35-26-35-49 0 0 0 0 0-1l0 0v-280c0 0 0 0 0 0 0-29 23-52 52-52 0 0 0 0 1 0l0 0c28 0 52 23 52 52v0 66l88-78c-65-40-134-184-141-304v0-83c0 0 0 0 0 0 0-22 18-40 40-40 0 0 1 0 1 0h25c0 0 0 0 0 0 22 0 40 18 40 40 0 0 0 0 0 0v0 65c0 139 112 246 158 246h35v-35h-39c0 0 0 0 0 0-17 0-31-14-31-31 0 0 0 0 0 0v0-218c0 0 0 0 0 0 0-17 14-31 31-31 0 0 0 0 0 0h218c17 0 31 13 33 29l0 1v218c0 0 0 0 0 0 0 18-14 32-31 32 0 0 0 0 0 0h-41v34h35c46 0 158-107 158-245v-65c0 0 0 0 0 0 0-22 18-40 40-40 0 0 0 0 0 0h25c0 0 0 0 0 0 22 0 40 18 40 40 0 0 0 0 0 0l0 0v83c-6 120-76 263-141 304l89 78v-66c0-29 23-53 53-53s52 24 52 53v0 280c0 1 0 1 0 1 0 23-14 42-34 49l0 0v56c19 3 34 19 34 39 0 0 0 1 0 1l0 0v30h88c9 0 17 8 17 17v0c0 10-8 17-17 17v0z m-158 30c0 3 2 5 5 5h25c0 0 0 0 1 0 2 0 4-2 4-5 0 0 0 0 0 0l0 0v-30h-34z m-737 0c0 3 2 5 6 5h24c0 0 1 0 1 0 2 0 5-2 5-5 0 0 0 0 0 0l0 0v-30h-35z m35-65v-30c0 0 0 0 0-1 0-2-2-4-5-4 0 0 0 0 0 0l0 0h-24c-1 0-1 0-1 0-2 0-5 2-5 4 0 0 0 1 1 1l0 0v30z m0-456c0-10-8-18-17-18v0c-10 0-18 8-18 18v0 280c0 10 8 18 18 18v0c9 0 17-8 17-18v0z m35 175l105-77v-75l-104 91z m17-574c0 0 0 0 0 0 0-3-2-5-5-5 0 0 0 0 0 0l0 0h-24c0 0 0 0 0 0-3 0-5 2-5 5 0 0 0 0 0 0l0 0v48h35z m0 83h-35c7 119 79 244 123 274v-11c0-1 0-1 0-2 0-16 12-30 28-32l0 0c-65-57-108-137-115-228l0-1z m403 158v-211h-209v211z m-70 34h-69v35h70z m35 71h-242c-2 0-2 0-2 1l2 209h347c2 0 2 0 2-2v-207c0-2 0-2-2-2z m263-346c0 0 0 0 0-1 0-2-2-4-5-4 0 0 0 0 0 0l0 0h-24c0 0 0 0 0 0-3 0-5 2-5 4 0 1 0 1 0 1l0 0v48h34z m0 82h-35c-8 92-51 172-114 229l-1 0c16 4 28 18 28 35v10c46-30 116-154 123-274z m-121 338v75l105 79v-63z m175-21c0-10-7-18-17-18s-17 8-17 18v0 280c0 10 7 18 17 18s17-8 17-18v0z m0 426c0 0 0 0 0-1 0-2-2-4-5-4 0 0 0 0 0 0l0 0h-25c0 0 0 0 0 0-3 0-5 2-5 4 0 0 0 1 0 1l0 0v30h35z" horiz-adv-x="1063" />

<glyph glyph-name="productionline" unicode="&#xe8dc;" d="M125 455h-42v167a62 62 0 0 0 62 62h501v-42h-500a21 21 0 0 1-20-20z m229-438h-208a62 62 0 0 0-62 62v209h42v-209a21 21 0 0 1 20-20h208z m173-167a21 21 0 0 0-14 6l-507 507a21 21 0 0 0 0 30l119 118a21 21 0 0 0 30 0l506-506a21 21 0 0 0 0-30l-119-119a21 21 0 0 0-15-6m-477 527l477-477 90 90-477 477z m867-485h-62a21 21 0 0 0-21 20v105h-229v42h312a83 83 0 0 0 0-167m-42 42h42a42 42 0 0 1 0 83h-42z m126 41h-42v625a42 42 0 0 1-42 42h-104v42h104a83 83 0 0 0 83-83z m-434 419a21 21 0 0 0-14 6l-86 86a21 21 0 0 0 0 29l317 318a64 64 0 0 0 87 0l29-29a61 61 0 0 0 0-87h0l-318-317a21 21 0 0 0-14-6m-57 107l57-57 302 303a19 19 0 0 1 0 28h0l-29 28a21 21 0 0 1-27 0z m-73-150a21 21 0 0 0-19 27l43 130 40-13-31-91 90 29 13-39-130-42h-6" horiz-adv-x="1001" />

<glyph glyph-name="radiofrequencypermit-1" unicode="&#xe8dd;" d="M540 597a116 116 0 0 1-32-227v-488a31 31 0 0 1 63 0v488a116 116 0 0 1-31 227m0-168a52 52 0 1 0 52 52 52 52 0 0 0-52-52m-210 221a31 31 0 0 1-44 0 251 251 0 0 1 0-354 32 32 0 0 1 44 45 187 187 0 0 0 0 265 31 31 0 0 1 0 45m452-1a32 32 0 0 1-45-45 188 188 0 0 0 0-265 31 31 0 0 1 45-44 251 251 0 0 1 0 354m-579 146a32 32 0 1 1-45 45c-211-211-210-526 0-737a32 32 0 1 1 45 45c-185 184-185 463 0 647m718 45a32 32 0 1 1-45-45c184-184 184-463 0-647a32 32 0 1 1 45-45c210 212 210 526 0 737" horiz-adv-x="1078" />

<glyph glyph-name="redeemmaterials-1" unicode="&#xe8de;" d="M1108 620h0a18 18 0 0 1-1 5h0l-2 3h0l-2 4h-1l-3 2h-1l-436 214a18 18 0 0 1-16 0l-436-212h-1l-2-2h-1l-3-4h0l-2-3h0a18 18 0 0 1-1-4h0v-243l36 7v204l253-122a18 18 0 1 1 16 32l-246 119 129 63 395-196-129-63-51 23a18 18 0 0 1-15-34l48-21v-478l-137 64a268 268 0 0 0-21-29l169-78h15l436 210a18 18 0 0 1 10 16v523h0m-453 192l395-192-111-55-394 194z m-225-109l74 36 394-194-75-37z m491-187v-134l-79-41v136z m151-409l-399-192v478l133 66v-146a18 18 0 0 1 9-15l9-3 9 2 114 59a18 18 0 0 1 10 16v162l115 57z m-802-257a270 270 0 1 0 270 270 270 270 0 0 0-270-270m0 504a234 234 0 1 1 234-234 234 234 0 0 1-234 234m34-354h-77a5 5 0 0 0-4 5v67a5 5 0 0 0 4 5h77a5 5 0 0 0 5-5v-67a5 5 0 0 0-5-5m-72 10h67v58h-67z m72-14h-77a9 9 0 0 0-8 9v67a9 9 0 0 0 8 9h77a9 9 0 0 0 9-9v-67a9 9 0 0 0-9-9m-77 77h-1v-67h80v66h-79z m76-66h-75v64h75z m-67 7h60v50h-60z m184 83v2l-19 133a5 5 0 0 1-5 4h-260a5 5 0 0 1-4-4l-19-134h0v-25a5 5 0 0 1 5-4h297a5 5 0 0 1 5 4v23h0m-280 131h251l18-125h-287z m270-150h-288v15h288z m5-13h-298a9 9 0 0 0-9 8v26l19 134a9 9 0 0 0 9 8h259a9 9 0 0 0 9-8l19-133a6 6 0 0 0 0-2v-25a9 9 0 0 0-9-8m-278 168h0l-19-134v-25h299v24h0l-19 135h-261z m277-159h-295v23h295z m-288 7h281v8h-281z m288 17h-295l19 132h257z m-287 7h279l-17 119h-245z m222-123h-164a5 5 0 0 0-5 5v19a5 5 0 0 0 5 5h164a5 5 0 0 0 4-5v-19a5 5 0 0 0-4-5m-159 10h154v9h-154z m159-13h-164a9 9 0 0 0-9 8v19a9 9 0 0 0 9 9h164a9 9 0 0 0 8-9v-19a9 9 0 0 0-8-8m-164 29h-1v-19h166v19z m162-19h-161v16h161z m-154 7h147v2h-147z m31 121h-1a5 5 0 0 0-5 6l9 86a5 5 0 1 0 10-1l-9-86a5 5 0 0 0-4-5m0-3h-1a9 9 0 0 0-8 10l10 86a9 9 0 1 0 17-2l-10-86a9 9 0 0 0-8-8m9 96h-1l-9-86h2l9 86h-1m-9-93h-72a5 5 0 0 0 0 9h72a5 5 0 0 0 0-9m0-3h-72a9 9 0 0 0 0 17h72a9 9 0 0 0 0-17m-72 10z m81 79h-67a5 5 0 0 0 0 10h67a5 5 0 0 0 0-10m0-4h-67a9 9 0 0 0 0 17h67a9 9 0 1 0 0-17m-67 10z m205-11h-109a5 5 0 0 0 0 10h109a5 5 0 1 0 0-10m0-3h-109a9 9 0 1 0 0 17h109a9 9 0 0 0 0-17m0 9h0m4-29h-116a5 5 0 0 0 0 9h116a5 5 0 0 0 0-9m0-4h-116a9 9 0 1 0 0 17h116a9 9 0 0 0 0-17m-116 9z m120-34h-122a5 5 0 0 0 0 10h122a5 5 0 0 0 0-10m0-3h-122a9 9 0 0 0 0 17h122a9 9 0 0 0 0-17m-122 9z m62-29h-65a5 5 0 0 0 0 9h65a5 5 0 0 0 0-9m0-4h-65a9 9 0 0 0 0 17h65a9 9 0 0 0 0-17m-65 9z m-102-11h-1a5 5 0 0 0-4 6l13 86a5 5 0 0 0 10-1l-14-86a5 5 0 0 0-4-4m0-4h-1a9 9 0 0 0-7 10l13 86a9 9 0 0 0 17-3l-14-86a9 9 0 0 0-8-8m13 96h-1l-13-86h3l14 86h-1" horiz-adv-x="1108" />

<glyph glyph-name="storelicense-1" unicode="&#xe8e0;" d="M818 135l-23 158a27 27 0 0 1-30 22l-69-10-14 102a20 20 0 0 1-39-6l15-103-127-18-4 26a20 20 0 0 1-23 17l-75-11-27 182 76 11 12-86a25 25 0 0 1 28-21l21 4a25 25 0 0 1 22 28l-13 86 75 11 6-39a20 20 0 0 1 39 7l-8 52a27 27 0 0 1-30 22l-168-27-16 111a27 27 0 0 1-30 22l-157-23a27 27 0 0 1-22-30l5-36a20 20 0 1 1 39 6l-3 24 30 4 3-24a25 25 0 0 1 29-21l21 4a25 25 0 0 1 21 28l-3 24 30 4 14-97-46-7a20 20 0 0 1-17-22l9-60-66-10-9 66a20 20 0 0 1-39-6l9-66-39-7a27 27 0 0 1-22-30l17-115-17-3a27 27 0 0 1-22-29l30-204a20 20 0 0 1 20-16h2l39 5a20 20 0 0 1-7 39l-18-3-24 172 99 14 12-78a25 25 0 0 1 29-21l21 3a25 25 0 0 1 21 29l-13 77 98 15 26-171-145-21a20 20 0 1 1 6-39l425 63a20 20 0 0 1 17 22m-265-19l-17 125 75 11 3-24a25 25 0 0 1 29-21l21 4a25 25 0 0 1 21 28l-3 24 75 11 18-125z m-248 233l21 3a25 25 0 0 1 21 29l-3 23 30 5 15-103-131-19-15 102 30 5 4-24a25 25 0 0 1 28-21m417-322a20 20 0 0 1-22 17l-506-71a78 78 0 0 1-39 28l-116 832a20 20 0 1 1-40-6l115-824a77 77 0 1 1 94-75c0 2 0 5 0 7l498 70a20 20 0 0 1 16 22m-591-137a38 38 0 1 0 0-1" horiz-adv-x="819" />

<glyph glyph-name="exhibitionorganizingpermit" unicode="&#xe8e1;" d="M753-74h-301a19 19 0 0 0-18 18v264a19 19 0 0 0 18 18h301a19 19 0 0 0 18-18v-264a19 19 0 0 0-18-18m-282 37h263v226h-263z m735 341a19 19 0 0 1-1 6l-75 523a19 19 0 0 1-19 17h-1016a19 19 0 0 1-19-17l-76-527h0v-95a19 19 0 0 1 19-19h1168a19 19 0 0 1 19 19v89a18 18 0 0 1 0 4m-1096 509h985l69-490h-1123z m1058-587h-1131v59h1131z m-245-376h-640a19 19 0 0 0-19 19v75a19 19 0 0 0 19 19h640a19 19 0 0 0 19-19v-74a19 19 0 0 0-19-19m-621 36h603v39h-603z m132 493h-3a19 19 0 0 0-16 21l37 338a19 19 0 1 0 38-4l-38-338a19 19 0 0 0-18-17m0 0h-281a19 19 0 1 0 0 38h281a19 19 0 0 0 0-38m37 337h-265a19 19 0 0 0 0 37h265a19 19 0 0 0 0-37m576-19h-502a19 19 0 0 0 0 38h502a19 19 0 1 0 0-38m20-93h-534a19 19 0 0 0 0 37h534a19 19 0 1 0 0-37m14-113h-559a19 19 0 0 0 0 38h559a19 19 0 1 0 0-38m-271-93h-300a19 19 0 1 0 0 37h300a19 19 0 1 0 0-37m-658-19h-3a19 19 0 0 0-16 22l54 337a19 19 0 1 0 38-5l-54-338a19 19 0 0 0-19-17" horiz-adv-x="1206" />

<glyph glyph-name="expandimpreq" unicode="&#xe8e2;" d="M682 11h-1a18 18 0 1 1 18-32h1a18 18 0 1 1-18 32m0 68c19 4 33 22 44 61l21 73a18 18 0 0 1 0 10l-9 33a18 18 0 0 1-33 4l-5-12a78 78 0 0 0-9-17 41 41 0 0 0-11-6 51 51 0 0 1-30-29 54 54 0 0 1 0-26 16 16 0 0 0-1-11h0c-6-14-17-39-2-60s22-20 31-20h5m-6 40c-3 5 2 17 5 25h0a51 51 0 0 1 3 30 19 19 0 0 0 0 10c1 3 5 5 12 8l9 4-15-46a111 111 0 0 0-14-32v1m-186 515a18 18 0 1 1-12-35h7a18 18 0 1 1 6 36z m130-653a430 430 0 0 0-212-25 200 200 0 0 0-26-31 465 465 0 0 1 252 22 18 18 0 1 1-13 34m249 635a467 467 0 0 1-809-464 199 199 0 0 0 22 36 427 427 0 0 0-42 132l44 15 75-57 8-3 45-9 4-2 23 2 23-2a56 56 0 0 1-43 37l-41 9-80 60a18 18 0 0 1-16 2l-47-15a431 431 0 0 0 0 49l5-3 3-4a19 19 0 0 1 14-5l33 4 31 5a18 18 0 0 1 12 29l-22 32 32 23a18 18 0 0 1 5 6l49 86 21 21a77 77 0 0 1 14 82 84 84 0 0 1-33 39 432 432 0 0 0 51 34 427 427 0 0 0 210 58l-33-40-120-43a18 18 0 0 1-11-10l-34-82a18 18 0 0 1 1-17l50-70a174 174 0 0 1-22-27l-9-13-6-7a170 170 0 0 1-30-41 109 109 0 0 1 9-109 103 103 0 0 1 97-41l18 3c15 4 20 4 25-1s3-2 3-10a71 71 0 0 1 1-18 58 58 0 0 1 16-25 41 41 0 0 0 6-9c6-13 4-21-2-37l-2-4c-8-25 3-51 13-73a132 132 0 0 0 8-21c17-49 29-59 39-64a38 38 0 0 1 16-3c26 0 54 24 66 40a56 56 0 0 1 11 27 29 29 0 0 0 3 8l5 7a64 64 0 0 1 15 24 40 40 0 0 0 12 20l4 4c25 26 18 46 12 68s4 30 27 52a198 198 0 0 1 30 31c3 4 14 21 7 36s-24 18-37 20a60 60 0 0 0-16 4c-11 7-18 23-25 37l-4 9-8 18a153 153 0 0 1-26 51c-12 12-34 17-52 23l-17 5a19 19 0 0 1-10 1 47 47 0 0 1-20-8 23 23 0 0 1-6-9 207 207 0 0 0-22 13h0a26 26 0 0 1-1 18c-11 21-44 19-51 19h-11l-25-1v1a46 46 0 0 0 44 31h10a18 18 0 0 1 0 37h-10a83 83 0 0 1-71-39l-27 38 27 65 118 42a18 18 0 0 1 8 5l52 66a431 431 0 0 0 375-317l-7-7a49 49 0 0 1-16-36h0l-12 35a46 46 0 0 1-9 14l-22 26a46 46 0 0 1-35 17h-28a26 26 0 0 1-22-41l2-4a202 202 0 0 0-60-36l-37 72v17a18 18 0 0 1-6 13l-34 32-7 4-31 11a18 18 0 0 1-12-34l27-10 25-24v-13a18 18 0 0 1 3-9l47-90a18 18 0 0 1 23-9l14 5a239 239 0 0 1 85 55 18 18 0 0 1 2 22v2h9a9 9 0 0 0 8-3l23-26 1-4 25-68a18 18 0 0 1 13-11h4a18 18 0 0 1 13 5l11 12a57 57 0 0 1 16 27 432 432 0 0 0-162-396 18 18 0 0 1 23-28 467 467 0 0 1 115 599m-679 9l-21-22-2-4-49-84-43-32a18 18 0 0 1-5-25l17-24-24-3-3 3-20 17a431 431 0 0 0 129 244 47 47 0 0 0 29-26 41 41 0 0 0-8-44m149-100c8 5 27 5 41 6h23a18 18 0 0 1 8-23l13-8c14-10 30-20 45-21a30 30 0 0 1 25 10h1a20 20 0 0 1 4 6l9-2c11-4 31-8 35-13a129 129 0 0 0 22-37c2-7 5-14 8-20l4-8c8-19 18-40 38-53a76 76 0 0 1 30-9h4a177 177 0 0 0-23-25c-22-21-50-47-37-88 6-20 6-22-3-33l-4-4a75 75 0 0 1-21-33 29 29 0 0 0-7-12 81 81 0 0 1-11-14 59 59 0 0 1-6-19 22 22 0 0 0-4-11 107 107 0 0 0-24-21 30 30 0 0 0-15-6c-2 3-9 12-20 44-2 8-6 15-10 23s-15 35-12 47l2 4c6 19 12 37 1 64a66 66 0 0 1-13 19 33 33 0 0 0-7 9 39 39 0 0 0-1 9 46 46 0 0 1-14 37c-20 19-43 13-59 9l-13-3a65 65 0 0 0-63 27 72 72 0 0 0-5 74 138 138 0 0 0 23 31l7 8 11 15a132 132 0 0 0 18 23m-62-357a7 7 0 0 1-4 4h-2l-61 4a7 7 0 1 1 0-15l42-2-128-112a8 8 0 1 1 10-11l128 111-3-40a7 7 0 1 1 15-1l4 58a7 7 0 0 1 0 3m-149-141h-1a16 16 0 0 0-9 27l113 99-23 2a16 16 0 0 0 1 31l61-4 5-2a16 16 0 0 0 9-9h0a16 16 0 0 0 0-6l-4-58a16 16 0 1 0-31 1l2 22-112-99a16 16 0 0 0-11-4m73-66a7 7 0 0 1 4-4h2l60-4a7 7 0 1 1 1 14l-42 3 127 112a8 8 0 0 1-10 11l-127-113 2 41a7 7 0 0 1-14 1l-4-59a7 7 0 0 1 0-2m68-17h-1l-60 4-6 2a16 16 0 0 0-8 9h0a16 16 0 0 0-1 5l4 59a16 16 0 1 0 31-2l-1-21 112 99a16 16 0 0 0 20-23l-112-100 23-1a16 16 0 0 0-1-31m-30-95a216 216 0 1 0 216 215 216 216 0 0 0-216-215m0 399a183 183 0 1 1 183-184 183 183 0 0 1-183 184" horiz-adv-x="934" />

<glyph glyph-name="foreignships" unicode="&#xe8e3;" d="M650 239h23a12 12 0 0 0 12-12v-23a12 12 0 0 0-12-12h-23a12 12 0 0 0-12 12v23a12 12 0 0 0 12 12m94 0h23a12 12 0 0 0 12-12v-23a12 12 0 0 0-12-12h-23a12 12 0 0 0-12 12v23a12 12 0 0 0 12 12m-637-236h-27a8 8 0 0 1-8-9v-39l25 3a167 167 0 0 0 36-2h24a24 24 0 0 1 17 31v5a8 8 0 0 0 7 11h1183a8 8 0 0 0 7-12h0a152 152 0 0 0-37-41 196 196 0 0 0 45-22 237 237 0 0 1 32 40l72 144v2a24 24 0 0 1-23 28h-105l-5 2-17 17a8 8 0 0 0 0 10l84 84a8 8 0 0 1 0 10l-23 27a8 8 0 0 0 0 11l54 54a8 8 0 0 1 0 11l-22 22a8 8 0 0 1-10 0l-55-55a8 8 0 0 0-10 0l-26 26a8 8 0 0 1-10 0l-97-97-6-2h-87l-6-2-57-56a8 8 0 0 1-2-6v-47a8 8 0 0 0-8-8h-30a8 8 0 0 0-8 8v63a23 23 0 0 1-3 11l-46 94a23 23 0 0 1-21 13h-16a8 8 0 0 0-9 8v79a8 8 0 0 1-8 8h-30a8 8 0 0 0-8 8v78a8 8 0 0 1-8 8h-32a8 8 0 0 0-8 8v78a8 8 0 0 1-8 8h-124a8 8 0 0 1-8-8v-79a8 8 0 0 0-8-8h-78a8 8 0 0 1-8-8v-7a8 8 0 0 0-14-5l-32 48a8 8 0 0 0-1 4v32a8 8 0 0 0 8 8h102a8 8 0 0 1 9 8v30a8 8 0 0 1-9 8h-23a8 8 0 0 0-6 4l-69 102a8 8 0 0 0 5 12h21a8 8 0 0 1 9 8v31a8 8 0 0 1-9 9h-77a8 8 0 0 0-9 8v30a8 8 0 0 1-8 8h-31a8 8 0 0 1-8-8v-31a8 8 0 0 0-7-7h-79a8 8 0 0 1-8-9v-31a8 8 0 0 1 8-8h21a8 8 0 0 0 5-12l-68-102a8 8 0 0 0-6-4h-23a8 8 0 0 1-8-8v-31a8 8 0 0 1 8-8h102a8 8 0 0 0 8-8v-86a23 23 0 0 1 3-11l24-49a8 8 0 0 0-7-11h-12a8 8 0 0 1-8-8v-79a8 8 0 0 0-8-9h-15a23 23 0 0 1-21-12l-48-94a23 23 0 0 1-2-11v-63a8 8 0 0 0-8-8h-31a8 8 0 0 0-9 8v33a8 8 0 0 1-8 8h-30a8 8 0 0 1-8-8v-32a8 8 0 0 0-8-8h-32a8 8 0 0 0-8 8v32a8 8 0 0 1-8 8h-30a8 8 0 0 1-8-8v-32a8 8 0 0 0-8-8h-21a24 24 0 0 1-17-32l40-98a8 8 0 0 0-7-10m451 654l5-7a8 8 0 0 0-6-12h-5a8 8 0 0 0-8 9v5a8 8 0 0 0 14 5m-163-19h-4a8 8 0 0 0-6 12l4 7a8 8 0 0 0 14-5v-7a8 8 0 0 0-8-8m930-344l27-26a8 8 0 0 0 0-11l-50-50a8 8 0 0 0-11 0l-26 27a8 8 0 0 0 0 10l50 50a8 8 0 0 0 10 0m-215-109l29 28 6 2h69l5-2 56-56a8 8 0 0 0-6-13h-153a8 8 0 0 0-8 8v27a8 8 0 0 0 2 6m-371 384h32a8 8 0 0 0 8-9v-31a8 8 0 0 0-8-8h-32a8 8 0 0 0-8 8v31a8 8 0 0 0 8 9m-94-95h173a8 8 0 0 0 9-8v-31a8 8 0 0 0-9-8h-173a8 8 0 0 0-8 8v31a8 8 0 0 0 8 8m-188 283h31a8 8 0 0 0 8-8v-103a8 8 0 0 0-8-8h-31a8 8 0 0 0-8 8v103a8 8 0 0 0 8 8m0-165h31a8 8 0 0 0 8-8v-44a8 8 0 0 1 2-5l63-97a8 8 0 0 0-5-11h-64a8 8 0 0 0-7 4l-35 70a8 8 0 0 0-1 4v80a8 8 0 0 0 8 8m0-212h408a8 8 0 0 0 8-8v-31a8 8 0 0 0-8-8h-408a8 8 0 0 0-8 8v30a8 8 0 0 0 8 8m-94-188h219a8 8 0 0 1 9 8v31a8 8 0 0 1-9 9h-200a8 8 0 0 0-6 11l15 30a8 8 0 0 0 7 5h526a8 8 0 0 0 7-5l35-69a8 8 0 0 0 1-4v-56a8 8 0 0 0-8-8h-596a8 8 0 0 0-8 8v32a8 8 0 0 0 8 8m1055-105l-16-31a8 8 0 0 0-7-5h-1240a8 8 0 0 0-7 5l-13 31a8 8 0 0 0 7 11h1269a8 8 0 0 0 7-12m-709-235a22 22 0 0 0-15 6c-43 43-84 63-121 58s-80-53-80-54a22 22 0 0 0-34-4c-43 43-83 63-121 58s-80-53-80-54a22 22 0 0 0-34-4c-40 41-82 61-124 58a142 142 0 0 1-63-18c-29-17-56 18-17 39a183 183 0 0 0 77 22c47 3 95-16 139-54a157 157 0 0 0 96 53c46 6 92-13 140-53a157 157 0 0 0 96 53c46 6 92-13 140-53a157 157 0 0 0 96 53c46 6 92-13 140-53a157 157 0 0 0 96 53c46 6 92-13 140-53a157 157 0 0 0 96 53c46 6 92-13 140-53a157 157 0 0 0 96 53c51 6 43-38 6-43s-80-53-80-55a22 22 0 0 0-34-3c-43 43-83 63-121 58s-80-53-80-55a22 22 0 0 0-34-3c-43 43-83 63-120 58s-81-53-81-55a22 22 0 0 0-33-3c-43 43-84 63-121 58s-80-53-80-53a22 22 0 0 0-17-11h-8" horiz-adv-x="1545" />

<glyph glyph-name="inprogress" unicode="&#xe8e4;" d="M261-24h-131a68 68 0 0 0-68 68v707a38 38 0 0 0 37 37h472v-211h211v-64a384 384 0 0 0 62-45v153l-227 227-2 2h-546a69 69 0 0 1-69-69v-767a100 100 0 0 1 100-100h210a387 387 0 0 0-49 62z m372 769l106-106h-106z m-367-350h-84a31 31 0 0 1 0-62h50a386 386 0 0 0 34 62z m-65-213c0 10 1 20 2 31h-21a31 31 0 0 1 0-62h21c-1 10-2 20-2 31z m266 366a31 31 0 0 1-30 29h-255a31 31 0 0 1 0-61h213a382 382 0 0 0 72 32z m119-35a332 332 0 1 1 332-331 332 332 0 0 1-332 331z m0-599a259 259 0 0 0-50 5c-6 1-11 3-17 4a232 232 0 0 0-54 21c-3 2-7 4-10 6a266 266 0 0 0-34 22h0a267 267 0 0 0-45 45h0l0 1a269 269 0 0 0-21 32c-3 4-5 8-6 12a260 260 0 0 0-12 26 246 246 0 0 0-9 28c-1 5-3 10-4 16a264 264 0 0 0-5 50 268 268 0 0 0 267 268 259 259 0 0 0 50-6c6-1 11-2 17-4a237 237 0 0 0 54-21c4-1 7-3 11-6a273 273 0 0 0 33-22h0a267 267 0 0 0 45-45h0l0 0a271 271 0 0 0 21-33c3-4 5-7 7-11a259 259 0 0 0 12-27 253 253 0 0 0 8-27c2-6 3-11 4-16a259 259 0 0 0 6-50 268 268 0 0 0-268-268z m137 298h-107v113a30 30 0 0 1-60 0v-143a30 30 0 0 1 30-31h137a30 30 0 0 1 0 61z" horiz-adv-x="917" />

<glyph glyph-name="inspectionplan" unicode="&#xe8e5;" d="M807 151a18 18 0 0 0-10 3l-233 150a19 19 0 0 0 21 31l232-150a18 18 0 0 0-10-34m10 699h-667a84 84 0 0 1-84-84v-749h-49a17 17 0 0 1-17-17v-66a84 84 0 0 1 84-84h599a84 84 0 0 1 84 84v749h117a17 17 0 0 1 16 17v66a84 84 0 0 1-83 84m-733-967a50 50 0 0 0-50 50v51h566v-50a83 83 0 0 1 17-51z m650 50a50 50 0 1 0-101 0v67a17 17 0 0 1-16 17h-517v749a50 50 0 0 0 50 50h600a83 83 0 0 1-16-50z m132 784h-99v49a50 50 0 1 0 100 0z m-216-152h-72a225 225 0 0 0 18-32h53a16 16 0 0 1 0 32m1-97h-35a222 222 0 0 0 2-31h33a16 16 0 0 1 0 31m-287 50a19 19 0 0 1 0-38h220a193 193 0 0 1-12 38z m0-115a19 19 0 0 1 0-38h209a192 192 0 0 1 12 38z m2-185a224 224 0 1 0 250 193 224 224 0 0 0-250-193m55 414a148 148 0 1 0-1 0" horiz-adv-x="900" />

<glyph glyph-name="internalfactorytests" unicode="&#xe8e6;" d="M817 850h-667a84 84 0 0 1-84-84v-749h-49a17 17 0 0 1-17-17v-66a84 84 0 0 1 84-84h599a84 84 0 0 1 84 84v749h117a17 17 0 0 1 16 17v66a84 84 0 0 1-83 84m-733-967a50 50 0 0 0-50 50v51h566v-50a83 83 0 0 1 17-51z m650 50a50 50 0 1 0-101 0v67a17 17 0 0 1-16 17h-517v749a50 50 0 0 0 50 50h600a83 83 0 0 1-16-50z m132 784h-99v49a50 50 0 1 0 100 0z m-372-114h-285a18 18 0 0 0 0 37h285a18 18 0 0 0 0-37m0-160h-285a18 18 0 0 0 0 37h285a18 18 0 0 0 0-37m0-150h-285a18 18 0 0 0 0 37h285a18 18 0 0 0 0-37m129 292h-27a23 23 0 0 0-23 23v28a23 23 0 0 0 23 23h27a23 23 0 0 0 23-23v-28a23 23 0 0 0-23-23m-23 28h19v18h-19z m23-188h-27a23 23 0 0 0-23 23v27a23 23 0 0 0 23 23h27a23 23 0 0 0 23-23v-27a23 23 0 0 0-23-23m-23 27h19v19h-19z m23-177h-27a23 23 0 0 0-23 23v27a23 23 0 0 0 23 23h27a23 23 0 0 0 23-23v-27a23 23 0 0 0-23-23m-23 27h19v19h-19z" horiz-adv-x="900" />

<glyph glyph-name="materialpermit" unicode="&#xe8e7;" d="M1108 620h0a18 18 0 0 1-1 5h0l-2 3h0l-2 4h-1l-3 2h-1l-436 214a18 18 0 0 1-16 0l-436-212h-1l-2-2h-1l-3-4h0l-2-3h0a18 18 0 0 1-1-4h0v-243l36 7v204l253-122a18 18 0 1 1 16 32l-246 119 129 63 395-196-129-63-51 23a18 18 0 0 1-15-34l48-21v-478l-137 64a268 268 0 0 0-21-29l169-78h15l436 210a18 18 0 0 1 10 16v523h0m-453 192l395-192-111-55-394 194z m-225-109l74 36 394-194-75-37z m491-187v-134l-79-41v136z m151-409l-399-192v478l133 66v-146a18 18 0 0 1 9-15l9-3 9 2 114 59a18 18 0 0 1 10 16v162l115 57z m-802-257a270 270 0 1 0 270 270 270 270 0 0 0-270-270m0 504a234 234 0 1 1 234-234 234 234 0 0 1-234 234m37-111a9 9 0 0 1-5 5h-3l-70 5a9 9 0 1 1-1-17l50-3-148-130a9 9 0 1 1 11-14l148 131-3-47a9 9 0 0 1 17-1l5 68a9 9 0 0 1 0 3m-172-165h-1a18 18 0 0 0-12 32l131 115-27 2a18 18 0 1 0 2 36l70-5 7-2a18 18 0 0 0 9-10h0a18 18 0 0 0 1-7l-3-68a18 18 0 1 0-36 2l2 24-132-114a18 18 0 0 0-12-5m85-76a9 9 0 0 1 5-5h2l70-4a9 9 0 1 1 1 17l-49 3 148 129a9 9 0 1 1-11 14l-148-131 3 47a9 9 0 1 1-17 1l-5-68a9 9 0 0 1 0-3m78-20h0l-71 5-6 2a18 18 0 0 0-10 10h0a18 18 0 0 0-1 7l5 68a18 18 0 1 0 36-2l-2-24 131 114a18 18 0 1 0 24-27l-131-115 26-2a18 18 0 0 0-1-36" horiz-adv-x="1108" />

<glyph glyph-name="materialsandequipment" unicode="&#xe8e8;" d="M1108 620h0a18 18 0 0 1-1 5h0l-2 3h0l-2 4h-1l-3 2h-1l-436 214a18 18 0 0 1-16 0l-436-212h-1l-2-2h-1l-3-4h0l-2-3h0a18 18 0 0 1-1-4h0v-243l36 7v204l253-122a18 18 0 1 1 16 32l-246 119 129 63 395-196-129-63-51 23a18 18 0 0 1-15-34l48-21v-478l-137 64a268 268 0 0 0-21-29l169-78h15l436 210a18 18 0 0 1 10 16v523h0m-453 192l395-192-111-55-394 194z m-225-109l74 36 394-194-75-37z m491-187v-134l-79-41v136z m151-409l-399-192v478l133 66v-146a18 18 0 0 1 9-15l9-3 9 2 114 59a18 18 0 0 1 10 16v162l115 57z m-802-257a270 270 0 1 0 270 270 270 270 0 0 0-270-270m0 504a234 234 0 1 1 234-234 234 234 0 0 1-234 234m125-222h-114v114a12 12 0 0 1-24 0v-114h-114a12 12 0 1 1 0-25h114v-113a12 12 0 1 1 24 0v113h114a12 12 0 0 1 0 25m-125-154a17 17 0 0 0-17 17v108h-109a17 17 0 1 0 0 34h109v109a17 17 0 0 0 34 0v-109h108a17 17 0 0 0 0-34h-108v-109a17 17 0 0 0-17-17m-126 150a8 8 0 1 1 0-15h118v-118a8 8 0 0 1 16 0v118h117a8 8 0 0 1 0 15h-117v119a8 8 0 0 1-16 0v-119z" horiz-adv-x="1108" />

<glyph glyph-name="no-data" unicode="&#xe8e9;" d="M614 348a16 16 0 0 1-16 16h-95a16 16 0 1 1 0-32h95a16 16 0 0 1 16 16m-14 328v79a16 16 0 1 1-31 0v-79a79 79 0 0 1 79-79h142v-300a16 16 0 1 1 32 0v316a16 16 0 0 1-16 16h-158a48 48 0 0 0-48 48m-175-140a16 16 0 0 1-16 16h-95a16 16 0 1 1 0-31h95a16 16 0 0 1 16 15m-111-78a16 16 0 0 1 0-32h32a16 16 0 1 1 0 32z m0-264a16 16 0 1 1 0-31h32a16 16 0 0 1 0 31z m0 421h158a16 16 0 1 1 0 32h-158a16 16 0 0 1 0-32m95-189h158a16 16 0 1 1 0 32h-158a16 16 0 0 1 0-32m31-63h-126a16 16 0 0 1 0-32h126a16 16 0 1 1 0 32m0-95h-126a16 16 0 0 1 0-32h126a16 16 0 1 1 0 32m50-335h-411a48 48 0 0 0-48 47v790a48 48 0 0 0 48 47h499l153-153a16 16 0 1 1 23 23l-158 157a16 16 0 0 1-11 5h-506a79 79 0 0 1-79-79v-790a79 79 0 0 1 79-79h411a16 16 0 1 1 0 32m-255 698a16 16 0 0 1-16 16h-95a16 16 0 0 1-16-16v-95a16 16 0 0 1 16-15h95a16 16 0 0 1 16 15z m-32-79h-63v63h63z m-79-411h95a16 16 0 0 1 16 16v95a16 16 0 0 1-16 16h-95a16 16 0 0 1-16-16v-95a16 16 0 0 1 16-16m16 95h63v-63h-63z m5 100a16 16 0 0 1 11-5h2a16 16 0 0 1 11 7l63 95a16 16 0 0 1-26 17l-52-78-18 18a16 16 0 1 1-23-23z m698-263h-247a36 36 0 0 0-36 36v109a36 36 0 0 0 36 36h247a36 36 0 0 0 36-36v-109a36 36 0 0 0-36-36m-247 159a14 14 0 0 1-14-14v-109a14 14 0 0 1 14-14h247a14 14 0 0 1 14 14v109a14 14 0 0 1-14 14z m247-383h-247a36 36 0 0 0-36 36v109a36 36 0 0 0 36 37h247a36 36 0 0 0 36-37v-109a36 36 0 0 0-36-36m-247 159a14 14 0 0 1-14-14v-108a14 14 0 0 1 14-14h247a14 14 0 0 1 14 14v108a14 14 0 0 1-14 14z m189 142h-131a11 11 0 0 0 0 22h131a11 11 0 0 0 0-22m0-224h-131a11 11 0 1 0 0 22h131a11 11 0 0 0 0-22" horiz-adv-x="879" />

<glyph glyph-name="ownereditrequest" unicode="&#xe8ea;" d="M402 95a94 94 0 0 0 1 15h-143a17 17 0 0 1 0-34h143a139 139 0 0 0-1 19m245-245a245 245 0 1 0 245 245 245 245 0 0 0-245-245m0 457a212 212 0 1 1 212-212 212 212 0 0 1-212 212m-213-334h-400v189a17 17 0 0 1-34 0v-206a17 17 0 0 1 17-18h441a246 246 0 0 0-24 35m-417 301a17 17 0 0 1 17 17v525h706v-495a244 244 0 0 0 34-17v529a17 17 0 0 1-17 17h-740a17 17 0 0 1-17-17v-542a17 17 0 0 1 17-17m548 51a243 243 0 0 0 34 8 221 221 0 0 1-138 145 127 127 0 1 1-144 1 221 221 0 0 1-150-208h34a186 186 0 0 0 364 54m-176 166a93 93 0 1 0 94 92 93 93 0 0 0-94-92m35-295h-295a17 17 0 0 1 0-34h282a241 241 0 0 0 13 34m109-156v-52a11 11 0 0 1 4-8 10 10 0 0 1 7-3h51a10 10 0 0 1 8 3l176 178a11 11 0 0 1 0 15l-51 51a11 11 0 0 1-15 0l-35-35-141-141a12 12 0 0 1-4-8m189 161l35-36-20-20-35 35z m-166-166l129 130 36-35-130-131h-36z" horiz-adv-x="892" />

<glyph glyph-name="ownerregistration-" unicode="&#xe8eb;" d="M402 95a94 94 0 0 0 1 15h-143a17 17 0 0 1 0-34h143a139 139 0 0 0-1 19m245-245a245 245 0 1 0 245 245 245 245 0 0 0-245-245m0 457a212 212 0 1 1 212-212 212 212 0 0 1-212 212m-213-334h-400v189a17 17 0 0 1-34 0v-206a17 17 0 0 1 17-18h441a246 246 0 0 0-24 35m-417 301a17 17 0 0 1 17 17v525h706v-495a244 244 0 0 0 34-17v529a17 17 0 0 1-17 17h-740a17 17 0 0 1-17-17v-542a17 17 0 0 1 17-17m548 51a243 243 0 0 0 34 8 221 221 0 0 1-138 145 127 127 0 1 1-144 1 221 221 0 0 1-150-208h34a186 186 0 0 0 364 54m-176 166a93 93 0 1 0 94 92 93 93 0 0 0-94-92m35-295h-295a17 17 0 0 1 0-34h282a241 241 0 0 0 13 34m345-98h-103v103a11 11 0 0 1-23 0v-103h-103a11 11 0 1 1 0-23h103v-103a11 11 0 1 1 23 0v103h103a11 11 0 0 1 0 23m-114-141a16 16 0 0 0-15 16v98h-99a16 16 0 1 0 0 31h99v99a16 16 0 0 0 31 0v-99h98a16 16 0 1 0 0-31h-98v-99a16 16 0 0 0-16-16m-114 137a7 7 0 0 1 0-14h107v-107a7 7 0 0 1 14 0v107h107a7 7 0 1 1 0 14h-107v108a7 7 0 1 1-14 0v-108z" horiz-adv-x="892" />

<glyph glyph-name="permitdamagerequest" unicode="&#xe8ec;" d="M194 632a17 17 0 0 1-23 0h-1a433 433 0 0 1 611-612 17 17 0 0 1 2 23h-1z m323-369l110-110-110-45z m-33 33v-188l-251 104v228l199-93z m-121 120l-107 51 39 18z m137-466a400 400 0 0 0-316 645l85-85-59-28a17 17 0 0 1-10-15v-267a17 17 0 0 1 10-15l284-117a17 17 0 0 1 13 0l145 60 93-94a400 400 0 0 0-245-84m0 833a433 433 0 0 1-281-103 17 17 0 0 1-2-23h1l588-589a17 17 0 0 1 12-5h0a17 17 0 0 1 12 6 433 433 0 0 1-330 714m-110-253l110 51 244-114-197-93z m377-90v-228l-41-17-154 154z m49-335l-64 64 38 16a17 17 0 0 1 10 15v267a17 17 0 0 1-9 15l-284 133a17 17 0 0 1-15 0l-126-60-111 111a400 400 0 0 0 561-561m38 599a500 500 0 1 1 0-707 500 500 0 0 1 0 707m-24-684a467 467 0 1 0 0 659 467 467 0 0 0 0-659" horiz-adv-x="1000" />

<glyph glyph-name="stockdisclosure" unicode="&#xe8f2;" d="M666-117a252 252 0 1 0 252 253 252 252 0 0 0-252-253m0 471a218 218 0 1 0 0-1m-192-381a253 253 0 0 0-26 36l-253-35a78 78 0 0 1-39 28l-116 832a20 20 0 0 1-40-6l115-824a77 77 0 1 1 94-75c0 2 0 5 0 7z m-342-82a38 38 0 1 0 0-1m431 156a17 17 0 0 0-11 6l-51 51a17 17 0 0 0 23 23l39-39 135 134a17 17 0 0 0 24-23l-147-147a17 17 0 0 0-12-6m267 176a17 17 0 0 1-24 0l-134-134-13 13-24-24 26-25a17 17 0 0 1 23 0l146 147a17 17 0 0 1 0 23m-171 204a20 20 0 0 1-17-22l3-15h39l-3 21a20 20 0 0 1-22 17m-242-329l-46-7a20 20 0 1 1 5-39l49 7a249 249 0 0 0-9 39m-54 62l21 3a25 25 0 0 1 21 29l-12 76 64 10a253 253 0 0 0 40 46l-67-10-27 183 76 10 12-86a25 25 0 0 1 28-21l21 4a25 25 0 0 1 22 28l-13 86 75 11 6-39a20 20 0 0 1 39 7l-8 52a27 27 0 0 1-30 22l-168-27-16 111a27 27 0 0 1-30 22l-157-23a27 27 0 0 1-22-30l5-36a20 20 0 1 1 39 6l-3 24 30 4 3-24a25 25 0 0 1 29-21l21 4a25 25 0 0 1 21 28l-3 24 30 4 14-97-46-7a20 20 0 0 1-17-22l9-60-66-10-9 66a20 20 0 0 1-39-6l9-66-39-7a27 27 0 0 1-22-30l17-115-17-3a27 27 0 0 1-22-29l30-204a20 20 0 0 1 20-16h2l39 5a20 20 0 0 1-7 39l-18-3-24 172 99 14 12-78a25 25 0 0 1 29-21m-104 130l-15 102 30 5 4-24a25 25 0 0 1 28-21l21 3a25 25 0 0 1 21 29l-3 23 30 5 15-103z" horiz-adv-x="917" />

<glyph glyph-name="stopped" unicode="&#xe8f3;" d="M586 513a332 332 0 1 1 332-331 332 332 0 0 1-332 331z m268-331a268 268 0 0 0-268-268 262 262 0 0 0-164 58l374 374a263 263 0 0 0 58-164z m-477-165a262 262 0 0 0-58 165 268 268 0 0 0 267 267 263 263 0 0 0 165-58z m-116-41h-131a68 68 0 0 0-68 68v707a38 38 0 0 0 37 37h472v-211h211v-64a384 384 0 0 0 62-45v153l-227 227-2 2h-546a69 69 0 0 1-69-69v-767a100 100 0 0 1 100-100h210a387 387 0 0 0-49 62z m372 769l106-106h-106z m-367-350h-84a31 31 0 0 1 0-62h50a386 386 0 0 0 34 62z m-65-213c0 10 1 21 2 31h-21a31 31 0 0 1 0-62h21c-1 10-2 20-2 31z m266 366a31 31 0 0 1-31 29h-254a31 31 0 0 1 0-61h213a382 382 0 0 0 72 32z" horiz-adv-x="918" />

<glyph glyph-name="supplier" unicode="&#xe8f5;" d="M402 95a94 94 0 0 0 1 15h-143a17 17 0 0 1 0-34h143a139 139 0 0 0-1 19m245-245a245 245 0 1 0 245 245 245 245 0 0 0-245-245m0 457a212 212 0 1 1 212-212 212 212 0 0 1-212 212m-213-334h-400v189a17 17 0 0 1-34 0v-206a17 17 0 0 1 17-18h441a246 246 0 0 0-24 35m-417 301a17 17 0 0 1 17 17v525h706v-495a244 244 0 0 0 34-17v529a17 17 0 0 1-17 17h-740a17 17 0 0 1-17-17v-542a17 17 0 0 1 17-17m548 51a243 243 0 0 0 34 8 221 221 0 0 1-138 145 127 127 0 1 1-144 1 221 221 0 0 1-150-208h34a186 186 0 0 0 364 54m-176 166a93 93 0 1 0 94 92 93 93 0 0 0-94-92m35-295h-295a17 17 0 0 1 0-34h282a241 241 0 0 0 13 34m265 11a8 8 0 0 1-4 4h-3l-64 4a8 8 0 0 1 0-15l44-3-134-118a8 8 0 1 1 10-12l135 119-3-43a8 8 0 0 1 15-1l5 62a8 8 0 0 1 0 3m-157-150h-1a16 16 0 0 0-9 29l119 104-24 2a16 16 0 0 0 1 33l64-4 6-2a16 16 0 0 0 9-10h0a16 16 0 0 0 0-6l-4-62a16 16 0 0 0-33 2l2 22-119-104a16 16 0 0 0-12-4m78-69a8 8 0 0 1 4-4h3l63-4a8 8 0 1 1 1 15l-45 2 135 119a8 8 0 1 1-11 12l-134-119 3 43a8 8 0 0 1-16 1l-4-62a8 8 0 0 1 0-3m71-18h-1l-63 4-6 2a16 16 0 0 0-9 10h0a16 16 0 0 0-1 6l5 62a16 16 0 1 0 32-2l-1-22 119 104a17 17 0 1 0 22-25l-120-104 24-2a16 16 0 0 0-1-33" horiz-adv-x="892" />

<glyph glyph-name="systemmang" unicode="&#xe8f6;" d="M979 196l-47 19-17 42 19 47a17 17 0 0 1-3 18l-55 54a17 17 0 0 1-18 4l-46-20-42 17-19 47a17 17 0 0 1-16 10h-77a17 17 0 0 1-15-10l-20-47-41-17-47 19a17 17 0 0 1-18-3l-54-55a17 17 0 0 1-4-18l19-46-17-42-46-19a17 17 0 0 1-10-16v-76a17 17 0 0 1 10-16l46-19 17-42-19-46a17 17 0 0 1 4-19l54-53a17 17 0 0 1 19-4l46 19 42-17 19-46a17 17 0 0 1 15-11h77a17 17 0 0 1 16 11l19 46 42 17 46-19a17 17 0 0 1 18 4l55 54a17 17 0 0 1 4 18l-19 47 17 41 46 20a17 17 0 0 1 10 15v77a17 17 0 0 1-10 15m-23-81l-43-18a17 17 0 0 1-9-9l-22-54a17 17 0 0 1 0-13l17-43-39-38-42 17a17 17 0 0 1-13 0l-54-22a17 17 0 0 1-9-9l-18-42h-55l-18 42a17 17 0 0 1-9 9l-54 22a17 17 0 0 1-12 0l-43-17-39 39 18 42a16 16 0 0 1 0 13l-23 54a17 17 0 0 1-9 9l-42 18v55l42 17a17 17 0 0 1 9 9l23 55a17 17 0 0 1 0 12l-18 43 39 39 43-18a17 17 0 0 1 12 0l54 23a17 17 0 0 1 9 9l18 42h55l18-42a17 17 0 0 1 9-9l54-23a17 17 0 0 1 13 0l43 18 38-39-17-43a17 17 0 0 1 0-12l22-55a17 17 0 0 1 9-9l43-17z m-259 194a167 167 0 1 1 166-167 167 167 0 0 1-166 167m0-300a133 133 0 1 0 133 133 133 133 0 0 0-133-133m-41 760l-32 31a17 17 0 0 1-17 4l-47-15-18 8-23 44a17 17 0 0 1-15 9h-44a17 17 0 0 1-15-9l-23-44-18-8-48 15a17 17 0 0 1-16-4l-32-31a17 17 0 0 1-4-17l15-48-8-18-44-23a17 17 0 0 1-9-14v-45a17 17 0 0 1 9-15l44-22 8-19-15-47a17 17 0 0 1 4-17l32-32a17 17 0 0 1 16-4l48 15 18-7 23-44a17 17 0 0 1 15-9h44a17 17 0 0 1 15 9l23 44 18 7 48-15a17 17 0 0 1 16 5l32 31a17 17 0 0 1 4 17l-15 47 8 19 44 23a17 17 0 0 1 9 14v45a17 17 0 0 1-9 15l-44 22-8 19 15 47a17 17 0 0 1-4 17m16-130v-25l-40-20a17 17 0 0 1-8-9l-12-29a17 17 0 0 1-1-12l14-43-17-17-43 13a17 17 0 0 1-12 0l-29-12a17 17 0 0 1-9-8l-21-40h-24l-21 40a17 17 0 0 1-8 8l-30 12a17 17 0 0 1-11 0l-44-13-17 17 14 43a17 17 0 0 1 0 11l-13 30a17 17 0 0 1-7 8l-41 21v25l41 20a17 17 0 0 1 7 9l13 30a17 17 0 0 1 0 11l-14 43 17 17 43-13a17 17 0 0 1 12 0l29 12a17 17 0 0 1 9 8l21 40h24l21-40a17 17 0 0 1 8-8l30-12a17 17 0 0 1 11 0l43 13 17-17-13-43a17 17 0 0 1 0-11l12-30a17 17 0 0 1 8-9z m-267-369a17 17 0 0 1-9 15l-43 23-5 12 15 47a17 17 0 0 1-5 17l-25 25a17 17 0 0 1-16 4l-47-15-13 5-22 44a17 17 0 0 1-15 9h-35a17 17 0 0 1-15-9l-22-44-13-5-46 15a17 17 0 0 1-17-5l-25-24a17 17 0 0 1-4-17l15-47-6-13-43-22a17 17 0 0 1-9-15v-35a17 17 0 0 1 9-15l43-22 5-13-15-47a17 17 0 0 1 5-16l25-25a17 17 0 0 1 17-4l46 14 13-5 22-43a17 17 0 0 1 15-9h36a17 17 0 0 1 14 9l23 43 13 5 46-15a17 17 0 0 1 17 5l25 25a17 17 0 0 1 4 17l-15 46 5 13 44 22a17 17 0 0 1 9 15z m-33-25l-40-21a17 17 0 0 1-7-8l-10-24a17 17 0 0 1-1-11l14-43-11-11-42 14a17 17 0 0 1-12 0l-24-10a17 17 0 0 1-8-8l-21-40h-15l-20 40a17 17 0 0 1-9 8l-24 9a17 17 0 0 1-11 1l-43-14-10 11 13 42a17 17 0 0 1 0 12l-10 24a17 17 0 0 1-8 8l-40 21v15l40 21a17 17 0 0 1 8 8l10 24a17 17 0 0 1 0 12l-14 42 11 11 43-14a17 17 0 0 1 11 1l24 9a17 17 0 0 1 8 8l21 40h15l21-40a17 17 0 0 1 8-8l24-9a17 17 0 0 1 11-1l43 14 11-11-15-43a17 17 0 0 1 1-11l10-24a17 17 0 0 1 7-8l40-21z m110 498a117 117 0 1 1 117-117 117 117 0 0 1-117 117m0-200a83 83 0 1 0 83 83 83 83 0 0 0-83-83m-279-207a83 83 0 1 1 83-83 83 83 0 0 1-83 83m0-133a50 50 0 1 0 50 50 50 50 0 0 0-50-50m664 211l33 5a418 418 0 0 1-133 242l-23-25a384 384 0 0 0 123-222m-777 55l32-9a383 383 0 0 0 113 178l-22 25a416 416 0 0 1-123-194m168-466a413 413 0 0 1 144-61l7 33a380 380 0 0 0-132 56z" horiz-adv-x="989" />

<glyph glyph-name="userrecrequest" unicode="&#xe8f7;" d="M597 385a242 242 0 0 1-91 58 140 140 0 1 1-159 0 243 243 0 0 1-162-230h38a204 204 0 1 0 408 0h38a241 241 0 0 1-71 171m-172 72a102 102 0 1 0 102 102 102 102 0 0 0-102-102m404-427a19 19 0 0 0-19 19v764h-773v-575a19 19 0 0 0-38 0v594a19 19 0 0 0 19 19h811a19 19 0 0 0 19-19v-783a19 19 0 0 0-19-19m0-179h-811a19 19 0 0 0-19 19v226a19 19 0 0 0 38 0v-207h773v207a19 19 0 0 0 38 0v-226a19 19 0 0 0-19-19m-104 245h-584a19 19 0 0 0 0 38h584a19 19 0 0 0 0-38m-158-94h-283a19 19 0 0 0 0 38h283a19 19 0 0 0 0-38" horiz-adv-x="849" />

<glyph glyph-name="airshipcompanies" unicode="&#xe8f8;" d="M972 600a78 78 0 0 1-91 48l-53 32a77 77 0 0 1-66 7l-194-72-160 225a15 15 0 0 1-18 5l-86-31a15 15 0 0 1-9-20l89-245-192-71-103 115a15 15 0 0 1-17 4l-59-21a15 15 0 0 1-9-20l85-232a15 15 0 0 1 15-9h0l326 5h4l30 10 84-232a15 15 0 0 1 15-10h5l87 32a15 15 0 0 1 10 16l-21 261 283 104a77 77 0 0 1 46 99m-644 190l61 22 148-208-124-45z m-248-354l-42 116 34 13 88-99z m492-311l-107 289 141 52 27-319z m344 405l-276-101-5 59a15 15 0 0 1-7 12 16 16 0 0 1-13 1l-174-64a15 15 0 0 1-9-19l21-58-26-9-313-5-24 62 682 250a46 46 0 0 0 39-4l15-9-45-16 10-30 69 25 11-7a15 15 0 0 1 13-1 46 46 0 0 0 32-86m-353-444a19 19 0 0 0-18 12l-83 229-26-9h-6l-327-7h0a19 19 0 0 0-18 12l-85 232a19 19 0 0 0 11 25l58 21a19 19 0 0 0 21-4l102-115 188 68-90 243a19 19 0 0 0 12 24l86 32a19 19 0 0 0 22-6l158-224 191 71a81 81 0 0 0 70-7l52-31a82 82 0 0 0 94-51h0a81 81 0 0 0-48-103l-281-103 22-256a19 19 0 0 0-12-20l-87-32h-6z m-98 250l86-235a12 12 0 0 1 12-8h3l87 32a12 12 0 0 1 8 13l-22 262 286 104a74 74 0 0 1-43 141h-2l-55 33a74 74 0 0 1-63 5l-196-72-162 227a12 12 0 0 1-13 5l-87-33a12 12 0 0 1-6-15l91-248-199-74-105 118a12 12 0 0 1-13 3l-58-21a12 12 0 0 1-7-15l84-232a12 12 0 0 1 12-7h0l327 4h3z m105-215v4l-108 292 148 54 28-325z m-100 291l104-283 55 21-26 311z m-359-70l-24 68h3l681 251a50 50 0 0 0 43-4l21-13-49-18 8-23 67 25 12-8a12 12 0 0 1 11-1 50 50 0 1 0 35-93h0l-282-102-6 64a12 12 0 0 1-16 11l-173-64a12 12 0 0 1-7-16l23-62-31-11z m-16 63l21-56 310 4 22 9-19 55a19 19 0 0 0 11 23l173 64a19 19 0 0 0 26-16l5-54 270 99a43 43 0 0 1-29 81 19 19 0 0 0-16 1l-10 6-69-25-14 35 42 16-9 4a42 42 0 0 1-36 4z m-17 28l-45 122 40 14 94-104z m-36 117l40-109 72 27-83 93z m369 4v4l-88 235 67 24 153-215z m-78 234l82-225 116 42-143 204z m356-230l-13 36 35 13 14-36z m-4 31l8-23 23 9-8 23z m-55-53l-13 36 36 13 13-36z m-3 31l8-22 23 8-9 23z m-54-51l-13 35 35 14 14-36z m-4 31l9-23 22 9-8 22z m-54-53l-13 36 36 13 13-36z m-3 31l8-23 23 9-9 22z m-55-52l-13 36 36 12 13-36z m-4 31l9-22 22 8-8 23z m-53-53l-14 36 36 13 13-35z m-4 32l8-23 23 8-9 23z m-55-52l-12 35 36 13 13-36z m-4 31l9-23 22 9-8 22z m-53-53l-14 36 36 13 13-36z m-4 31l8-22 22 8-8 23z m-55-53l-13 36 36 13 13-35z m-4 32l9-23 23 8-9 23z m69-272h95a46 46 0 1 1 0 31h-95a93 93 0 0 1 1-185h261v31h-262a62 62 0 0 0 0 123m139 31a16 16 0 1 1 0-1m-139-188a96 96 0 1 0 0 192h93a50 50 0 0 0 47 31h0a50 50 0 1 0 0-100h0a50 50 0 0 0-47 31h-93a58 58 0 0 1 0-116h266v-37h-266z m139 217h0a42 42 0 0 1-40-29v-3h-99a89 89 0 1 1 0-178h259v25h-259a65 65 0 1 0 0 130h98v-2a42 42 0 0 1 40-28h0a43 43 0 0 1 0 85m0-61a19 19 0 0 0 0 38h0a19 19 0 0 0 0-38z m0 31a12 12 0 0 1 0-23h0a12 12 0 0 1 0 23z m151-186v37h38v-37z m7 31v-24h24v24z m189 4h-131v-32h131a39 39 0 0 0 0-77h-484v-31h485a70 70 0 0 1 0 139m-489-143v38h489a35 35 0 0 1 0 70h-134v38h134a73 73 0 0 0 0-147z m7 31v-23h482a66 66 0 1 1 0 132h-128v-24h128a42 42 0 0 0 0-84z m-219 34a46 46 0 1 1 44-61h141v30h-141a46 46 0 0 1-44 31m0-61a15 15 0 1 0 15 15 15 15 0 0 0-15-15m0-35a50 50 0 1 0 0 100h0a50 50 0 0 0 47-31h142v-38h-142a50 50 0 0 0-47-31z m0 93a43 43 0 1 1 0-86h0a42 42 0 0 1 40 28v2h141v25h-140v2a42 42 0 0 1-40 29z m0-62a19 19 0 1 0 19 19 19 19 0 0 0-19-19z m0 31h0a12 12 0 0 1 0-23h0a12 12 0 0 1 0 23" horiz-adv-x="981" />

<glyph glyph-name="branchcancellation" unicode="&#xe8f9;" d="M481 733h-117a14 14 0 0 1 0-27h117a14 14 0 1 1 0 27m0-58h-117a14 14 0 0 1 0-27h117a14 14 0 1 1 0 27m0-58h-117a14 14 0 0 1 0-28h117a14 14 0 1 1 0 28m-204-395h-59a14 14 0 0 1 0-27h59a14 14 0 0 1 0 27m0-175h-59a14 14 0 0 1 0-27h59a14 14 0 0 1 0 27m175 0h-58a14 14 0 0 1 0-27h58a14 14 0 0 1 0 27m10-43h-114v147h31v-73a14 14 0 0 1 15-14h49a267 267 0 0 0-4 27h-32v60h31v-5a265 265 0 0 0 6 33h-96v161a14 14 0 0 1-14 14h-161v118h498v-88l28 2v86h15a14 14 0 0 1 14 15v57a14 14 0 0 1-13 14h-584a14 14 0 0 1-14-14v-58a14 14 0 0 1 14-14h15v-468h-119v548l396 268 395-268v-191l28-15v213a14 14 0 0 1-6 11l-410 277a14 14 0 0 1-15 0l-409-277a14 14 0 0 1-6-11v-570a14 14 0 0 1 14-14h463a268 268 0 0 0-15 28m-230 324h31v-61h-31z m-88 204h557v-31h-557z m177-527h-148v147h31v-73a14 14 0 0 1 14-14h59a14 14 0 0 1 14 14v73h31z m-89 147h31v-60h-31z m89 28h-148v148h31v-74a14 14 0 0 1 14-14h59a14 14 0 0 1 14 14v74h31z m383-329a268 268 0 1 0 269 268 268 268 0 0 0-269-268m0 501a232 232 0 1 0 0-1" horiz-adv-x="973" />

<glyph glyph-name="branchrrec" unicode="&#xe8fa;" d="M960 530l-468 317a15 15 0 0 1-17 0l-468-317a16 16 0 0 1-7-13v-652a16 16 0 0 1 16-16h935a16 16 0 0 1 16 16v652a16 16 0 0 1-6 13m-593-648h-170v169h36v-84a16 16 0 0 1 16-16h67a16 16 0 0 1 16 16v84h35z m-202 603h635v-36h-636z m100-434h36v-69h-37z m102 31h-170v169h36v-85a16 16 0 0 1 16-16h67a16 16 0 0 1 16 16v85h35z m-103 169h36v-69h-36z m303-369h-169v169h35v-84a16 16 0 0 1 16-16h67a16 16 0 0 1 16 16v84h36z m-103 169h36v-69h-36z m470-169h-136v335a16 16 0 1 1-31 0v-335h-169v184a16 16 0 0 1-16 16h-184v184a16 16 0 0 1-17 16h-184v136h570v-135a16 16 0 1 1 31 0v135h18a16 16 0 0 1 16 16v66a16 16 0 0 1-15 16h-668a16 16 0 0 1-16-16v-67a16 16 0 0 1 16-16h17v-535h-136v627l453 307 452-307z m-385 834h-133a16 16 0 0 1 0-31h133a16 16 0 1 1 0 31m0-66h-133a16 16 0 0 1 0-32h133a16 16 0 1 1 0 32m0-67h-133a16 16 0 0 1 0-31h133a16 16 0 1 1 0 31m-233-451h-67a16 16 0 0 1 0-32h67a16 16 0 0 1 0 32m0-201h-67a16 16 0 0 1 0-31h67a16 16 0 0 1 0 31m200 0h-67a16 16 0 0 1 0-31h67a16 16 0 0 1 0 31" horiz-adv-x="966" />

<glyph glyph-name="canceluser" unicode="&#xe8fc;" d="M402 95a94 94 0 0 0 1 15h-143a17 17 0 0 1 0-34h143a139 139 0 0 0-1 19m245-245a245 245 0 1 0 245 245 245 245 0 0 0-245-245m0 457a212 212 0 1 1 212-212 212 212 0 0 1-212 212m-213-334h-400v189a17 17 0 0 1-34 0v-206a17 17 0 0 1 17-18h441a246 246 0 0 0-24 35m-417 301a17 17 0 0 1 17 17v525h706v-495a244 244 0 0 0 34-17v529a17 17 0 0 1-17 17h-740a17 17 0 0 1-17-17v-542a17 17 0 0 1 17-17m548 51a243 243 0 0 0 34 8 221 221 0 0 1-138 145 127 127 0 1 1-144 1 221 221 0 0 1-150-208h34a186 186 0 0 0 364 54m-176 166a93 93 0 1 0 94 92 93 93 0 0 0-94-92m35-295h-295a17 17 0 0 1 0-34h282a241 241 0 0 0 13 34" horiz-adv-x="892" />

<glyph glyph-name="contractapproval" unicode="&#xe8fd;" d="M613 619h-363a17 17 0 0 0 0 34h363a17 17 0 0 0 0-34m0-107h-363a17 17 0 0 0 0 34h363a17 17 0 0 0 0-34m0-107h-363a17 17 0 0 0 0 35h363a17 17 0 0 0 0-35m0-106h-121a17 17 0 0 0 0 35h121a17 17 0 0 0 0-35m190 551h-625a79 79 0 0 1-79-79v-480a241 241 0 0 0 31 24v456a47 47 0 0 0 47 47h564a78 78 0 0 1-16-47v-781a47 47 0 1 0-94 0v63a16 16 0 0 1-15 16h-119a239 239 0 0 0-7-31h110v-47a78 78 0 0 1 16-47h-181a244 244 0 0 0-35-31h279a79 79 0 0 1 78 79v702h110a16 16 0 0 1 15 15v62a79 79 0 0 1-79 79m47-125h-94v46a47 47 0 1 0 95 0z m-591-875a259 259 0 1 0 259 259 259 259 0 0 0-259-259m0 484a225 225 0 1 1 225-225 225 225 0 0 1-225 225m-98-324a17 17 0 0 0-12 5l-53 53a17 17 0 0 0 24 24l41-41 138 139a17 17 0 1 0 24-25l-150-150a17 17 0 0 0-12-5m274 180a17 17 0 0 1-24 0l-138-139-14 14-24-24 26-26a17 17 0 0 1 24 0l150 150a17 17 0 0 1 0 25" horiz-adv-x="882" />

<glyph glyph-name="contractregistration" unicode="&#xe8fe;" d="M613 619h-363a17 17 0 0 0 0 34h363a17 17 0 0 0 0-34m0-107h-363a17 17 0 0 0 0 34h363a17 17 0 0 0 0-34m0-107h-363a17 17 0 0 0 0 35h363a17 17 0 0 0 0-35m0-106h-121a17 17 0 0 0 0 35h121a17 17 0 0 0 0-35m190 551h-625a79 79 0 0 1-79-79v-480a241 241 0 0 0 31 24v456a47 47 0 0 0 47 47h564a78 78 0 0 1-16-47v-781a47 47 0 1 0-94 0v63a16 16 0 0 1-15 16h-119a239 239 0 0 0-7-31h110v-47a78 78 0 0 1 16-47h-181a244 244 0 0 0-35-31h279a79 79 0 0 1 78 79v702h110a16 16 0 0 1 15 15v62a79 79 0 0 1-79 79m47-125h-94v46a47 47 0 1 0 95 0z m-591-875a259 259 0 1 0 259 259 259 259 0 0 0-259-259m0 484a225 225 0 1 1 225-225 225 225 0 0 1-225 225m116-212h-104v104a11 11 0 1 1-22 0v-104h-104a11 11 0 0 1 0-22h104v-104a11 11 0 1 1 22 0v104h104a11 11 0 1 1 0 22m-114-142a16 16 0 0 0-16 16v99h-99a16 16 0 0 0 0 32h99v98a16 16 0 0 0 31 0v-98h99a16 16 0 1 0 0-32h-99v-99a16 16 0 0 0-15-16m-115 138a7 7 0 1 1 0-14h108v-108a7 7 0 1 1 14 0v108h107a7 7 0 0 1 0 14h-107v107a7 7 0 1 1-14 0v-107z" horiz-adv-x="882" />

<glyph glyph-name="crossforces" unicode="&#xe8ff;" d="M1387 305l-339 43v121a47 47 0 0 1-47 47h-25v45a51 51 0 0 1-47 51v71h24a47 47 0 0 1 48 47h118a24 24 0 0 1 0 47h-118a47 47 0 0 1-48 48h-262a24 24 0 1 1-47 0v-142a24 24 0 0 1 47 0h95v-71a51 51 0 0 1-47-51v-44h-295l-398-156a71 71 0 0 1-46-68v-181a47 47 0 0 1 47-47h7a166 166 0 0 1 44-167h-74a24 24 0 1 1 0-47h810a24 24 0 0 1 0 47h-504a166 166 0 0 1 43 167h18l41-61a24 24 0 0 1 21-11h523a24 24 0 0 1 21 11l41 61h17a166 166 0 0 1 44-167h-170a24 24 0 0 1 0-47h477a24 24 0 1 1 0 47h-74a166 166 0 0 1 43 167h8a47 47 0 0 1 47 47v145a47 47 0 0 1-42 48m-697 474h261v-25h0v-22h-261z m190-167h-47v71h47z m-96-51a4 4 0 0 0 4 4h136a4 4 0 0 0 4-4v-44h-144z m-722-245l318 124v-161h-334v14a24 24 0 0 0 16 23m151-418a119 119 0 1 0 119 119 119 119 0 0 0-119-119m0 285a167 167 0 0 1-136-71h-31v119h334v-119h-30a167 167 0 0 1-137 71m214-87v361l28 12h235v-428h-226z m536-55h-226v428h263v-373z m251-143a119 119 0 1 0 118 119 119 119 0 0 0-118-119m167 214h-31a166 166 0 0 1-273 0h-30v187l334-42z m-1168-24a71 71 0 1 1 72-71 71 71 0 0 1-72 71m0-96a24 24 0 1 0 24 25 24 24 0 0 0-24-25m1001 96a71 71 0 1 1 71-71 71 71 0 0 1-71 71m0-96a24 24 0 1 0 24 25 24 24 0 0 0-24-25m-286 430h-120a24 24 0 0 1-24-24v-96a24 24 0 0 1 24-24h119a24 24 0 0 1 24 24v96a24 24 0 0 1-24 24m-23-96h-71v47h71z m-286 96h-119a24 24 0 0 1-25-24v-96a24 24 0 0 1 25-24h118a24 24 0 0 1 24 24v96a24 24 0 0 1-24 24m-24-96h-70v47h71z" horiz-adv-x="1429" />

<glyph glyph-name="employeelicenserequest" unicode="&#xe900;" d="M762 307a265 265 0 0 1-101 63 153 153 0 1 1-173 0 266 266 0 0 1-178-251h41a224 224 0 0 0 448 0h42a264 264 0 0 1-78 188m-188 78a112 112 0 1 0 112 112 112 112 0 0 0-112-112m511-119a197 197 0 0 1-64 44 118 118 0 1 1-153 0 196 196 0 0 1-42-25 241 241 0 0 0 22-37 156 156 0 0 0 252-122v-7h43v7a198 198 0 0 1-58 140m-141 59a75 75 0 1 0 75 75 75 75 0 0 0-75-75m-945-199v-7h43v7a156 156 0 0 0 253 122 242 242 0 0 0 22 37 196 196 0 0 1-42 25 118 118 0 1 1-153 0 200 200 0 0 1-123-184m125 274a75 75 0 1 0 75-75 75 75 0 0 0-75 75m816 183a17 17 0 0 0-17 17v216h-707v-216a17 17 0 0 0-34 0v233a17 17 0 0 0 17 17h741a17 17 0 0 0 18-17v-233a17 17 0 0 0-18-17m0-733h-741a17 17 0 0 0-17 17v207a17 17 0 0 0 34 0v-190h707v190a17 17 0 0 0 35 0v-207a17 17 0 0 0-18-17" horiz-adv-x="1145" />

<glyph glyph-name="ended" unicode="&#xe901;" d="M129-22a68 68 0 0 0-67 68v705a38 38 0 0 0 37 38h471v-211h211v-64a383 383 0 0 0 61-45v152l-226 227-3 2h-544a69 69 0 0 1-69-69v-765a99 99 0 0 1 99-100h210a386 386 0 0 0-49 62z m503 767l105-105h-105z m-367-349h-84a31 31 0 0 1 0-62h51a385 385 0 0 0 33 62z m-84-182a31 31 0 0 1 0-62h21c0 10-1 20-1 31s1 20 2 31z m285 334a31 31 0 0 1-30 30h-255a31 31 0 0 1 0-62h213a381 381 0 0 0 72 32z m421-335a30 30 0 0 1-30-30 273 273 0 1 0-125 230 30 30 0 0 1 32 51 333 333 0 1 1 154-281 30 30 0 0 1-31 30z m-346-84l-52 73a30 30 0 0 1-49-35l70-99a30 30 0 0 1 20-13 32 32 0 0 1 4 0 30 30 0 0 1 19 7l308 249a30 30 0 0 1-38 47z" horiz-adv-x="918" />
</font>
</defs>
</svg>
